<?xml version="1.0" encoding="utf-8"?>
<!-- Generator: Adobe Illustrator 27.5.0, SVG Export Plug-In . SVG Version: 6.00 Build 0)  -->
<svg version="1.1" xmlns="http://www.w3.org/2000/svg" xmlns:xlink="http://www.w3.org/1999/xlink" x="0px" y="0px"
	 viewBox="0 0 3710 3710" style="enable-background:new 0 0 3710 3710;" xml:space="preserve">
<g id="Background">
	<g>
		<g>
			<rect style="fill:#FFFFFF;" width="3710" height="3710"/>
		</g>
	</g>
</g>
<g id="Illustration">
	<g>
		<linearGradient id="SVGID_1_" gradientUnits="userSpaceOnUse" x1="3464.7595" y1="3234.998" x2="1415.1387" y2="1441.5811">
			<stop  offset="0" style="stop-color:#DAE3FE"/>
			<stop  offset="1" style="stop-color:#E9EFFD"/>
		</linearGradient>
		<path style="fill:url(#SVGID_1_);" d="M3116.431,2303.597c-264.894,623.718-970.509,973.128-1582.42,878.876
			c-99.57-15.337-372.545-61.023-614.226-276.552C454.532,2491.01,355.034,1669.433,730.34,1090.448
			c273.156-421.399,762.817-660.277,1228.091-648.328c100.22,2.574,484.305,18.436,821.848,296.767
			c49.578,40.881,158.929,138.027,257.48,292.142C3269.174,1392.92,3289.065,1897.112,3116.431,2303.597z"/>
		<g>
			<g>
				<path style="fill:#BDD0FB;" d="M570.343,851.211c3.883-17.482,28.676-18.14,33.405-0.867
					c45.719,166.986,179.319,601.097,387.645,832.325c339.202,376.492,562.68,985.788,341.916,1299.253
					C1333.309,2981.922,147.25,2755.976,570.343,851.211z"/>
				<path style="opacity:0.43;fill:#FFFFFF;" d="M601.743,1089.268c0.389,5.451,1.142,9.918,1.742,14.758l2.077,14.23l4.466,28.383
					c3.106,18.895,6.5,37.736,9.897,56.578c6.927,37.656,14.321,75.222,22.06,112.722c15.616,74.969,33.26,149.505,52.022,223.76
					c18.659,74.288,39.395,148.055,61.685,221.351c22.353,73.273,45.753,146.259,71.541,218.436
					c51.284,144.427,110.472,286.204,179.439,423.228c35.198,68.134,72.195,135.385,113.014,200.346
					c41.271,64.643,85.313,127.565,133.744,186.993c1.053,1.292,2.954,1.486,4.247,0.432c1.26-1.027,1.476-2.861,0.51-4.15
					l-0.026-0.033c-45.92-61.041-88.476-124.438-127.832-189.788c-39.543-65.25-75.256-132.739-109.16-201.055
					c-33.875-68.357-64.991-138.065-94.514-208.426c-29.501-70.391-56.073-141.967-82.236-213.672
					c-51.728-143.674-95.761-290.055-135.736-437.497c-19.832-73.773-38.179-147.954-55.205-222.442
					c-8.573-37.232-16.804-74.544-24.571-111.955l-11.209-56.197l-5.315-28.144l-2.499-14.086
					c-0.744-4.627-1.622-9.589-2.106-13.663l-0.08-0.673c-0.195-1.641-1.682-2.814-3.324-2.619
					C602.783,1086.273,601.633,1087.686,601.743,1089.268z"/>
			</g>
			<g>
				<path style="fill:#91B3FA;" d="M1150.345,476.259c8.33-14.972,31.246-8.812,30.871,8.318
					c-3.628,165.607,0.464,600.155,128.429,869.034c208.358,437.797,247.081,1057.518-40.884,1284.756
					C1268.761,2638.367,242.724,2107.603,1150.345,476.259z"/>
				<path style="opacity:0.43;fill:#FFFFFF;" d="M1114.147,703.12c-1.135,5.116-1.663,9.413-2.435,14.016l-1.98,13.617
					l-3.655,27.247c-2.312,18.176-4.342,36.38-6.371,54.584c-3.928,36.422-7.404,72.89-10.544,109.39
					c-6.144,73.012-10.304,146.179-13.366,219.395c-3.167,73.217-4.278,146.524-3.834,219.823
					c0.507,73.295,2.052,146.613,6.008,219.841c7.627,146.443,23.241,292.611,49.117,437.089
					c13.702,72.086,29.295,143.853,49.019,214.561c20.231,70.54,43.468,140.255,71.694,207.958c0.626,1.499,2.347,2.208,3.846,1.583
					c1.462-0.609,2.172-2.261,1.628-3.732l-0.015-0.038c-25.433-68.512-47.15-138.26-65.397-208.927
					c-18.451-70.625-32.779-142.256-45.222-214.153c-12.409-71.926-21.925-144.337-29.8-216.912
					c-7.848-72.597-12.682-145.483-17.119-218.374c-8.252-145.862-8.694-292.108-5.153-438.223
					c1.928-73.062,5.333-146.094,10.027-219.047c2.287-36.481,4.91-72.945,7.986-109.371l5.04-54.593l2.797-27.259l1.547-13.599
					c0.578-4.444,1.127-9.238,1.791-13.095l0.113-0.652c0.273-1.587-0.792-3.095-2.378-3.367
					C1115.949,700.612,1114.484,701.613,1114.147,703.12z"/>
			</g>
		</g>
		<g>
			<path style="fill:#91B3FA;" d="M2146.591,3096.832c0,0,154.715-1356.782,736.47-2152.579
				c39.108-53.495,124.675-44.13,150.731,16.694C3208.024,1367.658,3603.008,2616.246,2146.591,3096.832z"/>
			<path style="opacity:0.5;fill:#FFFFFF;" d="M2272.569,2996.379c-2.949,3.526,2.142,8.012,5.561,4.901
				c126.047-114.698,599.911-662.017,672.354-1655.283c0.232-3.19-4.7-3.845-5.219-0.687
				C2907.008,1577.95,2738.914,2438.799,2272.569,2996.379z"/>
		</g>
		<g>
			<g>
				
					<linearGradient id="SVGID_00000081613287868657692400000006555244411897306555_" gradientUnits="userSpaceOnUse" x1="3383.1255" y1="1445.199" x2="2843.6948" y2="2440.147" gradientTransform="matrix(0.3621 -0.9322 0.9322 0.3621 -813.6256 3210.7695)">
					<stop  offset="0" style="stop-color:#FF928E"/>
					<stop  offset="1" style="stop-color:#FE7062"/>
				</linearGradient>
				<path style="fill:url(#SVGID_00000081613287868657692400000006555244411897306555_);" d="M2213.007,743.731l-93.598,94.943
					c-7.279,7.385-10.458,17.877-8.503,28.06l25.153,130.931c4.925,25.641-21.689,45.799-45.038,34.111l-119.22-59.676
					c-9.275-4.641-20.236-4.424-29.314,0.584l-116.751,64.381c-22.862,12.609-50.26-6.474-46.361-32.291l19.917-131.828
					c1.548-10.251-2.047-20.609-9.616-27.698l-97.307-91.141c-19.055-17.848-9.374-49.801,16.383-54.069l131.53-21.798
					c10.23-1.695,18.969-8.315,23.373-17.702l56.609-120.708c11.088-23.64,44.467-24.305,56.486-1.126l61.376,118.357
					c4.775,9.204,13.77,15.47,24.058,16.756l132.295,16.54C2220.388,693.594,2231.337,725.135,2213.007,743.731z"/>
				<path style="opacity:0.66;fill:#FFFFFF;" d="M1947.339,939.179c-6.879,1.166-13.458,3.466-19.563,6.835l-76.246,42.041
					c-8.015,4.42-17.655,3.915-25.168-1.32c-7.507-5.227-11.317-14.096-9.955-23.141l13.005-86.096
					c3.047-20.167-4.022-40.536-18.909-54.484l-63.553-59.524c-6.677-6.252-9.176-15.578-6.526-24.336
					c2.665-8.758,9.919-15.126,18.941-16.624l43.891-7.274l1.107,6.676l-43.891,7.275c-6.571,1.087-11.619,5.579-13.569,11.912
					c-1.927,6.368-0.182,12.882,4.677,17.432l63.552,59.523c16.517,15.473,24.358,38.066,20.978,60.437l-13.001,86.095
					c-0.995,6.579,1.669,12.774,7.129,16.579c5.458,3.804,12.193,4.155,18.023,0.941l76.246-42.04
					c6.771-3.734,14.073-6.286,21.696-7.581L1947.339,939.179z"/>
				<path style="opacity:0.66;fill:#FFFFFF;" d="M2096.252,971.144c-1.565,4.03-4.24,7.631-7.859,10.372
					c-7.297,5.526-16.908,6.411-25.093,2.317l-59.569-29.815l3.033-6.056l59.569,29.815c5.948,2.981,12.666,2.361,17.97-1.657
					c5.308-4.019,7.725-10.317,6.462-16.855l-16.42-85.499c-4.225-21.954,2.834-45.294,18.551-61.228l61.126-62.005
					c4.666-4.744,6.146-11.329,3.977-17.609c-2.182-6.287-7.428-10.533-14.03-11.356l-86.406-10.806
					c-22.455-2.81-42.075-16.477-52.479-36.559l-40.097-77.298c-3.066-5.911-8.862-9.359-15.515-9.226
					c-6.657,0.133-12.311,3.81-15.134,9.833l-36.972,78.843c-3.825,8.151-9.127,15.372-15.77,21.459l-4.571-4.988
					c5.983-5.489,10.767-11.999,14.209-19.349l36.972-78.838c3.885-8.284,11.978-13.547,21.127-13.728
					c9.149-0.183,17.453,4.751,21.66,12.875l40.094,77.299c9.386,18.106,27.076,30.43,47.313,32.959l86.407,10.804
					c9.078,1.133,16.584,7.208,19.587,15.854c2.995,8.646,0.868,18.065-5.549,24.583l-61.128,62.004
					c-14.172,14.37-20.538,35.401-16.718,55.199l16.419,85.502C2098.285,962.516,2097.841,967.051,2096.252,971.144z"/>
				
					<rect x="1803.632" y="713.054" transform="matrix(0.9866 -0.1634 0.1634 0.9866 -92.6386 306.4532)" style="opacity:0.66;fill:#FFFFFF;" width="26.362" height="6.769"/>
			</g>
			<g>
				
					<linearGradient id="SVGID_00000127742996438943568280000001617458927973358230_" gradientUnits="userSpaceOnUse" x1="2554.7805" y1="1259.0059" x2="2080.9602" y2="2132.9397" gradientTransform="matrix(0.0171 -0.9999 0.9999 0.0171 -81.3033 3373.5911)">
					<stop  offset="0" style="stop-color:#FF928E"/>
					<stop  offset="1" style="stop-color:#FE7062"/>
				</linearGradient>
				<path style="fill:url(#SVGID_00000127742996438943568280000001617458927973358230_);" d="M1645.386,837.121l-48.269,106.695
					c-3.754,8.298-3.184,17.912,1.524,25.709l60.532,100.25c11.853,19.633-3.95,44.335-26.744,41.802l-116.389-12.934
					c-9.054-1.005-18.021,2.506-23.979,9.393l-76.64,88.548c-15.007,17.341-43.386,9.944-48.021-12.516l-23.664-114.692
					c-1.841-8.918-7.952-16.361-16.344-19.902l-107.896-45.526c-21.129-8.915-22.864-38.19-2.936-49.538l101.764-57.949
					c7.915-4.506,13.104-12.619,13.88-21.693l9.955-116.683c1.951-22.852,29.256-33.547,46.207-18.1l86.56,78.877
					c6.733,6.133,16.051,8.563,24.92,6.494l114.05-26.588C1636.228,793.56,1654.839,816.224,1645.386,837.121z"/>
				<path style="opacity:0.66;fill:#FFFFFF;" d="M1485.872,1078.95c-5.314,3.052-10.037,6.948-14.043,11.58l-50.052,57.824
					c-5.261,6.079-13.359,8.594-21.142,6.563c-7.775-2.025-13.612-8.176-15.239-16.044l-15.457-74.904
					c-3.62-17.546-15.638-32.182-32.146-39.151l-70.469-29.732c-7.403-3.122-12.297-10.048-12.776-18.071
					c-0.466-8.027,3.575-15.48,10.555-19.458l33.958-19.337l2.943,5.165l-33.958,19.338c-5.084,2.893-7.879,8.13-7.561,13.941
					c0.348,5.833,3.767,10.671,9.154,12.944l70.467,29.732c18.315,7.73,31.645,23.964,35.661,43.428l15.459,74.901
					c1.18,5.724,5.259,10.02,10.915,11.495c5.654,1.476,11.311-0.283,15.138-4.704l50.053-57.824
					c4.445-5.136,9.687-9.458,15.575-12.843L1485.872,1078.95z"/>
				<path style="opacity:0.66;fill:#FFFFFF;" d="M1618.306,1060.021c-0.065,3.797-1.174,7.578-3.323,10.937
					c-4.333,6.772-11.985,10.424-19.974,9.538l-58.153-6.461l0.658-5.913l58.153,6.461c5.808,0.648,11.155-1.905,14.305-6.829
					c3.152-4.926,3.23-10.851,0.201-15.854l-39.524-65.466c-10.156-16.807-11.433-38.187-3.326-56.096l31.523-69.68
					c2.403-5.328,1.62-11.204-2.076-15.72c-3.71-4.517-9.323-6.422-15.014-5.093l-74.491,17.363
					c-19.359,4.511-39.682-0.788-54.361-14.174l-56.542-51.51c-4.323-3.939-10.148-5.018-15.59-2.886
					c-5.445,2.133-8.987,6.883-9.482,12.704l-6.499,76.213c-0.674,7.879-2.849,15.442-6.472,22.478l-5.283-2.721
					c3.262-6.343,5.225-13.162,5.827-20.264l6.501-76.209c0.683-8.008,5.753-14.805,13.237-17.736
					c7.484-2.932,15.827-1.39,21.763,4.025l56.54,51.512c13.239,12.068,31.563,16.845,49.01,12.777l74.49-17.365
					c7.825-1.826,15.858,0.898,20.961,7.111c5.097,6.215,6.208,14.623,2.9,21.945l-31.525,69.68
					c-7.31,16.151-6.162,35.417,3.004,50.571l39.523,65.469C1617.358,1052.293,1618.371,1056.165,1618.306,1060.021z"/>
				
					<rect x="1299.016" y="932.101" transform="matrix(0.869 -0.4947 0.4947 0.869 -290.9827 770.8422)" style="opacity:0.66;fill:#FFFFFF;" width="23.156" height="5.946"/>
			</g>
			<g>
				
					<linearGradient id="SVGID_00000067945390123651772180000008927894199794139822_" gradientUnits="userSpaceOnUse" x1="1445.9221" y1="1747.9786" x2="992.3721" y2="2584.5251" gradientTransform="matrix(-0.2299 -0.9732 0.9732 -0.2299 -541.62 3013.3713)">
					<stop  offset="0" style="stop-color:#FF928E"/>
					<stop  offset="1" style="stop-color:#FE7062"/>
				</linearGradient>
				<path style="fill:url(#SVGID_00000067945390123651772180000008927894199794139822_);" d="M1219.71,1101.05l-19.605,110.36
					c-1.524,8.583,1.272,17.367,7.478,23.489l79.801,78.715c15.627,15.416,6.795,42.058-14.947,45.086l-111.017,15.459
					c-8.636,1.204-16.125,6.576-20.028,14.37l-50.204,100.219c-9.83,19.626-37.9,19.46-47.499-0.281l-49.008-100.808
					c-3.812-7.839-11.237-13.301-19.857-14.606l-110.827-16.777c-21.703-3.286-30.219-30.032-14.41-45.26l80.728-77.763
					c6.279-6.047,9.179-14.797,7.757-23.398l-18.293-110.586c-3.581-21.659,19.224-38.021,38.593-27.691l98.903,52.747
					c7.692,4.101,16.909,4.156,24.649,0.145l99.523-51.569C1200.938,1062.803,1223.549,1079.436,1219.71,1101.05z"/>
				<path style="opacity:0.66;fill:#FFFFFF;" d="M1128.792,1363.008c-4.21,4.085-7.671,8.813-10.295,14.055l-32.788,65.447
					c-3.446,6.88-10.364,11.123-18.064,11.076c-7.69-0.045-14.555-4.373-17.921-11.288l-32.009-65.836
					c-7.498-15.422-22.099-26.164-39.056-28.734l-72.383-10.956c-7.604-1.15-13.778-6.419-16.115-13.749
					c-2.326-7.336-0.335-15.203,5.201-20.54l26.939-25.949l3.948,4.097l-26.938,25.95c-4.034,3.884-5.391,9.4-3.725,14.716
					c1.699,5.329,6.011,9.01,11.545,9.848l72.381,10.956c18.813,2.849,35.008,14.764,43.325,31.872l32.011,65.833
					c2.445,5.031,7.242,8.054,12.836,8.088c5.593,0.035,10.426-2.931,12.933-7.935l32.789-65.447
					c2.912-5.813,6.754-11.059,11.417-15.588L1128.792,1363.008z"/>
				<path style="opacity:0.66;fill:#FFFFFF;" d="M1247.175,1314.207c0.835,3.537,0.698,7.307-0.502,10.929
					c-2.422,7.304-8.658,12.497-16.278,13.56l-55.469,7.726l-0.784-5.64l55.469-7.726c5.54-0.769,9.899-4.399,11.659-9.709
					c1.762-5.313,0.436-10.828-3.554-14.754l-52.107-51.404c-13.386-13.195-19.615-32.726-16.319-51.251l12.803-72.074
					c0.972-5.509-1.14-10.775-5.635-14.093c-4.507-3.315-10.163-3.758-15.129-1.182l-65.003,33.679
					c-16.894,8.752-36.996,8.631-53.771-0.323l-64.601-34.443c-4.94-2.634-10.597-2.261-15.143,1
					c-4.548,3.264-6.713,8.505-5.799,14.022l11.951,72.23c1.234,7.468,1.001,14.997-0.701,22.378l-5.543-1.278
					c1.53-6.653,1.742-13.442,0.625-20.172l-11.948-72.227c-1.256-7.589,1.844-15.091,8.095-19.575
					c6.251-4.485,14.354-5.024,21.138-1.401l64.6,34.445c15.128,8.071,33.253,8.18,48.477,0.29l65.003-33.681
					c6.828-3.54,14.922-2.908,21.121,1.651c6.194,4.562,9.208,12.1,7.867,19.673l-12.805,72.074
					c-2.971,16.706,2.639,34.308,14.717,46.202l52.108,51.406C1244.473,1307.262,1246.326,1310.615,1247.175,1314.207z"/>
				
					<rect x="921.175" y="1268.051" transform="matrix(0.7203 -0.6937 0.6937 0.7203 -620.8231 1002.1548)" style="opacity:0.66;fill:#FFFFFF;" width="22.163" height="5.691"/>
			</g>
			<g>
				
					<linearGradient id="SVGID_00000075142774320495390440000017351916885060196543_" gradientUnits="userSpaceOnUse" x1="3672.9558" y1="699.7682" x2="3219.427" y2="1536.276" gradientTransform="matrix(0.7789 -0.6272 0.6272 0.7789 -907.6158 2465.9197)">
					<stop  offset="0" style="stop-color:#FF928E"/>
					<stop  offset="1" style="stop-color:#FE7062"/>
				</linearGradient>
				<path style="fill:url(#SVGID_00000075142774320495390440000017351916885060196543_);" d="M2654.673,1016.959l-108.023,29.912
					c-8.401,2.327-15.12,8.638-17.966,16.878l-36.597,105.948c-7.168,20.748-35.014,24.271-47.124,5.961l-61.83-93.492
					c-4.811-7.272-12.888-11.712-21.603-11.871l-112.072-2.068c-21.947-0.404-33.904-25.8-20.233-42.975l69.812-87.695
					c5.428-6.82,7.154-15.874,4.613-24.214l-32.665-107.224c-6.396-20.998,14.061-40.217,34.618-32.522l104.977,39.293
					c8.164,3.057,17.309,1.899,24.455-3.093l91.881-64.201c17.996-12.573,42.594,0.945,41.628,22.875l-4.93,111.981
					c-0.382,8.709,3.543,17.048,10.5,22.301l89.451,67.547C2681.083,983.526,2675.829,1011.1,2654.673,1016.959z"/>
				<path style="opacity:0.66;fill:#FFFFFF;" d="M2379.119,1047.918c-5.501-2.036-11.26-3.12-17.121-3.226l-73.188-1.353
					c-7.694-0.142-14.505-4.553-17.784-11.52c-3.277-6.957-2.333-15.018,2.454-21.036l45.592-57.274
					c10.68-13.416,14.074-31.222,9.078-47.629l-21.335-70.029c-2.242-7.356-0.151-15.199,5.454-20.469
					c5.615-5.263,13.572-6.86,20.774-4.167l35.03,13.112l-1.994,5.329l-35.031-13.111c-5.244-1.964-10.806-0.809-14.884,2.987
					c-4.075,3.832-5.536,9.31-3.905,14.663l21.335,70.028c5.544,18.202,1.779,37.952-10.068,52.835l-45.589,57.275
					c-3.484,4.376-4.143,10.008-1.76,15.07c2.381,5.061,7.141,8.142,12.737,8.246l73.188,1.354c6.5,0.12,12.891,1.324,18.988,3.578
					L2379.119,1047.918z"/>
				<path style="opacity:0.66;fill:#FFFFFF;" d="M2474.208,1133.675c-2.831,2.279-6.291,3.781-10.077,4.26
					c-7.635,0.966-15.009-2.422-19.254-8.838l-30.895-46.712l4.75-3.14l30.895,46.712c3.084,4.667,8.238,7.033,13.788,6.331
					c5.553-0.702,9.957-4.277,11.779-9.57l23.902-69.182c6.131-17.768,21.065-31.812,39.2-36.829l70.547-19.535
					c5.389-1.499,9.23-5.676,10.284-11.162c1.047-5.496-0.993-10.79-5.459-14.159l-58.422-44.12
					c-15.182-11.467-23.744-29.655-22.9-48.651l3.211-73.139c0.246-5.593-2.531-10.536-7.434-13.23
					c-4.906-2.695-10.568-2.388-15.151,0.816l-60.012,41.936c-6.206,4.334-13.098,7.371-20.492,9.02l-1.238-5.552
					c6.662-1.49,12.878-4.226,18.469-8.137l60.01-41.932c6.305-4.406,14.41-4.845,21.152-1.14
					c6.743,3.705,10.723,10.783,10.381,18.467l-3.214,73.139c-0.757,17.129,6.963,33.529,20.647,43.861l58.424,44.118
					c6.139,4.634,9.06,12.208,7.62,19.768c-1.444,7.556-6.945,13.526-14.355,15.583l-70.548,19.534
					c-16.354,4.525-29.814,17.178-35.336,33.205l-23.904,69.184C2479.308,1128.242,2477.083,1131.36,2474.208,1133.675z"/>
				
					<rect x="2374.609" y="819.794" transform="matrix(0.3507 -0.9365 0.9365 0.3507 765.6491 2766.0051)" style="opacity:0.66;fill:#FFFFFF;" width="5.691" height="22.164"/>
			</g>
			<g>
				
					<linearGradient id="SVGID_00000047778780105877561970000009397565638427261869_" gradientUnits="userSpaceOnUse" x1="3332.9866" y1="-433.6223" x2="2879.4504" y2="402.8985" gradientTransform="matrix(0.9315 -0.3638 0.3638 0.9315 -107.6865 2615.4858)">
					<stop  offset="0" style="stop-color:#FF928E"/>
					<stop  offset="1" style="stop-color:#FE7062"/>
				</linearGradient>
				<path style="fill:url(#SVGID_00000047778780105877561970000009397565638427261869_);" d="M2996.437,1373.337l-112.017-3.975
					c-8.712-0.309-17.018,3.689-22.212,10.69l-66.779,90.027c-13.078,17.63-40.694,12.611-46.733-8.494l-30.836-107.763
					c-2.4-8.383-8.767-15.047-17.031-17.821l-106.257-35.692c-20.808-6.988-24.57-34.806-6.365-47.071l92.962-62.627
					c7.229-4.871,11.598-12.987,11.685-21.704l1.11-112.084c0.218-21.949,25.51-34.123,42.799-20.599l88.291,69.057
					c6.866,5.372,15.935,7.019,24.253,4.408l106.94-33.582c20.945-6.576,40.336,13.717,32.816,34.34l-38.394,105.309
					c-2.985,8.19-1.75,17.324,3.304,24.427l64.983,91.331C3031.682,1349.399,3018.375,1374.114,2996.437,1373.337z"/>
				<path style="opacity:0.66;fill:#FFFFFF;" d="M2724.336,1319.954c-4.633-3.597-9.799-6.363-15.356-8.228l-69.39-23.311
					c-7.294-2.45-12.463-8.707-13.494-16.337c-1.031-7.621,2.294-15.024,8.67-19.323l60.711-40.903
					c14.221-9.581,22.815-25.541,22.988-42.691l0.723-73.203c0.075-7.69,4.429-14.54,11.36-17.88
					c6.939-3.329,15.007-2.459,21.065,2.276l29.462,23.044l-3.505,4.482l-29.463-23.044c-4.41-3.451-10.061-4.023-15.093-1.63
					c-5.039,2.428-8.081,7.213-8.136,12.809l-0.724,73.202c-0.189,19.027-9.722,36.729-25.498,47.357l-60.709,40.905
					c-4.639,3.125-6.962,8.297-6.213,13.842c0.748,5.543,4.36,9.913,9.666,11.696l69.39,23.312
					c6.163,2.07,11.895,5.141,17.031,9.125L2724.336,1319.954z"/>
				<path style="opacity:0.66;fill:#FFFFFF;" d="M2789.218,1430.347c-3.386,1.322-7.137,1.714-10.892,1.031
					c-7.571-1.376-13.585-6.825-15.703-14.221l-15.409-53.843l5.475-1.566l15.409,53.843c1.537,5.378,5.74,9.186,11.245,10.186
					c5.507,1.001,10.782-1.083,14.112-5.583l43.61-58.785c11.193-15.1,29.661-24,48.465-23.328l73.156,2.596
					c5.591,0.192,10.51-2.636,13.166-7.551c2.652-4.926,2.299-10.589-0.946-15.146l-42.441-59.653
					c-11.029-15.504-13.721-35.425-7.201-53.287l25.068-68.784c1.917-5.26,0.757-10.809-3.109-14.854
					c-3.868-4.047-9.36-5.457-14.695-3.78l-69.849,21.937c-7.222,2.266-14.709,3.089-22.256,2.437l0.49-5.667
					c6.802,0.584,13.553-0.156,20.062-2.203l69.845-21.934c7.339-2.305,15.2-0.285,20.515,5.277
					c5.316,5.562,6.982,13.51,4.344,20.734l-25.071,68.783c-5.875,16.108-3.448,34.07,6.493,48.041l42.442,59.652
					c4.46,6.266,4.967,14.368,1.32,21.145c-3.651,6.771-10.693,10.81-18.379,10.542l-73.156-2.598
					c-16.958-0.605-33.601,7.412-43.689,21.035l-43.612,58.786C2795.716,1426.7,2792.655,1429.004,2789.218,1430.347z"/>
				
					<rect x="2785.207" y="1101.385" transform="matrix(0.6162 -0.7876 0.7876 0.6162 193.9154 2622.8555)" style="opacity:0.66;fill:#FFFFFF;" width="5.691" height="22.164"/>
			</g>
		</g>
		<g>
			
				<linearGradient id="SVGID_00000110470643457463814590000012603205400624298400_" gradientUnits="userSpaceOnUse" x1="587.4282" y1="3763.8625" x2="1912.5417" y2="2225.7864">
				<stop  offset="0" style="stop-color:#E1473D"/>
				<stop  offset="1" style="stop-color:#E9605A"/>
			</linearGradient>
			
				<circle style="fill:url(#SVGID_00000110470643457463814590000012603205400624298400_);" cx="1939.308" cy="2194.719" r="987.921"/>
			
				<linearGradient id="SVGID_00000147190362618029847870000017684439414370018732_" gradientUnits="userSpaceOnUse" x1="2656.8479" y1="461.5851" x2="1356.9154" y2="3601.4185">
				<stop  offset="0" style="stop-color:#FF928E"/>
				<stop  offset="1" style="stop-color:#FE7062"/>
			</linearGradient>
			
				<circle style="fill:url(#SVGID_00000147190362618029847870000017684439414370018732_);" cx="1939.308" cy="2194.719" r="955.072"/>
			<path style="opacity:0.78;fill:#FFFFFF;" d="M1058.899,2156.976c-0.159,0-0.318,0-0.481-0.009
				c-4.985-0.265-8.818-4.521-8.557-9.502c1.956-37.479,6.31-75.117,12.938-111.88c0.892-4.91,5.568-8.177,10.505-7.294
				c4.919,0.892,8.182,5.59,7.299,10.509c-6.495,36.013-10.761,72.891-12.681,109.602
				C1067.668,2153.231,1063.676,2156.976,1058.899,2156.976z"/>
			<path style="opacity:0.78;fill:#FFFFFF;" d="M1151.757,1807.019c-1.369,0-2.76-0.309-4.067-0.971
				c-4.46-2.252-6.248-7.692-3.996-12.143c152.521-302.163,457.382-489.866,795.615-489.866c53.958,0,108.017,4.866,160.672,14.456
				c4.915,0.892,8.173,5.599,7.277,10.509c-0.892,4.919-5.559,8.222-10.518,7.277c-51.586-9.396-104.555-14.156-157.431-14.156
				c-331.367,0-630.042,183.898-779.472,479.923C1158.248,1805.2,1155.064,1807.019,1151.757,1807.019z"/>
			<circle style="opacity:0.78;fill:#FFFFFF;" cx="1960.117" cy="2215.529" r="808.351"/>
			
				<linearGradient id="SVGID_00000025403775374681444120000012653623647036125366_" gradientUnits="userSpaceOnUse" x1="2242.1758" y1="1030.9324" x2="1547.212" y2="3200.8245">
				<stop  offset="0" style="stop-color:#FF928E"/>
				<stop  offset="1" style="stop-color:#FE7062"/>
			</linearGradient>
			<path style="fill:url(#SVGID_00000025403775374681444120000012653623647036125366_);" d="M2207.607,1910.079
				c0,136.875-110.958,284.64-247.832,284.64c-136.875,0-247.833-147.765-247.833-284.64c0-136.874,110.958-233.979,247.833-233.979
				C2096.648,1676.1,2207.607,1773.206,2207.607,1910.079z"/>
			
				<linearGradient id="SVGID_00000137107529770615174910000016320411596219026055_" gradientUnits="userSpaceOnUse" x1="2405.1843" y1="1083.1389" x2="1710.2225" y2="3253.0249">
				<stop  offset="0" style="stop-color:#FF928E"/>
				<stop  offset="1" style="stop-color:#FE7062"/>
			</linearGradient>
			<path style="fill:url(#SVGID_00000137107529770615174910000016320411596219026055_);" d="M1652.213,2721.696h605.002
				c63.686,0,120.071-41.16,139.477-101.818l32.556-101.752c23.836-74.501-14.917-155.164-88.383-182.025
				c-246.214-90.023-500.807-78.473-761.608,8.307c-73.063,24.311-113.607,102.462-93.447,176.778l25.068,92.409
				C1528.187,2677.4,1586.1,2721.696,1652.213,2721.696z"/>
		</g>
		<g>
			
				<linearGradient id="SVGID_00000080189635609895632780000013038119299782984889_" gradientUnits="userSpaceOnUse" x1="-4804.6538" y1="2507.3818" x2="-4676.5469" y2="2507.3818" gradientTransform="matrix(1 0 0 1 5585.3584 0)">
				<stop  offset="0" style="stop-color:#FEBBBA"/>
				<stop  offset="1" style="stop-color:#FF928E"/>
			</linearGradient>
			<path style="fill:url(#SVGID_00000080189635609895632780000013038119299782984889_);" d="M826.814,2441.357
				c-13.142,14.028-32.493,26.149-46.109,33.708c20.336,25.136,47.852,50.308,84.279,74.946l10.425,23.395l33.403-40.035
				C908.812,2533.372,848.874,2503.544,826.814,2441.357z"/>
			
				<linearGradient id="SVGID_00000000941399363028597370000016061903645848047246_" gradientUnits="userSpaceOnUse" x1="-3266.9275" y1="-1841.2361" x2="-3396.9275" y2="-1361.2365" gradientTransform="matrix(1 0 0 1 5585.3584 0)">
				<stop  offset="0" style="stop-color:#09005D"/>
				<stop  offset="1" style="stop-color:#1A0F91"/>
			</linearGradient>
			<path style="fill:url(#SVGID_00000000941399363028597370000016061903645848047246_);" d="M1005.574,3200.67
				c0.011-0.716-0.037-1.44-0.22-2.17c-10.819-42.894-64.518-69.61-64.518-69.61l-21.279,1.667
				c-12.235,37.806-10.663,60.993-8.698,71.32c0.054,0.29,0.142,0.565,0.219,0.845
				C928.631,3204.29,964.76,3205.315,1005.574,3200.67z"/>
			
				<linearGradient id="SVGID_00000158726319771408954330000017174980466089779592_" gradientUnits="userSpaceOnUse" x1="-4435.3613" y1="3053.1423" x2="-4784.832" y2="3327.5479" gradientTransform="matrix(1 0 0 1 5585.3584 0)">
				<stop  offset="0" style="stop-color:#4F52FF"/>
				<stop  offset="1" style="stop-color:#4042E2"/>
			</linearGradient>
			<path style="fill:url(#SVGID_00000158726319771408954330000017174980466089779592_);" d="M911.078,3202.723
				c0.948,3.448,3.494,6.134,6.753,6.819c24.97,5.251,64.656,1.025,81.318-1.153c3.677-0.481,6.363-3.881,6.424-7.719
				C964.76,3205.315,928.631,3204.29,911.078,3202.723z"/>
			
				<linearGradient id="SVGID_00000016036671375242879870000003823398809796383152_" gradientUnits="userSpaceOnUse" x1="-4649.1304" y1="3057.1057" x2="-4667.4795" y2="3217.2446" gradientTransform="matrix(1 0 0 1 5585.3584 0)">
				<stop  offset="0" style="stop-color:#FEBBBA"/>
				<stop  offset="1" style="stop-color:#FF928E"/>
			</linearGradient>
			<path style="fill:url(#SVGID_00000016036671375242879870000003823398809796383152_);" d="M911,3098.864l9.012,43.385
				c0.66,3.179,3.103,5.56,6.062,5.837c3.622,0.34,8.777,0.539,13.962-0.222c4.649-0.684,7.887-5.408,7.063-10.479l-6.264-38.522
				H911z"/>
			
				<linearGradient id="SVGID_00000044172259505529188090000005868732532490734726_" gradientUnits="userSpaceOnUse" x1="-4373.2803" y1="3132.2061" x2="-4722.751" y2="3406.6116" gradientTransform="matrix(1 0 0 1 5585.3584 0)">
				<stop  offset="0" style="stop-color:#4F52FF"/>
				<stop  offset="1" style="stop-color:#4042E2"/>
			</linearGradient>
			<path style="fill:url(#SVGID_00000044172259505529188090000005868732532490734726_);" d="M1097.73,3202.287
				c-23.501-0.658-35.656-3.426-41.94-5.994c-0.015,2.336-0.002,4.715,0.074,7.179c0.081,2.632,2.031,4.734,4.428,4.718
				l129.035-0.833c4.118-0.027,6.525-4.803,4.74-8.579C1177.148,3200.176,1134.058,3203.303,1097.73,3202.287z"/>
			
				<linearGradient id="SVGID_00000150822963287891018940000002819719195349283494_" gradientUnits="userSpaceOnUse" x1="-3110.2317" y1="-1798.7975" x2="-3240.2317" y2="-1318.798" gradientTransform="matrix(1 0 0 1 5585.3584 0)">
				<stop  offset="0" style="stop-color:#09005D"/>
				<stop  offset="1" style="stop-color:#1A0F91"/>
			</linearGradient>
			<path style="fill:url(#SVGID_00000150822963287891018940000002819719195349283494_);" d="M1194.067,3198.778
				c-0.155-0.329-0.289-0.663-0.511-0.973c-11.396-15.923-40.42-47.63-97.771-61.381l-27.513-0.869c0,0-12.251,21.294-12.482,60.737
				c6.284,2.568,18.439,5.336,41.94,5.994C1134.058,3203.303,1177.148,3200.176,1194.067,3198.778z"/>
			
				<linearGradient id="SVGID_00000114060205585600303470000010564047240537110150_" gradientUnits="userSpaceOnUse" x1="-4499.6621" y1="3074.2322" x2="-4518.0112" y2="3234.3706" gradientTransform="matrix(1 0 0 1 5585.3584 0)">
				<stop  offset="0" style="stop-color:#FEBBBA"/>
				<stop  offset="1" style="stop-color:#FF928E"/>
			</linearGradient>
			<path style="fill:url(#SVGID_00000114060205585600303470000010564047240537110150_);" d="M1063.17,3093.859
				c0.305,2.051,4.077,33.22,5.536,45.306c0.347,2.872,2.427,5.094,5.05,5.407c4.685,0.56,12.266,1.069,18.899-0.291
				c3.578-0.733,6.168-4.171,6.168-8.167v-48.927L1063.17,3093.859z"/>
			
				<linearGradient id="SVGID_00000170990874663611288890000013879234474050534276_" gradientUnits="userSpaceOnUse" x1="-4281.6421" y1="2341.9451" x2="-4868.5166" y2="3252.6133" gradientTransform="matrix(1 0 0 1 5585.3584 0)">
				<stop  offset="0" style="stop-color:#09005D"/>
				<stop  offset="1" style="stop-color:#1A0F91"/>
			</linearGradient>
			<path style="fill:url(#SVGID_00000170990874663611288890000013879234474050534276_);" d="M1041.097,2525.031
				c0,0,66.36,252.191,65.16,569.549c-0.022,5.786-4.084,10.779-9.746,11.972c-8.343,1.757-20.608,3.844-30.762,3.559
				c-5.42-0.152-9.951-4.172-10.863-9.517c-9.304-54.565-62.702-361.963-93.125-411.868c0,0-20.017,273.782-13.618,415.822
				c0.159,3.532-2.428,6.595-5.939,7.001c-5.327,0.616-13.85,1.084-24.697-0.068c-4.117-0.437-7.439-3.549-8.027-7.648
				c-6.628-46.181-44.774-321.066-43.153-519.082c0.092-11.167,29.531-59.719,29.531-59.719H1041.097z"/>
			
				<linearGradient id="SVGID_00000072979241850776413410000015050660274872437688_" gradientUnits="userSpaceOnUse" x1="-5409.4912" y1="2162.9519" x2="-5503.7334" y2="3085.7341" gradientTransform="matrix(1 0 0 1 6353.127 0)">
				<stop  offset="0" style="stop-color:#4F52FF"/>
				<stop  offset="1" style="stop-color:#4042E2"/>
			</linearGradient>
			<path style="fill:url(#SVGID_00000072979241850776413410000015050660274872437688_);" d="M1133.387,2219.817
				c-10.77-13.5-20.205-27.971-28.097-42.881c-11.023-20.825-0.887,13.481-3.898-10.036
				c-82.545-59.566-206.841-29.417-254.92-23.359c-15.765,1.985-30.184,9.758-40.572,21.781
				C764.7,2213,674.294,2343.533,780.704,2475.065c13.617-7.559,32.967-19.68,46.109-33.708
				c-11.772-33.186-12.737-75.596,11.936-127.601c0.843,4.123,1.885,8.203,3.152,12.219
				c34.006,107.732,35.82,197.381,35.744,218.043c-0.011,2.806,1.674,5.332,4.279,6.376c44.755,17.934,130.906,7.26,159.826,2.951
				c5.302-0.791,8.87-5.727,8.137-11.038c-14.193-102.828,58.649-271.985,77.888-314.353
				C1129.159,2224.905,1131.072,2222.162,1133.387,2219.817z"/>
			
				<linearGradient id="SVGID_00000155106808663844517930000000196932921308352187_" gradientUnits="userSpaceOnUse" x1="-4608.5933" y1="2033.3785" x2="-4678.6538" y2="2336.1409" gradientTransform="matrix(1 0 0 1 5585.3584 0)">
				<stop  offset="0" style="stop-color:#FEBBBA"/>
				<stop  offset="1" style="stop-color:#FF928E"/>
			</linearGradient>
			<path style="fill:url(#SVGID_00000155106808663844517930000000196932921308352187_);" d="M923.826,2056.955l-8.626,88.125
				c0,0,49.575,14.932,85.633-10.51l-25.347-80.092L923.826,2056.955z"/>
			<g>
				
					<linearGradient id="SVGID_00000073704323141502531050000015214776268641091471_" gradientUnits="userSpaceOnUse" x1="-4570.7261" y1="-3898.4028" x2="-4695.0229" y2="-3733.9678" gradientTransform="matrix(0.6854 -0.7281 0.7281 0.6854 6936.3574 1318.7853)">
					<stop  offset="0" style="stop-color:#FEBBBA"/>
					<stop  offset="1" style="stop-color:#FF928E"/>
				</linearGradient>
				<path style="fill:url(#SVGID_00000073704323141502531050000015214776268641091471_);" d="M981.35,1956.513
					c1.193,1.123,50.356,97.668,50.356,97.668l-55.722,26.9l-60.191-84.582C915.792,1996.499,961.375,1937.709,981.35,1956.513z"/>
				
					<linearGradient id="SVGID_00000031188260172293600680000007801351155114622616_" gradientUnits="userSpaceOnUse" x1="-4665.6538" y1="-3858.9138" x2="-4517.1792" y2="-3858.9138" gradientTransform="matrix(0.6854 -0.7281 0.7281 0.6854 6936.3574 1318.7853)">
					<stop  offset="0" style="stop-color:#09005D"/>
					<stop  offset="1" style="stop-color:#1A0F91"/>
				</linearGradient>
				<path style="fill:url(#SVGID_00000031188260172293600680000007801351155114622616_);" d="M940.447,1998.841
					c-0.994,2.572-0.75,5.442,0.669,7.807l27.791,46.327c0.422,0.703,0.924,1.338,1.524,1.897
					c3.308,3.079,14.627,12.035,23.378-0.158c7.459-10.393,14.456-19.842,21.955-23.739c4.379-2.277,9.767-0.459,11.99,3.947
					c4.579,9.076,13.448,27.575,19.02,45.117c1.396,4.397-0.873,9.117-5.149,10.849c-11.282,4.571-33.583,12.838-53.371,15.569
					c-3.25,0.449-6.469-0.922-8.403-3.573c-8.514-11.663-32.509-44.257-40.699-52.416c-7.608-7.579-21.651-4.721-27.978-2.903
					c-2.402,0.69-4.96,0.358-7.1-0.932c-6.42-3.867-17.623-13.496-7.374-29.8c2.549-4.053,1.249-9.452-2.751-12.084
					c-7.168-4.715-14.945-13.565-7.535-27.897c7.502-14.509,20.897-15.812,30.021-14.697c4.037,0.494,8.135-1.624,9.684-5.384
					c0.688-1.673,2.051-3.098,4.586-3.613c4.782-0.971,7.921-5.343,6.982-10.131c-1.609-8.21-0.397-18.876,12.711-26.083
					c24.043-13.219,45.103,8.32,50.458,26.502c5.355,18.182-21.526,31.031-38.435,33.176
					C949.997,1978.199,943.187,1991.756,940.447,1998.841z"/>
				
					<linearGradient id="SVGID_00000147199092987080052160000000488112962806021029_" gradientUnits="userSpaceOnUse" x1="-4752.772" y1="-3768.1831" x2="-4653.0762" y2="-3870.4688" gradientTransform="matrix(0.6854 -0.7281 0.7281 0.6854 6936.3574 1318.7853)">
					<stop  offset="0" style="stop-color:#FEBBBA"/>
					<stop  offset="1" style="stop-color:#FF928E"/>
				</linearGradient>
				<path style="fill:url(#SVGID_00000147199092987080052160000000488112962806021029_);" d="M949.589,2067.482
					c0,0-10.691-31.281-24.376-30.133c-13.685,1.148-24.456,14.781-7.496,30.106
					C938.815,2086.518,949.589,2067.482,949.589,2067.482z"/>
			</g>
			
				<linearGradient id="SVGID_00000156546316687100897570000008801908610456473784_" gradientUnits="userSpaceOnUse" x1="1024.0552" y1="1916.2074" x2="852.3886" y2="2212.8738">
				<stop  offset="0" style="stop-color:#4F52FF"/>
				<stop  offset="1" style="stop-color:#4042E2"/>
			</linearGradient>
			<path style="fill:url(#SVGID_00000156546316687100897570000008801908610456473784_);" d="M834.237,2305.699
				c-18.038-49.366-11.495-108.976-11.426-109.572l4.97,0.568c-0.066,0.585-6.47,59.052,11.157,107.286L834.237,2305.699z"/>
			
				<linearGradient id="SVGID_00000150817470890598637260000012473065273111800235_" gradientUnits="userSpaceOnUse" x1="-4610.7754" y1="2586.4697" x2="-4659.9854" y2="2674.0471" gradientTransform="matrix(1 0 0 1 5585.3584 0)">
				<stop  offset="0" style="stop-color:#09005D"/>
				<stop  offset="1" style="stop-color:#1A0F91"/>
			</linearGradient>
			<path style="fill:url(#SVGID_00000150817470890598637260000012473065273111800235_);" d="M959.321,2682.297
				c-1.112,0-2.129-0.746-2.419-1.874c-5.504-21.224-46.711-44.549-47.126-44.782c-1.205-0.676-1.635-2.201-0.958-3.406
				c0.676-1.204,2.194-1.636,3.406-0.958c1.771,0.993,43.485,24.606,49.521,47.891c0.346,1.337-0.457,2.703-1.793,3.049
				C959.741,2682.272,959.529,2682.297,959.321,2682.297z"/>
			<g>
				
					<linearGradient id="SVGID_00000067945340757312935550000007459089292732204209_" gradientUnits="userSpaceOnUse" x1="-5194.7642" y1="2183.439" x2="-5295.6436" y2="3171.2112" gradientTransform="matrix(1 0 0 1 6353.127 0)">
					<stop  offset="0" style="stop-color:#4F52FF"/>
					<stop  offset="1" style="stop-color:#4042E2"/>
				</linearGradient>
				<path style="fill:url(#SVGID_00000067945340757312935550000007459089292732204209_);" d="M1300.941,2247.533
					c-93.359,14.008-154.208-44.899-199.55-80.633c-59.864-47.178-106.449-24.225-106.449-24.225l63.842,121.843
					c95.339,89.891,193.091,69.929,254.717,40.799C1314.448,2281.783,1308.16,2262.088,1300.941,2247.533z"/>
				
					<linearGradient id="SVGID_00000146463317643140267040000010373192587017317804_" gradientUnits="userSpaceOnUse" x1="-4826.1167" y1="2025.981" x2="-5254.8516" y2="2574.5093" gradientTransform="matrix(1 0 0 1 6353.127 0)">
					<stop  offset="0" style="stop-color:#FEBBBA"/>
					<stop  offset="1" style="stop-color:#FF928E"/>
				</linearGradient>
				<path style="fill:url(#SVGID_00000146463317643140267040000010373192587017317804_);" d="M1432.156,2191.835l-30.96,16.66
					c-37.13,22.606-70.356,34.551-100.255,39.038c7.219,14.555,13.507,34.25,12.559,57.784
					c39.23-18.543,63.824-40.799,63.824-40.799C1447.459,2222.697,1432.156,2191.835,1432.156,2191.835z"/>
			</g>
			
				<linearGradient id="SVGID_00000026146131616738067410000011172167011770184879_" gradientUnits="userSpaceOnUse" x1="-4768.7383" y1="2070.8267" x2="-5197.4741" y2="2619.3569" gradientTransform="matrix(1 0 0 1 6353.127 0)">
				<stop  offset="0" style="stop-color:#FEBBBA"/>
				<stop  offset="1" style="stop-color:#FF928E"/>
			</linearGradient>
			<path style="fill:url(#SVGID_00000026146131616738067410000011172167011770184879_);" d="M1523.363,2235.462
				c-1.999-6.644-6.911-12.02-13.349-14.609l-62.832-25.267c0,0-0.948-8.058,13.276-13.534
				c14.225-5.476,10.899-21.407,10.899-21.407s-19.432,8.865-47.882,22.925c-16.27,8.041-25.399,22.237-30.24,32.923l16.174,21.271
				c38.725,11.633,77.911,13.858,117.43,9.243L1523.363,2235.462z"/>
		</g>
		<g>
			<path style="fill:#91B3FA;" d="M1351.816,1692.724c95.842,20.989,195.305,91.655,196.461,198.104
				c0.983,90.52-97.933,130.042-158.787,147.447c-16.973,4.854-31.558,15.757-41.059,30.637
				c-22.734,35.607-73.409,96.601-141.206,69.1c-4.938-2.003-3.792-9.339,1.516-9.811c16.886-1.501,40.417-6.995,54.607-24.876
				c19.327-24.355,6.511-60.628-23.551-68.562c-56.892-15.016-166.616-61.729-170.916-199.119
				C1063.065,1649.834,1351.816,1692.724,1351.816,1692.724z"/>
			<path style="fill:#FFFFFF;" d="M1314.914,1846.272c0,0-12.427-60.768-72.273-42.738c-56.694,17.081-27.92,93.951,60.213,133.861
				c9.555,4.327,20.619,3.717,29.666-1.589c33.872-19.862,111.713-74.275,57.854-128.942
				C1355.592,1771.561,1314.914,1846.272,1314.914,1846.272z"/>
			<path style="fill:#FFFFFF;" d="M1503.405,1819.477c0.766-0.099,1.525-0.35,2.235-0.766c2.823-1.655,3.77-5.284,2.116-8.108
				c-44.367-75.702-130.331-100.846-194.636-108.61c-3.253-0.4-6.2,1.923-6.591,5.172c-0.393,3.248,1.923,6.2,5.172,6.591
				c61.642,7.443,143.92,31.325,185.832,102.839C1498.771,1818.709,1501.118,1819.772,1503.405,1819.477z"/>
			<path style="fill:#FFFFFF;" d="M1527.392,1899.497c2.87-0.37,5.111-2.801,5.158-5.78c0.008-0.488,0.149-12.156-3.75-29.661
				c-0.713-3.194-3.872-5.219-7.071-4.494c-3.194,0.711-5.205,3.877-4.494,7.071c3.598,16.15,3.469,26.786,3.468,26.891
				c-0.053,3.272,2.555,5.967,5.828,6.02C1526.823,1899.549,1527.111,1899.533,1527.392,1899.497z"/>
		</g>
		<g>
			
				<linearGradient id="SVGID_00000087404496254094037350000010540803667221982887_" gradientUnits="userSpaceOnUse" x1="2922.0879" y1="1912.5247" x2="2825.8147" y2="2207.6221">
				<stop  offset="0" style="stop-color:#FEBBBA"/>
				<stop  offset="1" style="stop-color:#FF928E"/>
			</linearGradient>
			<path style="fill:url(#SVGID_00000087404496254094037350000010540803667221982887_);" d="M2828.353,1934.347
				c0,0-133.934,171.479,18.875,345.887l57.449-5.353c0,0-110.589-177.57-61.332-319.117l81.378,5.941l45.001-29.332
				L2828.353,1934.347z"/>
			<g>
				
					<linearGradient id="SVGID_00000051341762455660122410000016704554707996240825_" gradientUnits="userSpaceOnUse" x1="2919.9404" y1="1415.1649" x2="2238.6494" y2="2805.4722">
					<stop  offset="0" style="stop-color:#4F52FF"/>
					<stop  offset="1" style="stop-color:#4042E2"/>
				</linearGradient>
				<path style="fill:url(#SVGID_00000051341762455660122410000016704554707996240825_);" d="M2433.347,1548.832l635.958-32.835
					c12.471-0.644,22.979,6.885,23.346,16.726l14.365,385.104c0.37,9.907-9.653,18.284-22.219,18.548
					c-115.141,2.419-626.335,13.233-648.844,14.981c-22.244,1.727-23.916-308.071-23.99-384.524
					C2411.953,1557.378,2421.381,1549.45,2433.347,1548.832z"/>
				<path style="fill:#91B3FA;" d="M2446.156,1937.399l-0.439-1.617c-9.583-35.206-15.89-180.164-16.071-369.291
					c0-2.216,1.961-4.05,4.465-4.18l635.957-32.833c1.531-0.053,2.605,0.463,3.234,0.926c1.029,0.742,1.632,1.822,1.676,3.035
					l14.362,385.101c0.092,2.272-1.914,4.216-4.468,4.326l-0.134,0.003c-91.604,1.926-552.817,11.662-636.909,14.475
					L2446.156,1937.399z M3070.358,1533.705c-0.027,0-0.056,0-0.083,0.003l-635.945,32.833c-0.317,0.015-0.487,0.142-0.513,0.175
					c0.24,185.772,6.31,328.798,15.566,366.339c88.424-2.884,544.205-12.508,635.251-14.418l0.077-0.003l-13.965-385.039
					C3070.741,1533.752,3070.611,1533.708,3070.358,1533.705z"/>
				<path style="fill:#BDD0FB;" d="M2849.053,1593.379c0.434,9.737,4.027,17.487,8.026,17.309l176.77-7.874
					c3.999-0.178,6.889-8.216,6.455-17.953c-0.434-9.737-4.027-17.487-8.026-17.308l-176.77,7.874
					C2851.509,1575.603,2848.619,1583.641,2849.053,1593.379z"/>
				<path style="fill:#BDD0FB;" d="M2849.82,1641.337c0.217,4.869,3.634,8.671,7.633,8.493l176.77-7.874
					c3.999-0.178,7.064-4.269,6.848-9.138s-3.634-8.671-7.633-8.493l-176.77,7.874
					C2852.669,1632.377,2849.603,1636.469,2849.82,1641.337z"/>
				<path style="fill:#BDD0FB;" d="M2849.82,1678.057c0.217,4.869,3.634,8.671,7.633,8.493l176.77-7.874
					c3.999-0.178,7.064-4.269,6.848-9.138c-0.217-4.869-3.634-8.671-7.633-8.493l-176.77,7.874
					C2852.669,1669.097,2849.603,1673.188,2849.82,1678.057z"/>
				
					<linearGradient id="SVGID_00000183966578712085496420000007071674983718280356_" gradientUnits="userSpaceOnUse" x1="2576.689" y1="1733.6606" x2="2826.4373" y2="1733.6606">
					<stop  offset="0" style="stop-color:#DAE3FE"/>
					<stop  offset="1" style="stop-color:#E9EFFD"/>
				</linearGradient>
				<path style="fill:url(#SVGID_00000183966578712085496420000007071674983718280356_);" d="M2607.635,1891.711
					c-3.931,0-6.429-0.006-7.114-0.009c-4.284-0.015-7.883-3.234-8.378-7.491l-15.397-132.7c-0.261-2.243,0.386-4.498,1.795-6.26
					c1.406-1.759,3.453-2.887,5.687-3.133c0.128-0.015,12.751-1.507,23.2-8.423c3.498-2.314,7.53-12.991,11.09-22.411
					c5.491-14.54,12.33-32.64,24.885-46.981c20.349-23.244,16.97-58.199,16.516-62.109c-0.997-8.577,5.631-21.182,15.991-25.208
					c6.331-2.462,19.008-3.735,32.824,15.388c17.255,23.888,9.722,56.051,4.738,77.334c-1.549,6.613-3.011,12.858-3.204,16.724
					c-0.021,0.454,0.027,0.647,0.027,0.647c3.447,2.596,23.612-0.528,35.666-2.397c6.292-0.976,12.724-1.97,18.937-2.691
					c21.912-2.54,47.667-1.593,52.488,28.54c1.994,12.451-3.314,21.755-8.681,27.715c9.671,8.283,14.679,17.326,14.917,26.979
					c0.217,8.743-3.655,15.949-7.61,20.993c8.458,7.886,12.048,18.581,9.743,30.095c-1.596,7.972-5.907,15.151-11.63,20.257
					c4.352,4.948,4.916,10.226,4.839,13.068c-0.409,14.706-18.15,29.391-42.184,34.922
					C2747.687,1891.257,2637.196,1891.711,2607.635,1891.711z M2594.469,1757.344l13.626,117.43
					c29.626-0.021,138.001-0.528,164.886-6.714c19.118-4.4,28.932-14.484,29.053-18.892c0.048-1.694-3.136-3.762-7.918-5.147
					c-3.913-1.13-6.464-4.886-6.076-8.942c0.389-4.053,3.611-7.257,7.666-7.622c5.821-0.528,11.977-7.153,13.442-14.469
					c1.059-5.293,0.166-12.742-10.119-18.168c-2.596-1.371-4.299-3.987-4.495-6.915c-0.198-2.928,1.133-5.753,3.522-7.458
					c0.047-0.038,8.885-6.758,8.636-14.872c-0.246-7.877-8.915-15.071-16.145-19.717c-2.486-1.599-3.961-4.379-3.886-7.334
					s1.682-5.658,4.245-7.129c0.421-0.252,11.547-7.01,9.758-18.186c-1.35-8.428-2.89-17.99-33.815-14.395
					c-6.002,0.697-12.214,1.661-18.296,2.605c-22.61,3.498-40.469,6.278-49.871-2.195c-2.623-2.359-5.672-6.643-5.325-13.629
					c0.267-5.394,1.825-12.045,3.628-19.744c4.539-19.385,10.754-45.931-1.979-63.56c-4.943-6.838-9.814-10.538-12.739-9.597
					c-3.071,0.964-5.486,5.99-5.515,7.743c0.528,4.486,4.545,46.29-20.61,75.023c-10.538,12.036-16.513,27.855-21.785,41.813
					c-5.319,14.083-9.523,25.211-17.584,30.546C2608.976,1752.977,2600.533,1755.822,2594.469,1757.344z"/>
			</g>
			
				<linearGradient id="SVGID_00000044864026956725219410000016177531748480111029_" gradientUnits="userSpaceOnUse" x1="2901.7068" y1="2961.1658" x2="3104.5598" y2="2961.1658">
				<stop  offset="0" style="stop-color:#FEBBBA"/>
				<stop  offset="1" style="stop-color:#FF928E"/>
			</linearGradient>
			<path style="fill:url(#SVGID_00000044864026956725219410000016177531748480111029_);" d="M2901.707,2773.902
				c0,0,108.515,236.51,165.448,334.472c0,0,11.308,61.64,0,81.023l-9.637,4.283l44.975-1.338c0,0,3.995-82.912,0.875-87.543
				c-3.12-4.631-9.361-4.328-9.361-4.328s-19.285-152.786-75.135-185.394l-54.126-186.425L2901.707,2773.902z"/>
			
				<linearGradient id="SVGID_00000114753615248446773680000014312882499675276945_" gradientUnits="userSpaceOnUse" x1="3180.5339" y1="2507.5242" x2="3080.0747" y2="3160.5051">
				<stop  offset="0" style="stop-color:#09005D"/>
				<stop  offset="1" style="stop-color:#1A0F91"/>
			</linearGradient>
			<path style="fill:url(#SVGID_00000114753615248446773680000014312882499675276945_);" d="M3038.31,3205.292
				c-0.067,1.084,35.12,0.589,54.233,0.24c7.058-0.129,13.074-5.089,14.579-11.986l14.434-75.834
				c1.372-7.207-3.205-14.207-10.356-15.842l-8.057-1.842c0,0-11.494,15.767-7.876,30.611c3.618,14.844,6.838,53.297-2.305,57.777
				c-9.143,4.481-35.444,5.263-35.444,5.263S3038.911,3195.525,3038.31,3205.292z"/>
			
				<linearGradient id="SVGID_00000010311658840810889210000014537761029488049057_" gradientUnits="userSpaceOnUse" x1="2967.9731" y1="2474.824" x2="2867.5137" y2="3127.8066">
				<stop  offset="0" style="stop-color:#09005D"/>
				<stop  offset="1" style="stop-color:#1A0F91"/>
			</linearGradient>
			<path style="fill:url(#SVGID_00000010311658840810889210000014537761029488049057_);" d="M2798.854,3206.668
				c-3.559,2.028-2.091,7.461,2.005,7.42c31.986-0.322,103.661-1.333,110.03-3.982c8.223-3.419-2.997-32.967-14.804-42.967
				l-65.196,21.278L2798.854,3206.668z"/>
			
				<linearGradient id="SVGID_00000016039919345889613690000003923226629299113632_" gradientUnits="userSpaceOnUse" x1="2778.6167" y1="2976.2493" x2="2896.0847" y2="2976.2493">
				<stop  offset="0" style="stop-color:#FEBBBA"/>
				<stop  offset="1" style="stop-color:#FF928E"/>
			</linearGradient>
			<path style="fill:url(#SVGID_00000016039919345889613690000003923226629299113632_);" d="M2778.617,2758.819
				c0,0,70.125,339.238,89.962,405.413l-46.928,29.448c0,0,23.517-4,40.956-5.263c17.438-1.264,33.479-21.278,33.479-21.278
				l-5.622-8.967c0,0-17.585-337.391-13.304-375.702L2778.617,2758.819z"/>
			
				<linearGradient id="SVGID_00000124148699632205749070000013424829951675032477_" gradientUnits="userSpaceOnUse" x1="2525.5691" y1="2094.9275" x2="2755.5342" y2="2094.9275">
				<stop  offset="0" style="stop-color:#FEBBBA"/>
				<stop  offset="1" style="stop-color:#FF928E"/>
			</linearGradient>
			<path style="fill:url(#SVGID_00000124148699632205749070000013424829951675032477_);" d="M2604.543,1967.544
				c0,0-9.672,176.469,150.991,266.644l-38.681,88.219c0,0-145.46-87.981-140.081-327.942c0.154-6.886-2.33-13.574-6.827-18.791
				l-30.915-35.865c-11.779-13.664-16.18-32.201-11.802-49.702l4.069-16.266c1.362-5.446,7.565-8.066,12.419-5.247l3.233,1.878
				c10.292,5.978,18.444,15.039,23.304,25.904l15.18,33.933c5.67,12.675,18.744,20.371,32.578,19.177l9.386-0.81L2604.543,1967.544z
				"/>
			
				<linearGradient id="SVGID_00000095326552893674031450000001039176840635452846_" gradientUnits="userSpaceOnUse" x1="2504.5042" y1="2600.1431" x2="2884.5007" y2="2298.2764">
				<stop  offset="0" style="stop-color:#4F52FF"/>
				<stop  offset="1" style="stop-color:#4042E2"/>
			</linearGradient>
			<path style="fill:url(#SVGID_00000095326552893674031450000001039176840635452846_);" d="M2749.942,2220.964
				c26.879,7.454,117.94,31.408,174.789,30.43l-34.904,196.966l2.778,32.126l-113.801-0.51c0,0-32.036-74.4-57.311-111.492
				c-7.3-10.713-1.867-23.491,2.271-35.777l-5.685-3.785c-5.785-3.851-8.293-11.086-6.134-17.691l27.712-84.788
				C2741.096,2222.17,2745.597,2219.759,2749.942,2220.964z"/>
			
				<linearGradient id="SVGID_00000178199144937934331860000009334125402997973920_" gradientUnits="userSpaceOnUse" x1="2674.9038" y1="2445.5776" x2="3051.624" y2="2870.4343">
				<stop  offset="0" style="stop-color:#09005D"/>
				<stop  offset="1" style="stop-color:#1A0F91"/>
			</linearGradient>
			<path style="fill:url(#SVGID_00000178199144937934331860000009334125402997973920_);" d="M2769.685,2463.165l2.239,19.463
				c0,0-32.159,96.311,16.081,321.258c0,0,104.477,29.598,190.345-41.227c0,0-24.223-212.316-30.839-222.205
				c-32.954-49.26-54.907-59.968-54.907-59.968l-0.99-21.263C2891.615,2459.223,2799.772,2475.828,2769.685,2463.165z"/>
			
				<linearGradient id="SVGID_00000039105443702433230370000007597541775415971757_" gradientUnits="userSpaceOnUse" x1="2814.2278" y1="2207.8296" x2="2886.1118" y2="2207.8296">
				<stop  offset="0" style="stop-color:#FEBBBA"/>
				<stop  offset="1" style="stop-color:#FF928E"/>
			</linearGradient>
			<path style="fill:url(#SVGID_00000039105443702433230370000007597541775415971757_);" d="M2814.233,2236.839
				c-0.399-0.527,23.758-72.935,23.758-72.935l34.604,3.139l13.518,82.143C2886.112,2249.186,2831.881,2260.132,2814.233,2236.839z"
				/>
			
				<linearGradient id="SVGID_00000041991011816992398430000004170250958418303141_" gradientUnits="userSpaceOnUse" x1="2928.4739" y1="2114.9346" x2="3451.6968" y2="2150.5137">
				<stop  offset="0" style="stop-color:#FEBBBA"/>
				<stop  offset="1" style="stop-color:#FF928E"/>
			</linearGradient>
			<path style="fill:url(#SVGID_00000041991011816992398430000004170250958418303141_);" d="M2864.31,2049.716
				c-2.307,1.437-73.943,31.042-58.552,105.412c0.909,4.395,3.842,8.12,7.941,9.948c10.512,4.689,33.143,12.718,60.211,9.967
				c37.527-3.814,62.118-69.299,61.072-88.355S2887.178,2035.476,2864.31,2049.716z"/>
			
				<linearGradient id="SVGID_00000125564450732374449970000000198643309747003048_" gradientUnits="userSpaceOnUse" x1="3014.4734" y1="2083.3955" x2="2830.2993" y2="2451.7427">
				<stop  offset="0" style="stop-color:#09005D"/>
				<stop  offset="1" style="stop-color:#1A0F91"/>
			</linearGradient>
			<path style="fill:url(#SVGID_00000125564450732374449970000000198643309747003048_);" d="M2886.112,2020.803
				c-1.884,0.247-41.397,14.009-21.802,42.642c19.595,28.633,26.946,45.488,17.678,58.062c-8.444,11.455-27.149,4.926-25.517,28.758
				c0.327,4.77-1.736,9.402-5.696,12.082c-17.626,11.932-60.631,48.656-18.024,101.031c3.463,4.257,4.177,10.134,1.505,14.927
				c-12.479,22.383-38.691,87.953,56.208,124.326c93.775,35.942,127.633-25.357,137.093-49.859
				c2.046-5.299,7.264-8.543,12.938-8.276c10.304,0.487,24.906-1.228,24.235-14.998c-0.408-8.364-5.626-15.86-11.794-21.869
				c-6.104-5.948-4.898-16.362,2.512-20.572c5.597-3.18,10.552-8.146,12.642-15.893c5.683-21.059-5.663-84.026-66.018-94.697
				c-5.034-0.89-10.306-5.61-11.04-10.67c-0.011-0.075-0.022-0.15-0.035-0.226c-0.809-4.894,0.846-9.897,4.846-12.831
				c9.637-7.07,21.996-21.303,11.958-44.128c-8.903-20.244-25.979-27.073-38.662-29.249c-7.447-1.278-12.343-8.321-10.773-15.711
				C2962.642,2043.513,2958.914,2011.258,2886.112,2020.803z"/>
		</g>
	</g>
</g>
</svg>
