<?xml version="1.0" encoding="utf-8"?>
<!-- Generator: Adobe Illustrator 27.5.0, SVG Export Plug-In . SVG Version: 6.00 Build 0)  -->
<svg version="1.1" xmlns="http://www.w3.org/2000/svg" xmlns:xlink="http://www.w3.org/1999/xlink" x="0px" y="0px"
	 viewBox="0 0 500 500" style="enable-background:new 0 0 500 500;" xml:space="preserve">
<g id="BACKGROUND">
	<rect style="fill:#FFFFFF;" width="500" height="500"/>
</g>
<g id="OBJECTS">
	<g>
		
			<line style="fill:none;stroke:#000000;stroke-linecap:round;stroke-miterlimit:10;" x1="80.675" y1="423.951" x2="146.602" y2="423.951"/>
		<g>
			<path style="fill:#F2D5D5;" d="M118.558,308.831c-0.158-0.002-0.316-0.004-0.475-0.006c-16.191-0.23-31.177-3.422-44.059-13.907
				c-17.139-13.949-25.816-38.161-25.915-59.845c-0.164-35.861,15.584-71.671,45.874-90.172
				c19.42-11.863,44.838-14.985,66.623-21.205c19.498-5.567,40.401-8.086,59.005-16.368c21.543-9.591,37.312-27.491,57.48-39.22
				c31.026-18.044,69.02-26.309,104.23-17.107c36.397,9.512,60.533,38.583,69.138,74.248c4.746,19.671,6.822,42.585,5.459,62.779
				c-4.66,69.024-81.117,100.803-142.296,102.383c-11.165,0.288-22.381-0.137-33.511-1.018c-6.172-0.488-12.557-0.618-18.357,1.549
				c-12.93,4.832-12.674,17.722-13.255,29.385c-14.219-17.113-24.087-13.599-39.821-14.66
				C178.548,303.633,148.64,309.184,118.558,308.831z"/>
			<g>
				<g>
					<g>
						<path style="fill:#EED43B;" d="M321.726,186.083c0.292-0.73-52.458-43.666-52.458-43.666l-9.849,21.778L321.726,186.083z"/>
						<polygon style="fill:#61BA89;" points="185.985,139.243 220.787,164.195 237.385,157.191 						"/>
						<polygon style="fill:#61BA89;" points="259.419,164.195 269.268,142.417 237.385,157.191 						"/>
						<path style="fill:#EED43B;" d="M218.785,101.131c-7.259,3.615-14.372,7.514-21.419,11.525
							c-2.655,1.511-5.287,3.071-7.927,4.613l-1.644,7.978c0.999-0.676,1.998-1.353,2.998-2.028
							c5.89-3.976,11.808-7.916,17.855-11.651c4.658-2.877,9.398-5.626,14.245-8.172l-3.215-2.705
							C219.38,100.838,219.082,100.983,218.785,101.131z"/>
						<path style="fill:#EED43B;" d="M196.44,92.086c1.674-0.904,3.342-1.818,5.025-2.704c0.984-0.518,1.977-1.02,2.976-1.51
							l-7.621-6.412l-2.405,11.671C195.092,92.789,195.77,92.447,196.44,92.086z"/>
						<path style="fill:#EED43B;" d="M200.35,90.854c-1.662,0.892-3.315,1.801-4.98,2.687c-0.384,0.204-0.772,0.4-1.162,0.593
							l-1.368,6.637c0.479-0.277,0.956-0.559,1.436-0.834c4.908-2.806,9.881-5.499,14.918-8.067l-4.108-3.456
							C203.489,89.192,201.914,90.015,200.35,90.854z"/>
						<path style="fill:#EED43B;" d="M192.631,101.783l-1.324,6.424c4.192-2.611,8.433-5.145,12.744-7.557
							c3.145-1.76,6.326-3.456,9.544-5.076l-3.757-3.161C204.016,95.374,198.281,98.506,192.631,101.783z"/>
						<path style="fill:#EED43B;" d="M202.111,102.641c-3.72,2.129-7.388,4.348-11.022,6.621l-1.429,6.935
							c3.277-1.903,6.56-3.794,9.861-5.655c6.421-3.619,12.912-7.117,19.518-10.387l-4.788-4.029
							C210.146,98.186,206.098,100.36,202.111,102.641z"/>
						<path style="fill:#EED43B;" d="M200.355,118.952c4.943-3.377,9.95-6.663,15.085-9.742c2.821-1.692,5.686-3.311,8.591-4.856
							l-0.487-0.41c-5.773,3.02-11.393,6.324-16.906,9.794c-5.995,3.774-11.874,7.728-17.739,11.699
							c-0.442,0.299-0.885,0.599-1.327,0.899l-0.376,1.824C191.565,125.066,195.934,121.972,200.355,118.952z"/>
						<path style="fill:#EED43B;" d="M213.874,111.068c-5.084,3.119-10.05,6.427-14.96,9.813c-4.006,2.762-7.976,5.576-11.949,8.387
							l-0.631,3.062c2.113-1.348,4.23-2.69,6.348-4.031c6.402-4.053,12.885-7.98,19.483-11.708c5.324-3.007,10.726-5.877,16.21-8.58
							l-3.707-3.119C221.005,106.832,217.408,108.9,213.874,111.068z"/>
						<path style="fill:#EED43B;" d="M186.446,137.267c6.256-3.54,12.549-7.014,18.768-10.62c2.884-1.672,5.687-3.445,8.43-5.34
							c2.816-1.946,5.584-3.959,8.389-5.92c2.768-1.936,5.587-3.841,8.51-5.554l-1.519-1.278c-6.565,3.229-13.009,6.7-19.347,10.353
							c-6.586,3.796-13.061,7.782-19.46,11.885c-1.362,0.873-2.732,1.735-4.099,2.599l-0.949,4.605
							C185.594,137.754,186.019,137.509,186.446,137.267z"/>
						<path style="fill:#EED43B;" d="M220.174,117.644c-2.747,1.949-5.48,3.921-8.281,5.792c-2.797,1.868-5.698,3.552-8.615,5.225
							c-6.005,3.444-12.065,6.792-18.083,10.213l4.399,1.544c3.916-2.359,7.838-4.705,11.721-7.118
							c6.446-4.006,12.833-8.106,19.284-12.105c4.525-2.804,9.085-5.554,13.71-8.192l-3.135-2.638
							C227.372,112.573,223.75,115.107,220.174,117.644z"/>
						<path style="fill:#EED43B;" d="M218.299,123.542c-6.414,4.009-12.781,8.094-19.224,12.056
							c-2.836,1.744-5.707,3.429-8.562,5.142l5.059,1.775c3.441-1.888,6.863-3.809,10.236-5.814
							c6.824-4.056,13.566-8.247,20.327-12.407c4.166-2.564,8.344-5.11,12.548-7.612l-3.735-3.143
							C229.32,116.742,223.789,120.11,218.299,123.542z"/>
						<path style="fill:#EED43B;" d="M224.01,126.516c-6.748,4.159-13.469,8.38-20.34,12.336c-2.363,1.36-4.745,2.686-7.133,4.002
							l1.148,0.403c3.959-1.788,7.927-3.557,11.846-5.432c6.727-3.218,13.275-6.821,19.839-10.356
							c4.508-2.428,9.019-4.851,13.563-7.211l-3.626-3.051C234.177,120.258,229.091,123.384,224.01,126.516z"/>
						<path style="fill:#EED43B;" d="M217.177,137.956c5.79-3.188,11.421-6.638,17.163-9.91c3.599-2.05,7.27-4.026,11.066-5.707
							l-1.83-1.539c-5.512,2.857-10.972,5.813-16.44,8.753c-6.498,3.494-13.002,6.996-19.692,10.112
							c-2.891,1.346-5.801,2.65-8.708,3.962l5.095,1.788C208.275,142.917,212.713,140.414,217.177,137.956z"/>
						<path style="fill:#EED43B;" d="M232.264,130.142c-2.864,1.67-5.703,3.381-8.568,5.05c-2.861,1.666-5.775,3.234-8.668,4.841
							c-3.413,1.895-6.815,3.811-10.217,5.725l2.009,0.705c3.054-1.23,6.106-2.463,9.13-3.766
							c5.821-2.508,11.438-5.456,17.083-8.333c5.521-2.814,11.024-5.664,16.51-8.546l-3.471-2.92
							C241.306,124.976,236.745,127.528,232.264,130.142z"/>
						<path style="fill:#EED43B;" d="M248.99,126.99c-5.907,3.098-11.835,6.154-17.782,9.174c-2.953,1.499-5.911,2.99-8.873,4.472
							c-2.596,1.299-5.277,2.441-7.952,3.566c-2.146,0.903-4.304,1.776-6.464,2.647l9.506,3.336c1.773-0.896,3.542-1.802,5.3-2.726
							c5.737-3.014,11.401-6.165,17.03-9.375c4.831-2.754,9.636-5.552,14.444-8.347l-4.015-3.378
							C249.785,126.568,249.388,126.781,248.99,126.99z"/>
						<path style="fill:#EED43B;" d="M254.718,130.335c-5.591,3.251-11.181,6.507-16.809,9.693
							c-5.638,3.191-11.315,6.314-17.07,9.291c-0.798,0.413-1.601,0.815-2.402,1.222l4.811,1.689
							c1.085-0.601,2.17-1.203,3.256-1.802c5.233-2.888,10.491-5.726,15.698-8.662c5.248-2.96,10.481-5.95,15.753-8.867
							l-3.124-2.628C254.793,130.291,254.755,130.313,254.718,130.335z"/>
						<path style="fill:#EED43B;" d="M237.061,148.056c8.23-3.854,16.409-7.838,24.359-12.243l-2.826-2.378
							c-0.66,0.365-1.322,0.726-1.981,1.094c-5.341,2.975-10.646,6.013-15.976,9.007c-5.222,2.934-10.5,5.764-15.739,8.667
							c-0.223,0.123-0.446,0.247-0.669,0.371l1.758,0.617C229.682,151.484,233.377,149.782,237.061,148.056z"/>
						<path style="fill:#EED43B;" d="M249.979,142.696c-7.572,3.779-15.26,7.315-22.943,10.862l3.018,1.059
							c0.958-0.479,1.924-0.919,2.866-1.338c3.628-1.613,7.396-2.887,11.02-4.504c2.13-0.95,4.203-2.037,6.316-3.026
							c2.277-1.067,4.565-2.111,6.849-3.163c2.643-1.217,5.299-2.446,7.933-3.728l-2.979-2.507
							C258.084,138.561,254.049,140.665,249.979,142.696z"/>
						<path style="fill:#EED43B;" d="M256.298,143.81c-2.325,1.069-4.652,2.135-6.965,3.231c-1.931,0.915-3.826,1.914-5.792,2.752
							c-3.678,1.567-7.46,2.876-11.093,4.55c-0.447,0.206-0.9,0.419-1.356,0.638l6.294,2.209l31.883-14.774l-3.596-3.026
							C262.572,140.914,259.436,142.367,256.298,143.81z"/>
						<polygon style="fill:#E36D78;" points="175.37,184.77 322.456,186.083 237.385,157.191 						"/>
						<polygon style="fill:none;stroke:#000000;stroke-linecap:round;stroke-linejoin:round;stroke-miterlimit:10;" points="
							196.82,81.459 322.456,186.083 175.37,184.77 						"/>
						<polyline style="fill:none;stroke:#000000;stroke-linecap:round;stroke-linejoin:round;stroke-miterlimit:10;" points="
							322.456,186.083 185,138.805 250.226,185.207 269.268,142.417 175.37,184.77 						"/>
					</g>
					<path style="fill:none;stroke:#000000;stroke-linecap:round;stroke-linejoin:round;stroke-miterlimit:10;" d="M315.828,180.2
						c-1.984,1.23-3.136,3.68-2.819,5.993"/>
					<path style="fill:none;stroke:#000000;stroke-linecap:round;stroke-linejoin:round;stroke-miterlimit:10;" d="M314.215,179.408
						c-1.117,0.675-1.943,1.813-2.239,3.084"/>
					<path style="fill:none;stroke:#000000;stroke-linecap:round;stroke-linejoin:round;stroke-miterlimit:10;" d="M195.014,89.397
						c2.742,1.341,6.362,0.535,8.276-1.842"/>
					<path style="fill:none;stroke:#000000;stroke-linecap:round;stroke-linejoin:round;stroke-miterlimit:10;" d="M177.531,175.453
						c3.645,1.34,6.296,5.031,6.403,8.913c0.002,0.089,0.007,0.185,0.065,0.252c0.059,0.067,0.192,0.066,0.217-0.019
						c0.025-0.085-0.154-0.121-0.142-0.033"/>
					<path style="fill:none;stroke:#000000;stroke-linecap:round;stroke-linejoin:round;stroke-miterlimit:10;" d="M177.959,171.228
						c-0.176,0.213,0.156,0.473,0.421,0.554c3.806,1.173,7.351,3.794,8.734,7.53"/>
					<path style="fill:none;stroke:#000000;stroke-linecap:round;stroke-linejoin:round;stroke-miterlimit:10;" d="M241.162,185.33
						c2.027-2.868,5.51-4.647,9.022-4.607c3.512,0.039,6.954,1.895,8.917,4.808"/>
					<path style="fill:none;stroke:#000000;stroke-linecap:round;stroke-linejoin:round;stroke-miterlimit:10;" d="M252.98,178.584
						c2.627,0.043,5,1.536,7.061,3.165c1.267,1.001,2.547,2.187,2.882,3.766"/>
					
						<line style="fill:none;stroke:#000000;stroke-linecap:round;stroke-linejoin:round;stroke-miterlimit:10;" x1="240.543" y1="157.834" x2="268.094" y2="145.512"/>
					
						<line style="fill:none;stroke:#000000;stroke-linecap:round;stroke-linejoin:round;stroke-miterlimit:10;" x1="266.001" y1="149.464" x2="244.495" y2="159.229"/>
					
						<line style="fill:none;stroke:#000000;stroke-linecap:round;stroke-linejoin:round;stroke-miterlimit:10;" x1="248.448" y1="160.741" x2="264.141" y2="153.766"/>
					
						<line style="fill:none;stroke:#000000;stroke-linecap:round;stroke-linejoin:round;stroke-miterlimit:10;" x1="262.398" y1="157.369" x2="252.516" y2="161.903"/>
					
						<line style="fill:none;stroke:#000000;stroke-linecap:round;stroke-linejoin:round;stroke-miterlimit:10;" x1="256.12" y1="163.182" x2="261.119" y2="160.857"/>
				</g>
				
					<text transform="matrix(1 0 0 1 192.1829 75.88)" style="font-family:'Roboto-Regular'; font-size:12.3862px; letter-spacing:2;">A</text>
				
					<text transform="matrix(1 0 0 1 163.3533 191.6632)" style="font-family:'Roboto-Regular'; font-size:12.3862px; letter-spacing:2;">B</text>
				
					<text transform="matrix(1 0 0 1 326.1023 192.5919)" style="font-family:'Roboto-Regular'; font-size:12.3862px; letter-spacing:2;">C</text>
				
					<text transform="matrix(1 0 0 1 234.033 153.5343)" style="font-family:'Roboto-Regular'; font-size:12.3862px; letter-spacing:2;">D</text>
				
					<text transform="matrix(1 0 0 1 246.5877 195.3839)" style="font-family:'Roboto-Regular'; font-size:12.3862px; letter-spacing:2;">a</text>
				
					<text transform="matrix(1 0 0 1 174.0481 140.048)" style="font-family:'Roboto-Regular'; font-size:12.3862px; letter-spacing:2;">b</text>
				
					<text transform="matrix(1 0 0 1 275.1048 140.9796)" style="font-family:'Roboto-Regular'; font-size:12.3862px; letter-spacing:2;">c</text>
			</g>
			<g>
				<rect x="293.516" y="88.37" style="fill:#FFFFFF;" width="30.424" height="30.424"/>
				
					<rect x="286.851" y="68.879" style="fill:none;stroke:#000000;stroke-width:0.5;stroke-linecap:round;stroke-linejoin:round;stroke-miterlimit:10;stroke-dasharray:4;" width="19.686" height="45.338"/>
				
					<rect x="278.499" y="84.39" style="fill:none;stroke:#000000;stroke-width:0.5;stroke-linecap:round;stroke-linejoin:round;stroke-miterlimit:10;stroke-dasharray:4;" width="57.866" height="20.283"/>
				
					<rect x="296.694" y="91.548" style="fill:none;stroke:#000000;stroke-width:0.5;stroke-linecap:round;stroke-linejoin:round;stroke-miterlimit:10;stroke-dasharray:4;" width="30.424" height="30.424"/>
			</g>
			<g>
				<g>
					<polygon style="fill:#E36D78;" points="165.564,266.771 67.476,266.771 90.96,222.065 189.048,222.065 					"/>
					<polygon style="fill:none;stroke:#000000;stroke-linecap:round;stroke-linejoin:round;stroke-miterlimit:10;" points="
						165.564,266.771 67.476,266.771 51.692,222.058 149.78,222.058 					"/>
					<g>
						<defs>
							<polygon id="SVGID_1_" points="165.564,266.771 67.476,266.771 90.96,222.065 189.048,222.065 							"/>
						</defs>
						<clipPath id="SVGID_00000042701094704308314230000006102825838418756251_">
							<use xlink:href="#SVGID_1_"  style="overflow:visible;"/>
						</clipPath>
						<g style="clip-path:url(#SVGID_00000042701094704308314230000006102825838418756251_);">
							<path style="fill:none;stroke:#000000;stroke-linecap:round;stroke-linejoin:round;stroke-miterlimit:10;" d="
								M103.336,214.036c-1.055,1.582-32.169,60.118-32.169,60.118"/>
							<path style="fill:none;stroke:#000000;stroke-linecap:round;stroke-linejoin:round;stroke-miterlimit:10;" d="
								M110.192,214.036c-1.055,1.582-32.169,60.118-32.169,60.118"/>
							<path style="fill:none;stroke:#000000;stroke-linecap:round;stroke-linejoin:round;stroke-miterlimit:10;" d="
								M117.048,214.036c-1.055,1.582-32.169,60.118-32.169,60.118"/>
							<path style="fill:none;stroke:#000000;stroke-linecap:round;stroke-linejoin:round;stroke-miterlimit:10;" d="
								M123.903,214.036c-1.055,1.582-32.169,60.118-32.169,60.118"/>
							<path style="fill:none;stroke:#000000;stroke-linecap:round;stroke-linejoin:round;stroke-miterlimit:10;" d="
								M130.759,214.036c-1.055,1.582-32.169,60.118-32.169,60.118"/>
							<path style="fill:none;stroke:#000000;stroke-linecap:round;stroke-linejoin:round;stroke-miterlimit:10;" d="
								M137.614,214.036c-1.055,1.582-32.169,60.118-32.169,60.118"/>
							<path style="fill:none;stroke:#000000;stroke-linecap:round;stroke-linejoin:round;stroke-miterlimit:10;" d="
								M144.47,214.036c-1.055,1.582-32.169,60.118-32.169,60.118"/>
							<path style="fill:none;stroke:#000000;stroke-linecap:round;stroke-linejoin:round;stroke-miterlimit:10;" d="
								M151.325,214.036c-1.055,1.582-32.168,60.118-32.168,60.118"/>
							
								<line style="fill:none;stroke:#000000;stroke-linecap:round;stroke-linejoin:round;stroke-miterlimit:10;" x1="151.589" y1="226.956" x2="126.012" y2="274.154"/>
							
								<line style="fill:none;stroke:#000000;stroke-linecap:round;stroke-linejoin:round;stroke-miterlimit:10;" x1="154.49" y1="234.866" x2="132.868" y2="274.154"/>
							
								<line style="fill:none;stroke:#000000;stroke-linecap:round;stroke-linejoin:round;stroke-miterlimit:10;" x1="156.995" y1="242.513" x2="139.724" y2="274.154"/>
							
								<line style="fill:none;stroke:#000000;stroke-linecap:round;stroke-linejoin:round;stroke-miterlimit:10;" x1="159.763" y1="249.896" x2="146.579" y2="274.154"/>
							
								<line style="fill:none;stroke:#000000;stroke-linecap:round;stroke-linejoin:round;stroke-miterlimit:10;" x1="162.664" y1="258.333" x2="153.435" y2="274.154"/>
						</g>
					</g>
					<g>
						<g>
							
								<line style="fill:none;stroke:#000000;stroke-width:0.5;stroke-linecap:round;stroke-linejoin:round;" x1="142.624" y1="217.2" x2="142.805" y2="215.208"/>
							<polyline style="fill:none;stroke:#000000;stroke-width:0.5;stroke-linecap:round;stroke-linejoin:round;" points="
								143.234,210.49 143.415,208.498 145.415,208.498 							"/>
							
								<line style="fill:none;stroke:#000000;stroke-width:0.5;stroke-linecap:round;stroke-linejoin:round;stroke-dasharray:4.0777,4.0777;" x1="149.493" y1="208.498" x2="220.852" y2="208.498"/>
							<polyline style="fill:none;stroke:#000000;stroke-width:0.5;stroke-linecap:round;stroke-linejoin:round;" points="
								222.891,208.498 224.891,208.498 224.891,210.498 							"/>
							
								<line style="fill:none;stroke:#000000;stroke-width:0.5;stroke-linecap:round;stroke-linejoin:round;stroke-dasharray:4.2559,4.2559;" x1="224.891" y1="214.754" x2="224.891" y2="263.698"/>
							<polyline style="fill:none;stroke:#000000;stroke-width:0.5;stroke-linecap:round;stroke-linejoin:round;" points="
								224.891,265.826 224.891,267.826 222.891,267.826 							"/>
							
								<line style="fill:none;stroke:#000000;stroke-width:0.5;stroke-linecap:round;stroke-linejoin:round;stroke-dasharray:3.8073,3.8073;" x1="219.084" y1="267.826" x2="182.915" y2="267.826"/>
							
								<line style="fill:none;stroke:#000000;stroke-width:0.5;stroke-linecap:round;stroke-linejoin:round;" x1="181.012" y1="267.826" x2="179.012" y2="267.826"/>
						</g>
					</g>
				</g>
				
					<text transform="matrix(1 0 0 1 58.2205 278.2384)" style="font-family:'Roboto-Regular'; font-size:12.3862px; letter-spacing:2;">B</text>
				
					<text transform="matrix(1 0 0 1 165.2566 278.2374)" style="font-family:'Roboto-Regular'; font-size:12.3862px; letter-spacing:2;">D</text>
				
					<text transform="matrix(1 0 0 1 41.6707 219.172)" style="font-family:'Roboto-Regular'; font-size:12.3862px; letter-spacing:2;">A</text>
				
					<text transform="matrix(1 0 0 1 145.3924 219.172)" style="font-family:'Roboto-Regular'; font-size:12.3862px; letter-spacing:2;">C</text>
			</g>
			
				<text transform="matrix(1 0 0 1 312.6175 117.0597)" style="font-family:'Roboto-Regular'; font-size:12.3862px; letter-spacing:2;">D</text>
			<g>
				<g>
					<polygon style="fill:#EED43B;stroke:#222221;stroke-miterlimit:10;" points="333.157,234.32 374.851,135.772 420.335,234.32 
											"/>
					<ellipse style="fill:#E36D78;" cx="376.762" cy="234.832" rx="43.605" ry="13.777"/>
					
						<ellipse style="fill:none;stroke:#000000;stroke-linecap:round;stroke-linejoin:round;stroke-miterlimit:10;" cx="376.762" cy="234.832" rx="43.605" ry="13.777"/>
					
						<line style="fill:none;stroke:#000000;stroke-linecap:round;stroke-linejoin:round;stroke-miterlimit:10;" x1="333.157" y1="234.832" x2="420.366" y2="234.832"/>
					
						<path style="fill:none;stroke:#000000;stroke-linecap:round;stroke-linejoin:round;stroke-miterlimit:10;stroke-dasharray:4;" d="
						M374.851,135.772l-17.625,98.549c3.411-0.569,49.464-30.702,49.464-30.702"/>
					<g>
						<defs>
							<path id="SVGID_00000160911054179743557600000009429875875480592560_" d="M374.851,135.772l-17.625,98.549
								c3.411-0.569,49.464-30.702,49.464-30.702"/>
						</defs>
						<clipPath id="SVGID_00000129178073333503812960000008025741730340987785_">
							<use xlink:href="#SVGID_00000160911054179743557600000009429875875480592560_"  style="overflow:visible;"/>
						</clipPath>
						<g style="clip-path:url(#SVGID_00000129178073333503812960000008025741730340987785_);">
							
								<path style="fill:none;stroke:#000000;stroke-width:0.5;stroke-linecap:round;stroke-linejoin:round;stroke-miterlimit:10;" d="
								M347.56,216.127c1.706,0.569,29.201,18.705,29.201,18.705"/>
							
								<path style="fill:none;stroke:#000000;stroke-width:0.5;stroke-linecap:round;stroke-linejoin:round;stroke-miterlimit:10;" d="
								M352.393,211.294c1.706,0.568,29.201,18.705,29.201,18.705"/>
							
								<path style="fill:none;stroke:#000000;stroke-width:0.5;stroke-linecap:round;stroke-linejoin:round;stroke-miterlimit:10;" d="
								M357.225,206.462c1.706,0.568,29.202,18.705,29.202,18.705"/>
							
								<path style="fill:none;stroke:#000000;stroke-width:0.5;stroke-linecap:round;stroke-linejoin:round;stroke-miterlimit:10;" d="
								M362.058,201.629c1.706,0.569,29.201,18.705,29.201,18.705"/>
							
								<path style="fill:none;stroke:#000000;stroke-width:0.5;stroke-linecap:round;stroke-linejoin:round;stroke-miterlimit:10;" d="
								M354.951,187.699c2.856,1.002,48.895,32.976,48.895,32.976"/>
							
								<path style="fill:none;stroke:#000000;stroke-width:0.5;stroke-linecap:round;stroke-linejoin:round;stroke-miterlimit:10;" d="
								M354.951,179.171c2.856,1.002,48.895,32.976,48.895,32.976"/>
							
								<path style="fill:none;stroke:#000000;stroke-width:0.5;stroke-linecap:round;stroke-linejoin:round;stroke-miterlimit:10;" d="
								M354.951,170.643c2.856,1.002,48.895,32.976,48.895,32.976"/>
							
								<path style="fill:none;stroke:#000000;stroke-width:0.5;stroke-linecap:round;stroke-linejoin:round;stroke-miterlimit:10;" d="
								M354.951,162.115c2.856,1.002,48.895,32.976,48.895,32.976"/>
							
								<path style="fill:none;stroke:#000000;stroke-width:0.5;stroke-linecap:round;stroke-linejoin:round;stroke-miterlimit:10;" d="
								M403.847,186.562c0,0-46.039-31.973-48.895-32.976"/>
							
								<path style="fill:none;stroke:#000000;stroke-width:0.5;stroke-linecap:round;stroke-linejoin:round;stroke-miterlimit:10;" d="
								M354.951,145.058c2.856,1.002,48.895,32.976,48.895,32.976"/>
							
								<path style="fill:none;stroke:#000000;stroke-width:0.5;stroke-linecap:round;stroke-linejoin:round;stroke-miterlimit:10;" d="
								M354.951,136.53c2.856,1.002,48.895,32.976,48.895,32.976"/>
							
								<path style="fill:none;stroke:#000000;stroke-width:0.5;stroke-linecap:round;stroke-linejoin:round;stroke-miterlimit:10;stroke-dasharray:4;" d="
								M354.951,128.002c2.856,1.002,48.895,32.976,48.895,32.976"/>
						</g>
					</g>
				</g>
				
					<polyline style="fill:none;stroke:#000000;stroke-width:0.5;stroke-linecap:round;stroke-linejoin:round;stroke-miterlimit:10;stroke-dasharray:4;" points="
					348.375,182.841 348.375,127.159 441.178,127.159 441.178,214.503 413.883,214.503 				"/>
				
					<text transform="matrix(1 0 0 1 321.1907 239.2628)" style="font-family:'Roboto-Regular'; font-size:12.3862px; letter-spacing:2;">B</text>
				
					<text transform="matrix(1 0 0 1 370.8172 123.7745)" style="font-family:'Roboto-Regular'; font-size:12.3862px; letter-spacing:2;">A</text>
				
					<text transform="matrix(1 0 0 1 425.6673 239.2618)" style="font-family:'Roboto-Regular'; font-size:12.3862px; letter-spacing:2;">C</text>
			</g>
			
				<line style="fill:none;stroke:#000000;stroke-width:0.5;stroke-linecap:round;stroke-linejoin:round;stroke-miterlimit:10;stroke-dasharray:4;" x1="175.869" y1="159.64" x2="113.09" y2="159.64"/>
			<g>
				
					<line style="fill:none;stroke:#FFFFFF;stroke-width:4;stroke-miterlimit:10;" x1="113.09" y1="149.814" x2="151.303" y2="149.814"/>
				
					<line style="fill:none;stroke:#FFFFFF;stroke-width:4;stroke-miterlimit:10;" x1="113.09" y1="141.93" x2="165.497" y2="141.93"/>
			</g>
			<g>
				
					<line style="fill:none;stroke:#FFFFFF;stroke-width:4;stroke-miterlimit:10;" x1="384.222" y1="118.151" x2="422.436" y2="118.151"/>
				
					<line style="fill:none;stroke:#FFFFFF;stroke-width:4;stroke-miterlimit:10;" x1="384.222" y1="110.267" x2="432.751" y2="110.267"/>
			</g>
			<g>
				
					<line style="fill:none;stroke:#FFFFFF;stroke-width:4;stroke-miterlimit:10;" x1="347.101" y1="98.135" x2="382.406" y2="98.135"/>
				
					<line style="fill:none;stroke:#FFFFFF;stroke-width:4;stroke-miterlimit:10;" x1="347.101" y1="90.251" x2="391.752" y2="90.251"/>
			</g>
			<g>
				
					<line style="fill:none;stroke:#FFFFFF;stroke-width:4;stroke-miterlimit:10;" x1="347.101" y1="81.394" x2="382.406" y2="81.394"/>
				
					<line style="fill:none;stroke:#FFFFFF;stroke-width:4;stroke-miterlimit:10;" x1="347.101" y1="73.509" x2="391.752" y2="73.509"/>
			</g>
			<g>
				
					<line style="fill:none;stroke:#FFFFFF;stroke-width:4;stroke-miterlimit:10;" x1="246.108" y1="224.785" x2="284.322" y2="224.785"/>
				
					<line style="fill:none;stroke:#FFFFFF;stroke-width:4;stroke-miterlimit:10;" x1="246.108" y1="216.9" x2="298.515" y2="216.9"/>
				
					<line style="fill:none;stroke:#FFFFFF;stroke-width:4;stroke-miterlimit:10;" x1="246.108" y1="208.166" x2="298.515" y2="208.166"/>
				
					<line style="fill:none;stroke:#FFFFFF;stroke-width:4;stroke-miterlimit:10;" x1="94.897" y1="282.95" x2="147.304" y2="282.95"/>
				
					<line style="fill:none;stroke:#FFFFFF;stroke-width:4;stroke-miterlimit:10;" x1="94.897" y1="291.99" x2="131.737" y2="291.99"/>
			</g>
			<circle style="fill:#E8B5B5;" cx="95.985" cy="190.393" r="10.918"/>
			<circle style="fill:#E8B5B5;" cx="257.334" cy="253.467" r="10.918"/>
			<circle style="fill:#E8B5B5;" cx="327.084" cy="145.992" r="10.918"/>
			
				<text transform="matrix(1 0 0 1 92.4602 194.2521)" style="font-family:'Roboto-Regular'; font-size:10.9288px; letter-spacing:2;">1</text>
			
				<text transform="matrix(1 0 0 1 254.0232 257.4943)" style="font-family:'Roboto-Regular'; font-size:10.9288px; letter-spacing:2;">3</text>
			
				<text transform="matrix(1 0 0 1 323.7732 149.3361)" style="font-family:'Roboto-Regular'; font-size:10.9288px; letter-spacing:2;">2</text>
		</g>
		<g>
			<g>
				<path style="fill:#61BA89;" d="M90.431,347.092c-0.247-2.168-0.493-4.368-0.15-6.523s1.355-4.298,3.162-5.545
					c1.807-1.246,4.485-1.357,6.117,0.108c0.89,0.799,1.386,1.953,1.624,3.119c0.786,3.843-0.962,7.717-2.831,11.173
					c-1.168,2.158-2.402,4.282-3.7,6.366c-1.575,2.528-2.819,3.512-3.232,0.009C91.08,352.898,90.761,349.995,90.431,347.092z"/>
				<path style="fill:#61BA89;" d="M83.061,358.726c-1.096-0.965-2.271-1.697-3.467-2.02c-1.302-0.353-2.791-0.205-3.854,0.619
					c-1.822,1.412-1.751,4.352-0.388,6.203c1.409,1.914,4.061,3.202,6.274,3.914c0.668,0.215,7.275,0.376,7.066-0.235
					C87.801,364.609,85.656,361.012,83.061,358.726z"/>
				<path style="fill:#61BA89;" d="M76.811,369.828c-0.96-0.051-1.959,0.001-2.82,0.427c-0.86,0.426-1.551,1.301-1.508,2.253
					c0.018,0.407,0.165,0.799,0.353,1.161c1.13,2.179,3.692,3.318,6.158,3.485c2.466,0.167,4.906-0.468,7.321-0.991
					c0.449-0.097,0.856-0.158,1.261-0.358C86.469,372.146,80.229,370.011,76.811,369.828z"/>
				<path style="fill:#61BA89;" d="M96.51,362.159c1.114-1.363,2.243-2.74,3.65-3.803c1.408-1.063,3.144-1.798,4.91-1.684
					c0.74,0.048,1.527,0.281,1.965,0.874c0.598,0.809,0.333,1.952-0.089,2.864c-1.525,3.295-4.885,5.683-8.524,6.058
					c-1.756,0.181-3.504-0.001-5.236,0.418C94.444,365.605,95.328,363.605,96.51,362.159z"/>
				<path style="fill:#61BA89;" d="M94.834,374.402c1.781-1.539,3.888-2.781,6.211-3.212c0.491-0.091,0.996-0.146,1.488-0.063
					c1.766,0.298,2.795,2.401,2.364,4.124c-0.432,1.723-1.948,3.003-3.597,3.696c-1.649,0.693-3.453,0.909-5.211,1.252
					c-2.2,0.429-4.359,1.067-6.437,1.903c0.309-0.124,1.046-3.129,1.36-3.637C91.929,376.98,93.521,375.537,94.834,374.402z"/>
				<path style="fill:#61BA89;" d="M84.224,386.727c-1.174-1.181-2.594-2.192-4.228-2.551c-1.633-0.359-3.501,0.037-4.605,1.283
					c-1.104,1.246-1.17,3.377,0.077,4.483c1.29,1.144,3.255,0.863,4.986,0.907c2.434,0.061,4.84,0.933,6.74,2.441
					c0.04,0.032-0.283-2.854-0.502-3.297C86.098,388.792,85.164,387.673,84.224,386.727z"/>
				<path style="fill:#61BA89;" d="M96.172,391.438c1.075-0.647,2.274-1.21,3.53-1.145c1.025,0.053,1.981,0.522,2.851,1.063
					c0.525,0.327,1.046,0.698,1.366,1.224c0.679,1.118,0.225,2.641-0.706,3.563c-0.931,0.922-2.224,1.376-3.482,1.76
					c-2.236,0.682-4.513,1.233-6.815,1.649c-1.815,0.328-3.965,0.707-4.993,2.41c1.173-1.668,1.35-3.691,2.52-5.364
					C91.9,394.515,94,392.746,96.172,391.438z"/>
				<path style="fill:none;stroke:#111314;stroke-linecap:round;stroke-miterlimit:10;" d="M89.863,418.188
					c-0.961-6.01-1.559-12.076-1.796-18.156c-0.119-3.04-0.147-6.084-0.086-9.126c0.031-1.521,0.084-3.041,0.16-4.561
					c0.505-10.098,2.004-20.189,4.491-30.014c0.882-3.484,1.895-7.043,1.475-10.611"/>
				<path style="fill:none;stroke:#111314;stroke-linecap:round;stroke-miterlimit:10;" d="M88.269,384.655
					c2.096-3.682,5.097-6.423,8.819-8.489"/>
				<path style="fill:none;stroke:#111314;stroke-linecap:round;stroke-miterlimit:10;" d="M90,369.209
					c1.835-1.067,3.571-2.302,5.179-3.682c0.646-0.555,1.272-1.134,1.908-1.701c1.125-1.003,2.283-1.971,3.47-2.901"/>
				<path style="fill:none;stroke:#111314;stroke-linecap:round;stroke-miterlimit:10;" d="M88.021,401.54
					c1.815-2.887,4.401-5.293,7.423-6.907"/>
				<path style="fill:none;stroke:#111314;stroke-linecap:round;stroke-miterlimit:10;" d="M87.956,394.227
					c-0.298-0.346-0.528-0.508-0.759-0.902c-0.286-0.486-0.523-1.011-0.915-1.418c-0.467-0.485-1.112-0.759-1.645-1.173
					c-0.765-0.594-1.272-1.453-1.96-2.133c-1.056-1.043-2.552-1.635-4.043-1.598"/>
				<path style="fill:none;stroke:#111314;stroke-linecap:round;stroke-miterlimit:10;" d="M88.807,377.527
					c-1.114-1.715-2.808-2.483-4.845-2.772c-1.468-0.209-3.012,0.028-4.409-0.466"/>
				<path style="fill:none;stroke:#111314;stroke-linecap:round;stroke-miterlimit:10;" d="M89.95,369.021
					c-1.647-2.809-4.466-4.223-7.349-5.767"/>
			</g>
			<g>
				<path style="fill:#2775D9;" d="M75.971,405.824l1.284,14.538c0.409,4.634,3.415,8.465,7.519,10.148h9.352
					c4.11-1.687,7.119-5.527,7.521-10.17l1.256-14.516H75.971z"/>
			</g>
		</g>
		<g>
			<path style="fill:#61BA89;" d="M149.549,310.383c0.142-0.232,0.29-0.46,0.443-0.684c3.017-4.406,4.926-9.437,7.373-14.238
				c1.614-3.167,3.812-6.33,7.138-7.584c3.2-1.206,7.009-0.305,9.553,1.98c2.544,2.285,3.837,5.796,3.719,9.213
				c-0.092,2.641-0.957,5.188-1.846,7.677c-2.182,6.104-4.616,12.193-8.426,17.486c-3.81,5.294-8.058,10.412-11.782,15.815
				c-9.249,13.417-16.773,24.509-22.721,44.437c-2.825-10.852-1.78-22.507,0.509-33.354c1.063-5.038,1.425-10.009,3.643-14.753
				c2.023-4.327,4.984-8.162,7.042-12.473C146.228,319.643,147.066,314.438,149.549,310.383z"/>
			<path style="fill:#61BA89;" d="M125.219,352.164c-0.18-4.26-0.717-9.182-4.287-11.513c-3.667-2.395-9.021-0.452-11.319,3.277
				c-2.298,3.729-2.061,8.557-0.624,12.694c1.202,3.462,3.094,6.879,5.109,9.935c2.157,3.273,3.897,6.85,5.731,10.347
				c1.234,2.352,2.471,4.709,3.967,6.903c0.887,1.301,1.907,2.672,1.871,4.246C126.415,376.091,125.725,364.138,125.219,352.164z"/>
			<path style="fill:#61BA89;" d="M182.304,347.752c0.628,0.018,1.267,0.055,1.856,0.275c0.773,0.288,1.403,0.868,1.94,1.494
				c3.173,3.701,3.454,9.58,0.65,13.567c-2.394,3.403-6.514,5.19-10.592,6.014c-4.078,0.825-8.281,0.852-12.374,1.602
				c-4.844,0.887-9.535,2.819-13.599,5.601c-1.78,1.219-3.436,2.918-4.885,4.527c-1.238,1.375-3.803,3.79-4.286,5.593
				c2.035-7.601,5.4-14.844,9.896-21.302c1.788-2.568,4.236-4.813,6.434-7.049c2.167-2.205,4.644-4.103,7.316-5.655
				C169.976,349.335,176.139,347.578,182.304,347.752z"/>
			<path style="fill:none;stroke:#000000;stroke-linecap:round;stroke-miterlimit:10;" d="M139.141,403.497
				c0.07-2.026,0.14-4.052,0.21-6.077c0.148-4.289,0.313-8.664,1.805-12.687c0.811-2.187,1.995-4.212,3.173-6.225
				c1.844-3.151,3.746-6.371,6.561-8.695c2.134-1.762,4.729-2.949,6.668-4.924"/>
			<path style="fill:none;stroke:#000000;stroke-linecap:round;stroke-miterlimit:10;" d="M156.666,316.12
				c-1.839,4.704-3.688,9.431-6.243,13.788c-2.948,5.025-6.853,9.592-8.9,15.106c-1.994,5.37-3.723,11.157-5.055,16.762
				c-1.553,6.539-2.326,13.233-3.096,19.91c-0.249,2.162-0.499,4.328-0.533,6.504c-0.07,4.41,0.745,8.81,0.516,13.215"/>
			<path style="fill:none;stroke:#000000;stroke-linecap:round;stroke-miterlimit:10;" d="M126.574,402.887
				c-0.115-8.956-0.273-18.142-3.554-26.475c-0.778-1.975-1.727-3.88-2.455-5.875c-0.743-2.035-0.955-4.047-1.437-6.156
				c-0.43-1.887-1.08-3.715-1.728-5.539"/>
			<g>
				<path style="fill:#2775D9;" d="M115.331,392.919l1.58,18.051c0.504,5.754,4.203,10.51,9.252,12.601h11.508
					c5.058-2.094,8.76-6.863,9.254-12.628l1.545-18.023H115.331z"/>
			</g>
		</g>
		<g>
			<path style="fill:#61BA89;" d="M342.228,349.328c1.883-10.066,3.18-20.24,3.938-30.452c0.694-9.355,0.194-13.634-7.327-19.285
				c-6.622-4.974-15.635-6.834-23.599-4.351c-6.706,2.091-12.472,6.867-19.391,8.076c-3.455,0.604-7.002,0.275-10.498,0.556
				c-11.794,0.947-21.83,8.59-31.114,15.925c-3.929,3.104-7.858,6.209-11.787,9.313c-5.659,4.471-11.598,9.589-18.303,12.432
				c-2.783,1.18-5.625,1.12-8.409,2.295c-3.608,1.522-7.006,3.95-10.09,6.329c-5.723,4.415-11.012,9.528-14.791,15.69
				c-2.623,4.277-4.009,9.107-5.246,13.928c-1.148,4.472-3.043,8.132-4.576,12.443c-3.387,9.532-3.877,21.022,0.264,30.286
				c4.559,10.197,16.692,12.849,26.688,14.665c14.407,2.617,29.08,3.802,43.72,3.355c13.536-0.414,28.571-1.023,41.603-5.165
				c14.05-4.466,22.277-13.124,28.869-25.841c9.689-18.694,16.045-39.024,19.95-59.675
				C342.162,349.677,342.195,349.503,342.228,349.328z"/>
			<path d="M199.989,430.136c0.624,0.095,1.273,0.115,1.835,0.172c1.32,0.133,2.645,0.211,3.971,0.235
				c1.629,0.03,3.263-0.023,4.881,0.165c3.883,0.451,7.475,2.254,11.289,3.112c1.009,0.227,2.037,0.387,3.071,0.388
				c1.324,0.001,2.632-0.258,3.931-0.517c2.133-0.425,4.267-0.85,6.4-1.275c-0.489-0.747-1.145-1.514-1.52-2.323
				c-0.275-0.594-0.411-1.224-0.738-1.817c-0.717-1.295-1.719-2.429-2.878-3.346c-2.274-1.798-5.061-2.815-7.841-3.635
				c-5.633-1.66-11.468-2.631-17.335-2.882c-1.027-0.044-2.074-0.064-3.063,0.216c-1.797,0.508-3.221,2.045-4.13,3.614
				c-0.494,0.853-0.874,1.787-1.056,2.758c-0.199,1.065-0.285,2.019,0.088,3.052c0.153,0.424,0.516,0.732,0.864,1.019
				c0.111,0.091,0.221,0.182,0.332,0.273c0.083,0.068,0.165,0.137,0.252,0.2C198.799,429.881,199.383,430.044,199.989,430.136z"/>
			<path d="M171.443,423.135c-0.019-0.003-0.039-0.006-0.058-0.01c-1.272-0.208-2.398-0.852-3.449-1.58
				c-3.365-2.334-7.31-3.677-10.87-5.699c-1.585-0.9-3.095-1.936-4.729-2.745c-2.322-1.151-4.954-1.887-6.752-3.754
				c-0.915-0.949-1.547-2.13-2.15-3.302c-0.174-0.338-0.351-0.694-0.348-1.074c0.003-0.395,0.206-0.768,0.479-1.053
				c0.723-0.751,1.845-0.918,2.88-1.043c3.307-0.4,6.64-0.8,9.962-0.544c2.434,0.188,4.827,0.725,7.197,1.31
				c2.01,0.496,4.014,1.027,5.965,1.717c0.473,0.167,0.954,0.35,1.338,0.674c0.493,0.416,0.778,1.021,1.049,1.607
				c0.963,2.086,1.926,4.172,2.89,6.258c0.281,0.609,0.564,1.221,0.766,1.861c0.289,0.916,0.408,1.877,0.411,2.835
				c0.004,1.007,0.099,2.173-0.443,3.074c-0.348,0.578-0.303,0.871-0.874,1.085c-0.621,0.233-1.575,0.366-2.249,0.448
				C172.12,423.239,171.779,423.19,171.443,423.135z"/>
			<path style="fill:#E36D78;" d="M125.853,434.079c-0.457-0.125-0.922-0.259-1.308-0.534c-0.718-0.511-1.045-1.509-0.77-2.345
				c0.254-0.771,0.922-1.26,1.697-1.366c0.516-0.071,1.832-0.17,2.306-0.052c-0.565-0.142-1.143-0.288-1.63-0.609
				c-0.487-0.321-0.874-0.855-0.859-1.438c0.019-0.74,0.682-1.336,1.397-1.526c0.715-0.19,1.471-0.067,2.201,0.057
				c-0.447-0.292-0.894-0.585-1.342-0.877c-0.521-0.34-1.094-0.765-1.149-1.384c-0.068-0.767,0.734-1.358,1.498-1.456
				c0.764-0.098,1.533,0.12,2.304,0.113c-0.594-0.571-1.239-1.392-0.868-2.127c0.207-0.412,0.673-0.621,1.117-0.743
				c2.212-0.607,4.089,0.461,6.04,1.347c1.624,0.737,3.519,1.224,5.218,1.796c2.917,0.981,5.773,0.767,8.824,0.771
				c5.163-10.556,9.55-21.49,13.116-32.687c0.788-2.475,1.678-5.159,3.841-6.597c1.246-0.829,2.779-1.129,4.275-1.164
				c4.017-0.094,8.107,1.757,10.423,5.041c5.723,8.117-2.176,20.654-6.411,27.615c-3.133,5.151-5.237,10.916-7.474,16.493
				c-1.34,3.342-2.738,7.393-6.984,7.658c-2.191,0.137-4.387-0.645-6.499-1.119c-2.464-0.552-4.943-1.032-7.427-1.482
				c-2.309-0.419-4.803-1.13-7.136-1.078C135.499,436.492,130.432,435.331,125.853,434.079z"/>
			<path style="fill:#E36D78;" d="M179.251,451.54c-0.295-0.276-0.5-0.577-0.463-0.854c0.081-0.608,0.713-0.959,1.27-1.214
				c-0.771-0.26-1.509-0.724-1.904-1.435c-0.409-0.737-0.39-1.951,0.466-2.362c-0.319-0.423-0.897-0.679-1.267-1.099
				c-1-1.133-0.16-2.194,0.975-2.753c-0.771-1.254-2.173-2.176-2.162-3.829c0.008-1.22,0.965-2.44,2.184-2.499
				c0.612-0.03,1.199,0.212,1.769,0.436c3.985,1.563,8.155,2.238,12.381,2.728c3.249,0.377,6.172-0.476,9.345-1.144
				c3.04-12.115,5.19-24.453,6.428-36.882c0.274-2.747,0.607-5.735,2.538-7.708c1.113-1.137,2.64-1.787,4.188-2.154
				c4.157-0.984,8.818,0.039,11.95,2.943c7.742,7.178,2.293,21.957-0.574,30.129c-2.122,6.048-3.038,12.506-4.134,18.799
				c-0.209,1.2-0.529,2.375-0.724,3.595c-0.145,0.906-0.326,1.883-1,2.506c-0.322,0.297-0.729,0.484-1.137,0.641
				c-3.97,1.521-8.389,0.549-12.626,0.192c-5.186-0.437-10.451,0.095-15.445,1.56c-1.931,0.566-3.76,0.906-5.727,1.247
				c-1.67,0.289-3.212,0.718-4.899,0.064C180.359,452.32,179.701,451.959,179.251,451.54z"/>
			<path style="fill:#EED43B;" d="M188.173,333.746c-1.267,1.195-2.351,2.575-3.469,4.069c-2.424,3.243-4.808,6.517-7.149,9.821
				c-4.625,6.526-9.099,13.163-13.382,19.919c-5.126,8.057-10.011,16.267-14.647,24.615c-1.159,2.087-2.302,4.183-3.43,6.287
				c-0.586,1.094-1.169,2.191-1.746,3.289c-0.341,0.649-1.599,2.266-1.537,2.98c0.224,2.6,7.357,3.414,9.162,4.374
				c2.582,1.372,4.336,4.013,6.974,5.274c1.209,0.578,2.542,0.835,3.819,1.241c2.721,0.864,5.217,2.428,7.181,4.501
				c1.137,1.2,3.152,1.317,4.187,2.491c0.771,0.875,2.051-1.064,2.821-1.94c0.936-1.065,1.821-2.173,2.651-3.322
				c0.798-1.103,1.559-2.269,1.91-3.585c0.219-0.819,0.274-1.68,0.549-2.482c0.229-0.668,0.602-1.275,0.973-1.875
				c4.82-7.808,7.898-17.126,12.087-25.402c1.864-3.831,3.869-11.651,7.824-13.197c2.433-0.951,7.149-0.039,9.796-0.061
				c3.278-0.027,6.556-0.061,9.834-0.101c6.556-0.08,13.112-0.186,19.667-0.318c5.362-0.108,10.867-0.262,15.821-2.316
				c1.697-0.704,3.472-1.841,3.828-3.644c0.19-0.962-0.067-1.958-0.431-2.868c-1.734-4.348-5.758-7.376-9.954-9.45
				c-9.316-4.605-20.05-5.545-29.6-9.643c-5.157-2.213-9.896-5.318-15.061-7.513c-2.505-1.065-5.12-1.829-7.695-2.703
				c-2.268-0.77-5.068-2.123-7.458-0.927C190.331,331.943,189.192,332.784,188.173,333.746z"/>
			<path d="M261.467,361.496c-1.734-4.348-5.758-7.376-9.954-9.45c-9.316-4.605-20.05-5.545-29.6-9.643
				c-0.701-0.301-1.393-0.62-2.08-0.949c-2.371,0.979-4.885,1.866-6.907,3.395c-0.592,0.864-1.133,1.763-1.639,2.692
				c-0.489,0.899-0.956,1.81-1.446,2.709c-0.509,0.934-1.113,1.805-1.704,2.687c-0.525,0.785-1.036,1.585-1.428,2.447
				c-0.414,0.912-0.68,1.892-0.939,2.856c-0.414,1.543-0.763,3.182-1.543,4.593c-0.689,1.247-1.597,2.392-2.365,3.592
				c-1.029,1.607-2.111,3.294-2.708,5.12c-0.175,0.535-0.392,1.237-0.167,1.765c0.049,0.114,0.186,0.248,0.347,0.31
				c0.153,0.059,0.317,0.082,0.483,0.087c0.897-1.356,1.922-2.427,3.133-2.901c2.433-0.951,7.149-0.04,9.796-0.061
				c3.278-0.027,6.556-0.061,9.834-0.101c6.556-0.08,13.112-0.186,19.667-0.318c5.362-0.108,10.867-0.262,15.821-2.316
				c1.697-0.704,3.472-1.841,3.828-3.644C262.088,363.402,261.83,362.407,261.467,361.496z"/>
			<path style="fill:#E36D78;" d="M233.29,316.65c4.238-2.721,9.035-4.425,13.784-6.105c5.917-2.093,11.954-4.21,18.228-4.378
				c0.615-0.017,1.275-0.001,1.778,0.353c0.435,0.306,0.677,0.811,0.9,1.294c1.327,2.871,2.658,6.235,1.254,9.07
				c-0.643,1.299-1.789,2.28-2.998,3.081c-5.428,3.593-12.247,4.077-18.601,5.497c-5.013,1.12-9.882,2.882-14.45,5.229
				c-1.936,0.994-3.843,2.103-5.949,2.652c-1.779,0.464-5.712,0.76-6.189-1.385c-0.377-1.697,1.634-4.291,2.461-5.562
				C226.037,322.508,229.388,319.157,233.29,316.65z"/>
			<path style="fill:#2775D9;" d="M325.975,313.193c0.602,4.191-0.256,8.454-1.403,12.53c-4.3,15.276-12.598,29.069-20.805,42.652
				c-1.625,2.69-3.253,5.384-5.087,7.936c-0.504,0.702-1.097,1.441-1.941,1.623c-0.707,0.153-1.428-0.124-2.098-0.397
				c-7.094-2.892-14.108-5.979-21.032-9.258c-8.826-4.18-16.888-8.896-24.304-15.251c-0.307-0.263-0.625-0.546-0.762-0.927
				c-0.157-0.44-0.043-0.925,0.072-1.377c1.23-4.829,1.952-9.17,4.863-13.198c1.433-1.985,2.628-4.056,3.717-6.227
				c0.936-1.865,2.437-3.12,3.934-4.58c0.301-0.293,0.602-0.586,0.902-0.88c0.777-0.757,1.556-1.517,2.43-2.16
				c1.205-0.887,2.597-1.558,3.575-2.69c-2.217,1.348-5.052,1.002-7.403,2.053c0.149-2.102-1.915-4.977-2.81-6.897
				c-1.2-2.572-2.4-5.144-3.599-7.716c-0.106-0.228-0.215-0.484-0.139-0.723c0.074-0.232,0.298-0.378,0.507-0.503
				c4.337-2.598,8.969-4.701,13.777-6.264c4.73-1.538,9.988-3.25,14.945-3.662c2.831-0.235,5.681-0.037,8.503,0.281
				c4.023,0.454,8.018,1.151,11.957,2.087c2.983,0.708,7.04,1.137,9.549,2.935c1.646,1.179,2.948,2.778,4.536,4.035
				c1.475,1.167,3.182,2.027,4.601,3.263C323.878,311.112,325.708,311.331,325.975,313.193z"/>
			<path style="fill:#EED43B;" d="M283.302,356.69c-5.094-2.922-11.819-4.745-17.301-6.9c-7.129-2.803-14.406-5.231-21.79-7.271
				c-3.845-1.046-7.708-2.017-11.602-2.866c-3.887-0.848-7.496-1.808-11.438-1.275c-0.413,0.056-0.827,0.112-1.235,0.201
				c-5.091,1.11-7.109,8.264-8.661,12.607c-1.854,5.19-3.063,10.591-3.954,16.023c-1.757,10.705-2.365,21.605-4.804,32.175
				c-2.151,9.324-6.614,23.656-5.858,27.949c0.239-0.111,0.922-0.351,1.081-0.417c1.19-0.491,1.859-0.645,3.101-0.977
				c2.472-0.66,5.044-1.025,7.562-0.362c3.269,0.861,5.733,3.256,8.704,4.726c3.402,1.683,7.209,2.387,10.986,2.403
				c0.962,0.004,1.917-0.06,2.876,0.044c0.061,0.007,0.12,0.02,0.18,0.027c1.459-0.093,2.917-0.219,4.369-0.389
				c1.826-7.548,0.465-15.614,2.461-23.119c0.705-2.651,1.82-5.189,2.38-7.874c1.359-6.512-0.612-13.506,1.475-19.823
				c9.752,0.548,19.43,2.402,28.694,5.498c0.749,0.25,1.543,0.512,2.312,0.335c0.719-0.165,1.295-0.688,1.821-1.204
				C279.77,381.182,293.016,362.262,283.302,356.69z"/>
			<path style="fill:#F2D5D5;" d="M208.678,305.666c15.735,1.061,25.602-2.453,39.821,14.66
				c0.581-11.663,0.325-24.553,13.255-29.385L208.678,305.666z"/>
			<path d="M262.311,353.069l-32.071-14.306c-0.346-0.154-0.501-0.56-0.347-0.905l9.647-21.627c0.154-0.346,0.56-0.501,0.906-0.347
				l32.697,14.585l-9.927,22.254C263.062,353.068,262.656,353.223,262.311,353.069z"/>
			<g>
				<path style="fill:#E36D78;" d="M316.658,298.641c-0.273,1.066-0.455,2.153-0.259,3.225c0.483,2.647,2.697,5.445,4.577,6.94
					c-3.755-0.069-7.753,0.35-11.484,0.52c-2.66,0.122-5.412-0.294-7.699-1.659c-1.006-0.6-2.29-1.499-2.654-2.65
					c-0.33-1.044-0.508-2.137-0.531-3.232c-0.032-1.027,0.055-2.101,0.217-3.109c0.003-0.022,0.008-0.045,0.025-0.059
					c0.017-0.014,0.042-0.015,0.064-0.014c0.53,0.014,0.688,0.092,1.204,0.216c0.293,0.07,0.957,0.151,1.258,0.142
					c0.936-0.03,1.034-1.061,1.22-1.768c0.244-0.931,0.396-1.887,0.453-2.848c0.135-2.296,0.306-3.807,2.574-4.716
					c3.767-1.51,7.246-3.548,11.123-4.828c0.661-0.218,1.436-0.407,2.013-0.016c0.284,0.192,0.47,0.5,0.6,0.817
					c0.59,1.439,0.164,3.072-0.267,4.567c-0.715,2.478-1.431,4.956-2.146,7.434C316.846,297.947,316.747,298.293,316.658,298.641z"
					/>
				<path style="fill:#E36D78;" d="M321.134,281.094c-0.53-1.091-0.838-2.279-1.485-3.329c-1.004-1.63-1.987-3.229-3.237-4.691
					c-2.166-2.532-5.27-5.261-8.841-5.034c-5.873,0.372-9.748,4.622-11.332,9.719c-1.343,4.319-1.55,8.953-0.597,13.366
					c1.022,4.736,5.057,7.035,9.87,6.294c3.561-0.548,6.71-2.55,9.681-4.589c1.039-0.713,2.076-1.441,2.979-2.32
					c1.567-1.525,2.676-3.448,3.764-5.345c0.329-0.573,0.669-1.219,0.517-1.861c-0.102-0.431-0.41-0.778-0.676-1.133
					C321.523,281.83,321.315,281.468,321.134,281.094z"/>
				<path d="M315.804,295.609c0.241-0.188,0.497-0.459,0.769-0.828c1.056-1.43,0.963-2.233,2.813-2.619
					c1.808-0.377,3.19-0.654,3.729-2.697c0.269-1.019,0.251-2.09,0.413-3.132c0.017-0.109,0.041-0.228,0.124-0.301
					c0.086-0.075,0.209-0.081,0.322-0.095c1.18-0.146,1.886-1.465,1.9-2.653s-0.448-2.326-0.649-3.497
					c-0.306-1.787-0.252-3.561-1.463-5.043c-1.041-1.274-2.566-2.328-4.084-2.957c-2.523-1.046-5.319-1.759-7.755-2.959
					c-0.595-0.293-1.109-0.724-1.65-1.108c-1.958-1.391-4.273-2.17-6.551-2.931c-0.941-0.314-2.256-0.48-2.667,0.422
					c-0.336,0.737,0.271,1.537,0.834,2.119c-0.892-0.922-4.401,0.893-5.151,1.434c-1.824,1.315-2.183,3.04-1.287,5.146
					c0.734,1.726,2.422,2.555,3.751,3.751c1.513,1.361,3.033,2.422,4.911,3.326c1.976,0.951,6.337,2.261,7.321,4.326
					c0.596,1.253-0.007,2.557,0.005,3.853c0.01,1.043,0.391,1.648,0.783,2.55C312.885,293.25,313.857,297.13,315.804,295.609z"/>
				<path style="fill:#E36D78;" d="M312.568,284.307c1.649,0.686,2.709,2.504,2.372,4.184c-0.337,1.68-2.089,3.013-3.884,2.892
					c-1.736-0.118-3.243-1.574-3.398-3.221C307.432,285.761,310.052,283.261,312.568,284.307z"/>
				<path style="fill:none;stroke:#000000;stroke-linecap:round;stroke-miterlimit:10;" d="M311.872,285.745
					c-0.836-0.185-1.769,0.107-2.325,0.729c-0.556,0.621-0.709,1.544-0.381,2.298"/>
				<path style="fill:none;stroke:#1F5DAD;stroke-miterlimit:10;" d="M312.147,273.504c1.662,1.016,2.875,2.674,3.298,4.509
					c0.11,0.478,0.105,1.093-0.351,1.32c-0.328,0.163-0.728,0.033-1.066-0.111c-1.385-0.588-2.676-1.376-3.815-2.329
					c0.431,0.467,0.888,1.103,0.587,1.653c-0.387,0.709-1.514,0.457-2.249,0.067c-2.421-1.282-4.597-2.981-6.39-4.99"/>
				<path style="fill:none;stroke:#1F5DAD;stroke-miterlimit:10;" d="M322.172,278.519c0.27,1.076,0.436,2.262-0.051,3.259
					c-0.487,0.997-1.866,1.611-2.758,0.951c0.688,1.232,1.396,2.539,1.373,3.95c-0.023,1.411-1.077,2.91-2.488,2.881
					c-0.203-0.004-0.419-0.036-0.599,0.057c-0.17,0.089-0.267,0.27-0.354,0.44c-0.434,0.848-0.868,1.696-1.302,2.544"/>
				<path style="fill:none;stroke:#000000;stroke-linecap:round;stroke-miterlimit:10;" d="M302.448,297.259
					c1.797-0.165,3.572-0.564,5.266-1.185"/>
				<path style="fill:none;stroke:#000000;stroke-linecap:round;stroke-miterlimit:10;" d="M297,289.961
					c1.42,0.573,2.987,0.774,4.506,0.578"/>
			</g>
			<path style="fill:#E36D78;" d="M221.136,330.624c-0.316,0.72-0.536,1.47-0.552,2.252c-0.06,3.036,3.712,4.879,5.911,6.166
				c3.1,1.813,6.364,3.334,9.72,4.611c0.335,0.128,0.715,0.277,1.116,0.427c0.068,0.03,0.134,0.065,0.202,0.094
				c2.1,0.894,4.391,1.488,6.485,0.1c0.271-0.18,0.389-0.427,0.403-0.68c-0.04,0.735,2.317,0.45,2.565-0.592
				c0.383-1.613-1.653-1.527-2.624-1.683c-0.136-0.022-0.271-0.05-0.407-0.073c-1.232-0.37-2.469-0.728-3.714-1.05
				c-0.853-0.221-1.993-0.325-2.655-0.958c0.908-0.427,2.153,0.323,3.029,0.603c2.462,0.79,4.984,1.588,7.57,1.434
				c0.442-0.026,0.919-0.097,1.246-0.426c1.669-1.674-2.672-2.021-3.287-2.107c-2.36-0.328-4.687-0.886-6.943-1.665
				c-0.614-0.212-1.158-0.304-1.325-1.077c2.951-0.427,5.742,1.291,8.687,1.613c0.489,0.053,1.078,0.018,1.351-0.429
				c0.263-0.431,0.059-1.034-0.313-1.341c-0.372-0.307-0.859-0.395-1.325-0.483c-2.679-0.507-5.301-1.322-7.807-2.427
				c-0.956-0.421-2.076-0.921-2.707-1.826c2.05-0.436,4.92,1.3,6.322-1.109c0.214-0.369,0.074-1-0.242-1.243
				c-1.001-0.771-1.778,0.072-2.84,0.017c-0.577-0.03-1.132-0.238-1.694-0.352c-0.554-0.112-1.125-0.152-1.692-0.128
				c-1.685,0.071-3.796,0.417-5.404,0.247c-1.526-0.162-1.52-0.6-0.722-2.207c0.331-0.666,0.438-1.44,0.302-2.171
				c-0.014-0.075-0.032-0.153-0.083-0.21c-0.06-0.067-0.154-0.091-0.243-0.109c-1.59-0.32-3.258,0.315-4.51,1.346
				c-1.252,1.03-2.152,2.42-2.971,3.819C221.68,329.529,221.38,330.067,221.136,330.624z"/>
			<path style="fill:#E36D78;" d="M302.749,342.326c-4.563,0.92-9.285,1.017-13.935,0.768c-4.468-0.238-11.804,0.399-15.332-2.412
				c-1.236-0.985-2.531-1.551-3.903-2.281c-0.407,0.717-0.675,1.518-1,2.28c0.861,0.497,1.795,0.939,2.38,1.605
				c-1.046,0.349-2.243,0.081-3.262-0.151c-2.67-0.609-5.26-1.52-7.712-2.713c-0.426-0.207-0.869-0.428-1.351-0.404
				c-0.481,0.024-1.006,0.386-1.052,0.889c-0.048,0.522,0.404,0.902,0.827,1.15c2.555,1.499,5.819,1.787,7.932,3.891
				c-0.595,0.521-1.086,0.27-1.706,0.073c-2.275-0.721-4.475-1.663-6.564-2.808c-0.544-0.298-4.234-2.61-3.895-0.272
				c0.067,0.459,0.407,0.8,0.746,1.086c1.983,1.667,4.483,2.532,6.93,3.368c0.87,0.297,2.317,0.439,2.79,1.324
				c-0.909,0.113-1.886-0.484-2.702-0.816c-1.191-0.485-2.396-0.936-3.606-1.374c-0.123-0.063-0.248-0.12-0.37-0.184
				c-0.872-0.454-2.454-1.739-3.11-0.215c-0.652,1.515,2.097,2.436,2.999,2.898c0.92,0.471,1.863,0.899,2.823,1.282
				c0.609,0.243,2.216,0.47,2.581,1.025c-0.623,0.108-1.209-0.293-1.824-0.436c-0.501-0.117-1.026-0.062-1.537-0.122
				c-1.286-0.15-2.401-1.007-3.682-1.191c-0.199-0.029-0.417-0.037-0.588,0.069c-0.234,0.146-0.303,0.47-0.227,0.735
				c0.076,0.265,0.267,0.479,0.465,0.671c1.573,1.531,3.814,2.154,5.987,2.47c7.021,1.023,13.816,1.184,20.535,3.553
				c5.717,2.016,11.63,3.414,17.53,4.809c3.341,0.79,6.73,1.585,10.162,1.478c3.432-0.106,6.971-1.223,9.313-3.734
				c1.328-1.424,2.199-3.207,2.962-4.998c1.08-2.535,1.994-5.227,1.873-7.98c-0.121-2.753-1.466-5.594-3.925-6.838
				c-3.72-1.882-8.058,0.392-11.948,1.89C306.523,341.416,304.65,341.943,302.749,342.326z"/>
			<path style="fill:#61BA89;" d="M327.713,375.193c1.198-1.661,2.257-3.427,2.987-5.565c0.927-2.715,1.25-5.595,1.976-8.37
				c0.707-2.704,1.795-5.304,2.353-8.042c0.997-4.891,0.258-9.941-0.024-14.924c-0.341-6.01-0.011-12.059-0.699-18.04
				c-0.687-5.981-2.509-12.05-6.541-16.521c-7.387,10.959-13.114,22.95-20.201,34.106c-11.24,17.693-25.404,35.792-45.722,42.582
				c-3.358,1.122-10.478,2.27-14.077,1.764c-1.006-0.141-1.994-0.399-3.005-0.506c-0.644-0.068-1.423-0.007-1.745,0.555
				c-0.281,0.489-0.062,1.103,0.171,1.616c0.385,0.847,0.89,1.649,1.259,2.499c0.275,0.634,0.28,1.232,0.441,1.897
				c0.401,1.66,1.2,3.297,1.917,4.839c1.115,2.398,2.449,4.674,3.647,7.028c1.776,3.488,3.769,6.919,6.489,9.735
				c5.176,5.361,12.632,8.067,20.047,8.801c12.486,1.237,25.413-2.878,34.886-11.104c4.267-3.705,7.936-8.382,9.253-13.877
				c1.028-4.289-0.034-9.807,2.706-13.467C325.14,378.451,326.499,376.876,327.713,375.193z"/>
			<path style="fill:none;stroke:#000000;stroke-linecap:round;stroke-miterlimit:10;" d="M232.885,415.968
				c-1.391,2.394-2.782,4.788-4.173,7.181"/>
			<path style="fill:none;stroke:#000000;stroke-linecap:round;stroke-miterlimit:10;" d="M250.711,357.731
				c5.701,1.271,11.489,2.156,17.309,2.648"/>
			<g>
				<defs>
					<path id="SVGID_00000091726577516526451760000002615328394658435488_" d="M218.752,337.096
						c-6.619,8.594-9.673,19.407-11.43,30.111c-1.756,10.705-2.365,21.605-4.804,32.175c-2.169,9.401-5.79,18.597-5.992,28.242
						c12.371,4.659,25.865,6.307,38.993,4.761c1.826-7.548,0.465-15.614,2.46-23.119c0.705-2.651,1.82-5.189,2.38-7.874
						c1.359-6.512-0.612-13.505,1.475-19.823c9.752,0.548,19.43,2.402,28.694,5.498c0.749,0.25,1.543,0.512,2.312,0.335
						c0.719-0.165,1.295-0.688,1.821-1.204c5.109-5.016,18.354-23.936,8.641-29.508c-5.094-2.922-11.819-4.745-17.301-6.9
						c-7.129-2.803-14.406-5.231-21.79-7.271C235.843,340.207,227.336,338.393,218.752,337.096z"/>
				</defs>
				<clipPath id="SVGID_00000081613428571243061900000016835864532310720671_">
					<use xlink:href="#SVGID_00000091726577516526451760000002615328394658435488_"  style="overflow:visible;"/>
				</clipPath>
				<path style="clip-path:url(#SVGID_00000081613428571243061900000016835864532310720671_);" d="M241.834,381.57
					c-1.269-4.51-2.906-8.833-5.075-12.856c-0.218-0.405-0.708-0.907-0.999-0.551c-0.862,1.054-0.85,2.934-1.147,4.263
					c-0.108,0.482-0.185,0.982-0.106,1.47c0.246,1.525,1.828,2.387,2.837,3.555c3.058,3.542,0.679,9.715,3.742,13.253"/>
			</g>
			<path d="M282.879,367.189c-2.51,1.933-5.333,3.424-8.245,4.651c-2.761,1.164-5.727,2.37-8.672,2.952
				c-3.147,0.621-6.7,0.797-8.921,3.112c-0.91,0.948-1.519,2.2-2.608,2.936c-2.796,1.888-6.367-1.336-9.671,0.837
				c6.02,1.313,21.595,2.475,42.055-17.116C285.436,365.328,284.13,366.225,282.879,367.189z"/>
			<path style="fill:none;stroke:#000000;stroke-linecap:round;stroke-miterlimit:10;" d="M184.425,394.834
				c-1.889,2.379-3.835,4.878-4.445,7.854c-0.296,1.444-0.26,2.931-0.368,4.401c-0.195,2.659-0.868,5.282-1.977,7.706"/>
			<path style="fill:none;stroke:#000000;stroke-linecap:round;stroke-miterlimit:10;" d="M194.989,336.002
				c-2.043,0.957-4.086,1.913-6.129,2.87"/>
			<path style="fill:none;stroke:#000000;stroke-linecap:round;stroke-miterlimit:10;" d="M191.468,374.203
				c-1.198,1.217-2.07,2.753-2.5,4.406"/>
			<path style="fill:none;stroke:#000000;stroke-linecap:round;stroke-miterlimit:10;" d="M215.822,340.865
				c-2.736,4.797-4.117,8.489-5.587,12.966c-0.701,2.134-1.087,4.356-1.47,6.569c-0.544,3.137-1.087,6.273-1.63,9.41"/>
			<path style="fill:none;stroke:#000000;stroke-linecap:round;stroke-miterlimit:10;" d="M267.795,321.534
				c0.528-1.207,1.434-2.246,2.558-2.933c0.396-0.242,0.818-0.441,1.215-0.681c1.848-1.117,3.121-3.088,5.1-3.951"/>
			<path style="fill:none;stroke:#000000;stroke-linecap:round;stroke-miterlimit:10;" d="M296.566,300.734
				c-0.018,1.097-0.035,2.204,0.166,3.283c0.201,1.079,0.638,2.142,1.415,2.918"/>
			<path style="fill:none;stroke:#000000;stroke-linecap:round;stroke-miterlimit:10;" d="M299.539,308.504
				c0.71,0.894,1.867,1.287,2.97,1.584c3.329,0.896,6.784,1.324,10.231,1.269"/>
			<path style="fill:none;stroke:#000000;stroke-linecap:round;stroke-miterlimit:10;" d="M315.941,311.29
				c0.49,0.098,0.996,0.118,1.492,0.06"/>
			<path style="fill:none;stroke:#000000;stroke-linecap:round;stroke-miterlimit:10;" d="M236.525,327.129
				c-1.388,0.255-2.643,0.962-3.937,1.524s-2.736,0.99-4.105,0.647"/>
			<path style="fill:none;stroke:#000000;stroke-linecap:round;stroke-miterlimit:10;" d="M323.14,310.927
				c0.694-0.876,1.124-1.935,1.414-3.014c0.575-2.145,0.561-4.623-0.806-6.372"/>
			<path style="fill:none;stroke:#000000;stroke-linecap:round;stroke-miterlimit:10;" d="M280.806,431.193
				c2.073-0.897,4.339-1.223,6.544-1.715c5.999-1.337,11.705-3.969,16.617-7.663"/>
			<path style="fill:none;stroke:#000000;stroke-linecap:round;stroke-miterlimit:10;" d="M273.949,361.129
				c1.346-0.047,2.701,0.167,3.967,0.626"/>
			<path style="fill:none;stroke:#000000;stroke-linecap:round;stroke-miterlimit:10;" d="M219.211,436.778
				c0.787,1.518,0.562,3.501-0.543,4.805"/>
			<path style="fill:none;stroke:#000000;stroke-linecap:round;stroke-miterlimit:10;" d="M150.863,423.664
				c0.729,0.553,1.405,1.177,2.014,1.859"/>
			<path style="fill:none;stroke:#000000;stroke-linecap:round;stroke-miterlimit:10;" d="M294.283,423.273
				c4.012-1.45,7.66-3.896,10.526-7.057"/>
			<path style="fill:none;stroke:#000000;stroke-linecap:round;stroke-miterlimit:10;" d="M257.353,381.508
				c12.607-2.567,24.824-7.036,36.111-13.21"/>
			<path style="fill:none;stroke:#000000;stroke-linecap:round;stroke-miterlimit:10;" d="M250.283,408.536
				c-1.1,3.597-2.654,7.055-4.615,10.266"/>
			<path style="fill:none;stroke:#000000;stroke-linecap:round;stroke-miterlimit:10;" d="M330.776,321.286
				c-1.583,1.339-3.165,2.678-4.748,4.018"/>
			<path style="fill:none;stroke:#000000;stroke-linecap:round;stroke-miterlimit:10;" d="M329.818,324.984
				c-1.583,1.339-6.27,4.048-7.853,5.387"/>
		</g>
		<g>
			
				<line style="fill:none;stroke:#000000;stroke-linecap:round;stroke-miterlimit:10;" x1="331.62" y1="436.583" x2="437.085" y2="436.583"/>
			
				<line style="fill:none;stroke:#000000;stroke-linecap:round;stroke-miterlimit:10;" x1="308.29" y1="433.661" x2="368.19" y2="433.661"/>
			<g>
				<g>
					<polygon points="383.81,338.763 397.413,329.683 419.418,329.49 421.818,338.184 					"/>
					
						<line style="fill:none;stroke:#EED43B;stroke-width:2;stroke-linecap:round;stroke-miterlimit:10;" x1="404.414" y1="347.457" x2="431.12" y2="311.427"/>
					
						<line style="fill:none;stroke:#EED43B;stroke-width:2;stroke-linecap:round;stroke-miterlimit:10;" x1="400.113" y1="347.94" x2="410.616" y2="309.978"/>
					<polygon style="fill:#E36D78;" points="418.261,364.941 421.818,338.184 383.409,338.184 386.966,364.941 					"/>
					<polyline style="fill:none;stroke:#111314;stroke-linecap:round;stroke-miterlimit:10;" points="383.409,338.184 
						387.41,350.741 405.815,351.031 421.818,338.184 					"/>
				</g>
				<g>
					
						<line style="fill:none;stroke:#000000;stroke-width:2;stroke-linecap:round;stroke-linejoin:round;stroke-miterlimit:10;" x1="310.978" y1="365.237" x2="431.848" y2="365.237"/>
					
						<line style="fill:none;stroke:#000000;stroke-width:2;stroke-linecap:round;stroke-linejoin:round;stroke-miterlimit:10;" x1="310.978" y1="382.855" x2="431.848" y2="382.855"/>
					
						<line style="fill:none;stroke:#000000;stroke-width:2;stroke-linecap:round;stroke-linejoin:round;stroke-miterlimit:10;" x1="322.056" y1="434.199" x2="330.983" y2="365.804"/>
					
						<line style="fill:none;stroke:#000000;stroke-width:2;stroke-linecap:round;stroke-linejoin:round;stroke-miterlimit:10;" x1="420.767" y1="434.199" x2="411.84" y2="365.804"/>
				</g>
				<g>
					<path style="fill:#EED43B;" d="M333.7,346.305v0.475c0,0.764,0.046,1.516,0.125,2.256c-3.659-1.337-7.819-1.572-10.103,1.706
						c-1.537,2.205-0.764,5.181,1.012,7.012c1.849,1.907,4.681,2.785,7.269,3.19c1.782,0.279,3.514,0.282,5.31,0.189
						c0.575-0.03,1.464-0.118,1.915,0.343c0.482,0.493-0.042,1.267-0.336,1.721c-0.271,0.417-0.229,0.822-0.026,1.137h2.137
						c0.315-0.493,0.575-1.037,0.712-1.6c0.963,0.648,1.991,1.184,3.067,1.6h10.546c6.442-2.49,11.077-9.406,11.077-17.554v-0.475
						H333.7z M334.572,358.856c-1.403-0.055-2.784-0.279-4.134-0.655c-2.117-0.59-4.461-1.696-5.036-3.962
						c-0.609-2.399,1.735-3.765,3.903-3.746c1.702,0.015,3.41,0.523,4.996,1.265c0.64,2.612,1.77,4.991,3.273,7.003
						C336.574,358.767,335.561,358.895,334.572,358.856z"/>
					<path style="fill:none;stroke:#111314;stroke-linecap:round;stroke-miterlimit:10;" d="M363.296,349.438
						c-0.866,3.506-2.464,6.839-4.669,9.737"/>
					<path style="fill:none;stroke:#111314;stroke-linecap:round;stroke-miterlimit:10;" d="M357.235,360.912
						c-0.667,0.654-1.429,1.216-2.256,1.664"/>
				</g>
				<g>
					<path style="fill:#2775D9;" d="M378.415,428.328c0.87,0.13,7.396-4.913,6.51-5.473c-1.236-0.781,22.277-1.488,33.5,1.873
						c8.291,2.483,8.633,10.59,8.633,10.59L378.415,428.328z"/>
					<g>
						<g>
							<path style="fill:#61BA89;" d="M419.952,442.284l-41.537-1.783v-14.543l41.537,1.783c4.448,0.215,7.254,3.209,7.106,7.577
								l0,0C427.058,439.333,425.679,442.644,419.952,442.284z"/>
							<g>
								<defs>
									<path id="SVGID_00000082369759164887769990000001908697957362820017_" d="M418.168,441.337l-39.925-1.714v-12.566
										l39.925,1.714c3.514,0.151,6.362,3.086,6.362,6.556l0,0C424.53,438.797,421.681,441.488,418.168,441.337z"/>
								</defs>
								<clipPath id="SVGID_00000129197400886307310590000011814037523892442245_">
									<use xlink:href="#SVGID_00000082369759164887769990000001908697957362820017_"  style="overflow:visible;"/>
								</clipPath>
								<path style="clip-path:url(#SVGID_00000129197400886307310590000011814037523892442245_);fill:#E36D78;" d="
									M418.168,441.337l-39.925-1.714v-12.566l39.925,1.714c3.514,0.151,6.362,3.086,6.362,6.556l0,0
									C424.53,438.797,421.681,441.488,418.168,441.337z"/>
								
									<line style="clip-path:url(#SVGID_00000129197400886307310590000011814037523892442245_);fill:none;stroke:#FFFFFF;stroke-width:0.5;stroke-miterlimit:10;" x1="378.3" y1="429.14" x2="423.796" y2="431.21"/>
								
									<line style="clip-path:url(#SVGID_00000129197400886307310590000011814037523892442245_);fill:none;stroke:#FFFFFF;stroke-width:0.5;stroke-miterlimit:10;" x1="378.3" y1="431.788" x2="424.909" y2="433.862"/>
								
									<line style="clip-path:url(#SVGID_00000129197400886307310590000011814037523892442245_);fill:none;stroke:#FFFFFF;stroke-width:0.5;stroke-miterlimit:10;" x1="378.3" y1="434.436" x2="425.143" y2="436.564"/>
								
									<line style="clip-path:url(#SVGID_00000129197400886307310590000011814037523892442245_);fill:none;stroke:#FFFFFF;stroke-width:0.5;stroke-miterlimit:10;" x1="378.3" y1="437.084" x2="423.796" y2="439.154"/>
								<path style="clip-path:url(#SVGID_00000129197400886307310590000011814037523892442245_);" d="M422.578,430.362v9.761
									c1.193-1.004,1.952-2.528,1.952-4.269v-1.056C424.53,433.058,423.772,431.469,422.578,430.362z"/>
							</g>
							<path style="fill:none;stroke:#FFFFFF;stroke-width:0.5;stroke-miterlimit:10;" d="M372.78,421.606"/>
							<path style="fill:none;stroke:#FFFFFF;stroke-width:0.5;stroke-miterlimit:10;" d="M372.78,423.371"/>
							<polygon points="418.645,428.824 377.07,427.04 377.278,432.389 							"/>
						</g>
					</g>
					<g>
						<g>
							<path d="M379.855,446.798l-5.129-0.36l18.398-42.479l3.125,3.85c0.506,0.624,0.636,1.486,0.332,2.2l-15.523,36.042
								C380.849,446.536,380.369,446.834,379.855,446.798z"/>
							<path style="fill:#EED43B;" d="M374.726,446.438l-29.371-9.032c-0.451-0.139-0.68-0.656-0.485-1.097l17.52-39.661
								c0.154-0.349,0.528-0.534,0.889-0.44l29.844,7.751L374.726,446.438z"/>
							<path style="fill:#2775D9;" d="M372.509,410.767c-1.016,2.346-3.783,3.744-6.179,3.121c-2.397-0.622-3.516-3.029-2.499-5.375
								c1.016-2.346,3.783-3.744,6.179-3.121C372.406,406.014,373.525,408.421,372.509,410.767z"/>
							<polygon points="377.779,430.737 358.622,437.024 373.181,440.403 							"/>
							<polygon style="fill:#E36D78;" points="377.806,428.947 371.361,427.274 378.782,409.784 385.226,411.457 							"/>
							<polygon style="fill:#61BA89;" points="363.896,432.324 353.924,429.734 357.448,421.599 367.419,424.189 							"/>
							
								<line style="fill:none;stroke:#000000;stroke-width:2;stroke-linecap:round;stroke-linejoin:round;stroke-miterlimit:10;" x1="358.622" y1="418.096" x2="368.285" y2="420.606"/>
							
								<line style="fill:none;stroke:#000000;stroke-width:2;stroke-linecap:round;stroke-linejoin:round;stroke-miterlimit:10;" x1="376.44" y1="406.848" x2="386.103" y2="409.357"/>
						</g>
						
							<line style="fill:none;stroke:#E36D78;stroke-linecap:round;stroke-miterlimit:10;" x1="391.804" y1="414.445" x2="382.622" y2="434.832"/>
					</g>
				</g>
			</g>
		</g>
		
			<line style="fill:none;stroke:#000000;stroke-linecap:round;stroke-miterlimit:10;" x1="70.357" y1="430.617" x2="103.777" y2="430.617"/>
	</g>
</g>
</svg>
