<?xml version="1.0" encoding="utf-8"?>
<!-- Generator: Adobe Illustrator 27.5.0, SVG Export Plug-In . SVG Version: 6.00 Build 0)  -->
<svg version="1.1" xmlns="http://www.w3.org/2000/svg" xmlns:xlink="http://www.w3.org/1999/xlink" x="0px" y="0px"
	 viewBox="0 0 500 500" style="enable-background:new 0 0 500 500;" xml:space="preserve">
<g id="BACKGROUND">
	<rect style="fill:#FFFFFF;" width="500" height="500"/>
	<g>
		<path style="fill:#D6F5FF;" d="M248.018,127.149c4.976,17.497,23.905,28.92,42.075,28.046c29.788-1.433,64.834-35.4,43.637-65.599
			c-13.974-19.908-39.117-30.668-61.412-17.968C253.493,82.351,241.968,105.876,248.018,127.149z"/>
		<path style="fill:#D6F5FF;" d="M354.354,65.134c1.535,5.397,7.374,8.921,12.978,8.651c9.188-0.442,19.999-10.919,13.46-20.234
			c-4.31-6.141-12.066-9.46-18.943-5.542C356.043,51.315,352.488,58.572,354.354,65.134z"/>
		<path style="fill:#D6F5FF;" d="M90.821,84.164c-8.366,3.271-13.088,13.115-11.802,22.006c2.11,14.575,20.46,30.201,34.305,18.357
			c9.127-7.808,13.23-20.675,5.936-31.036C113.101,84.742,100.993,80.187,90.821,84.164z"/>
		<path style="fill:#D6F5FF;" d="M62.171,251.724c3.52,12.376,16.908,20.455,29.76,19.836c12.852-0.619,24.584-8.743,31.709-19.457
			c2.078-3.125,3.856-6.59,4.162-10.33c1.465-17.957-21.694-36.531-38.805-33.828C71.331,210.734,57.438,235.08,62.171,251.724z"/>
	</g>
</g>
<g id="OBJECTS">
	<path style="fill:#A3CAC1;" d="M13.656,433.784c-0.998-2.626-3.684-9.515-0.076-11.334c3.179-1.595,5.321,2.909,6.732,4.908
		c1.998,2.829,4.876,5.254,6.081,8.58c-2.075-5.729-3.485-11.824-3.275-17.949c0.17-4.949,1.375-12.398,5.627-15.644
		c2.425-1.851,4.156-0.025,4.758,2.379c2.579,10.292,1.222,21.11-0.149,31.631c1.265-3.456,3.716-6.466,6.845-8.405
		c0.896-0.555,1.992-1.036,2.976-0.656c1.602,0.619,1.632,2.867,1.227,4.535c-1.453,5.988-4.822,11.365-8.826,16.049
		c-2.618,3.063-6.695,6.559-10.028,2.504c-3.501-4.26-7.37-8.336-10.274-13.056C14.903,436.726,14.273,435.407,13.656,433.784z"/>
	<path style="fill:#A3CAC1;" d="M459.701,436.167c-0.388-2.782-1.474-10.096,2.449-11.067c3.454-0.847,4.539,4.021,5.47,6.284
		c1.318,3.202,3.584,6.207,4.018,9.718c-0.747-6.047-0.765-12.303,0.803-18.228c1.267-4.787,4.1-11.781,8.969-13.999
		c2.776-1.265,4.057,0.901,4.109,3.379c0.223,10.608-3.508,20.852-7.188,30.804c2.003-3.088,5.063-5.477,8.544-6.67
		c0.997-0.342,2.173-0.566,3.047,0.023c1.423,0.96,0.953,3.158,0.187,4.694c-2.75,5.514-7.232,10.006-12.178,13.682
		c-3.234,2.403-7.988,4.903-10.334,0.209c-2.465-4.932-5.329-9.768-7.109-15.016C460.262,439.312,459.941,437.886,459.701,436.167z"
		/>
	<polygon style="fill:#A3CAC1;" points="202.033,151.078 208.785,168.038 235.689,123.071 185.241,108.904 191.994,125.864 
		94.945,179.111 	"/>
	<polygon style="fill:#A3CAC1;" points="163.502,307.888 167.656,318.322 184.208,290.658 153.171,281.942 157.326,292.376 
		97.621,325.134 	"/>
	<polygon style="fill:#A3CAC1;" points="361.692,210.894 373.919,241.605 422.638,160.178 331.284,134.522 343.512,165.235 
		167.772,261.656 	"/>
	<g>
		<path style="fill:#A3CAC1;" d="M56.911,395.501c-3.704-5.141-13.571-18.588-6.769-24.654c5.998-5.326,13.289,3.241,17.53,6.774
			c6.001,5.001,13.686,8.607,18.25,15.155c-7.858-11.275-14.483-23.736-17.594-37.206c-2.514-10.884-4.227-27.818,3.149-37.37
			c4.205-5.446,9.041-2.476,11.755,2.413c11.617,20.925,14.962,45.29,18.101,69.016c0.743-8.269,4.331-16.256,10.02-22.303
			c1.629-1.732,3.738-3.418,6.103-3.162c3.851,0.417,5.227,5.296,5.316,9.168c0.321,13.897-3.888,27.575-9.884,40.116
			c-3.92,8.2-10.77,18.193-20.394,11.299c-10.111-7.243-20.917-13.873-29.995-22.466C61.341,401.184,59.2,398.677,56.911,395.501z"
			/>
		<path style="fill:#6B92AA;" d="M79.481,408.1c-2.013-3.454-7.364-12.495-4.313-16.132c2.691-3.193,6.588,2.607,8.795,5.048
			c3.122,3.454,7.004,6.077,9.493,10.47c-4.285-7.565-8.021-15.844-10.092-24.635c-1.674-7.103-3.21-18.068-0.026-23.926
			c1.815-3.34,4.287-1.238,5.809,2.014c6.512,13.922,9.15,29.734,11.662,45.127c0.017-5.293,1.427-10.292,3.938-13.96
			c0.719-1.051,1.673-2.053,2.832-1.795c1.887,0.419,2.758,3.613,2.963,6.109c0.734,8.956-0.741,17.594-3.13,25.429
			c-1.562,5.123-4.473,11.285-9.433,6.471c-5.211-5.058-10.735-9.749-15.5-15.636C81.869,411.932,80.725,410.234,79.481,408.1z"/>
	</g>
	<g>
		<path style="fill:#A3CAC1;" d="M373.336,268.125c-0.49-4.708-1.887-17.091,4.777-18.495c5.867-1.223,7.408,7.04,8.844,10.906
			c2.031,5.472,5.671,10.666,6.195,16.606c-0.902-10.228-0.564-20.767,2.426-30.654c2.416-7.988,7.6-19.601,15.931-23.05
			c4.75-1.967,6.78,1.756,6.722,5.933c-0.249,17.88-7.137,34.915-13.921,51.46c3.555-5.083,8.849-8.926,14.784-10.731
			c1.7-0.517,3.693-0.826,5.13,0.219c2.341,1.701,1.419,5.375,0.038,7.918c-4.957,9.126-12.77,16.427-21.317,22.327
			c-5.588,3.857-13.742,7.788-17.418-0.257c-3.861-8.453-8.401-16.766-11.09-25.71C374.095,273.455,373.639,271.034,373.336,268.125
			z"/>
		<path style="fill:#6B92AA;" d="M383.281,284.681c-0.021-2.987-0.128-10.835,3.201-12.059c2.931-1.069,3.301,4.138,3.824,6.54
			c0.74,3.399,2.281,6.542,2.261,10.314c0.034-6.496,0.691-13.25,2.616-19.718c1.556-5.226,4.635-12.904,8.876-15.517
			c2.418-1.49,3.239,0.791,3.016,3.464c-0.954,11.444-5.122,22.673-9.215,33.583c1.978-3.424,4.75-6.14,7.741-7.584
			c0.857-0.414,1.847-0.709,2.503-0.111c1.067,0.973,0.445,3.367-0.35,5.061c-2.853,6.077-7.02,11.128-11.48,15.318
			c-2.917,2.74-7.094,5.652-8.519,0.688c-1.498-5.215-3.334-10.309-4.234-15.895C383.405,288.051,383.294,286.526,383.281,284.681z"
			/>
	</g>
	<g>
		<path style="fill:#A3CAC1;" d="M226.792,354.444c-1.019-3.931-3.791-14.255,1.682-16.299c4.82-1.789,7.186,5.022,8.898,8.117
			c2.424,4.381,6.177,8.32,7.382,13.291c-2.076-8.56-3.14-17.542-1.87-26.311c1.026-7.085,3.935-17.599,10.559-21.592
			c3.777-2.277,5.976,0.621,6.461,4.171c2.08,15.197-1.579,30.528-5.213,45.43c2.364-4.767,6.362-8.705,11.164-10.996
			c1.376-0.656,3.027-1.174,4.38-0.472c2.204,1.143,1.893,4.377,1.047,6.711c-3.035,8.376-8.726,15.569-15.219,21.668
			c-4.246,3.988-10.658,8.367-14.806,2.014c-4.358-6.674-9.274-13.144-12.701-20.385
			C228.118,358.867,227.421,356.872,226.792,354.444z"/>
		<path style="fill:#6B92AA;" d="M237.348,367.211c-0.4-2.53-1.497-9.174,1.17-10.638c2.349-1.282,3.33,3.087,4.081,5.058
			c1.063,2.788,2.773,5.256,3.239,8.458c-0.803-5.514-1.112-11.327-0.308-17.059c0.65-4.632,2.278-11.539,5.54-14.298
			c1.86-1.573,2.849,0.256,3.002,2.552c0.657,9.829-1.439,19.887-3.512,29.665c1.239-3.158,3.242-5.816,5.594-7.425
			c0.674-0.461,1.476-0.838,2.108-0.415c1.03,0.689,0.809,2.799,0.352,4.337c-1.641,5.52-4.528,10.338-7.775,14.463
			c-2.123,2.697-5.292,5.703-7.138,1.675c-1.939-4.232-4.149-8.316-5.628-12.939C237.885,370.054,237.595,368.775,237.348,367.211z"
			/>
	</g>
	<g>
		<path style="fill:#381F59;" d="M190.009,339.416c-5.746,1.616-11.313,9.158-8.799,17.059c2.514,7.901,11.672,20.651,19.574,23.524
			c7.901,2.873,15.443,0,16.7-5.746c1.257-5.746-3.592-14.007-10.056-15.264c0,0-4.13-7.183-4.13-12.75
			c0-5.567-5.746-5.567-5.746-5.567L190.009,339.416z"/>
		<path style="fill:#ECBAA7;" d="M197.551,325.409c-2.191,2.483-8.081,13.109-9.697,15.802c-1.616,2.694,8.979,13.288,13.109,10.595
			c4.13-2.694,14.546-13.468,16.162-15.982C218.741,333.311,200.244,322.357,197.551,325.409z"/>
		<path style="fill:#EC9580;" d="M197.551,325.409c-1.13,1.281-3.244,4.729-5.249,8.138c0.064,0.069,0.123,0.144,0.189,0.212
			c5.175,5.392,13.087,7.405,20.577,6.795c1.962-2.094,3.513-3.883,4.057-4.729C218.741,333.31,200.245,322.357,197.551,325.409z"/>
		<path style="fill:#381F59;" d="M291.647,319.843c-3.412,2.155-7.003,13.468-2.873,17.957c4.13,4.489,25.32,8.44,33.939,4.489
			c8.62-3.951,1.257-16.521-17.059-16.521L291.647,319.843z"/>
		<path style="fill:#ECBAA7;" d="M295.328,305.418c-1.313,2.806-3.803,13.899-4.544,16.744c-0.742,2.844,11.563,9.567,14.562,6.06
			c2.999-3.507,9.513-15.925,10.302-18.608C316.436,306.93,296.943,301.967,295.328,305.418z"/>
		<path style="fill:#EC9580;" d="M295.328,305.417c-0.616,1.316-1.49,4.456-2.321,7.711c1.444,1.122,3.202,1.784,4.975,2.25
			c3.894,1.024,7.988,1.283,11.98,0.758c1.014-0.133,2.05-0.345,3.023-0.683c1.342-2.628,2.377-4.871,2.662-5.839
			C316.436,306.93,296.943,301.967,295.328,305.417z"/>
		<path style="fill:#381F59;" d="M243.881,216.768c-2.221,4.887-16.521,51.358-20.112,60.336
			c-3.591,8.979-26.577,43.816-28.373,47.767c-1.796,3.951,14.007,16.521,20.471,14.007c6.465-2.514,36.274-35.915,45.252-49.203
			c8.979-13.288,15.443-31.964,15.443-31.964s22.953,8.857,24.781,12.57c1.828,3.713-7.183,29.091-7.901,33.401
			c-0.718,4.31,15.443,12.57,21.908,8.979c6.465-3.591,19.035-47.048,20.112-53.872c1.077-6.824-38.07-30.168-38.07-30.168
			l-6.105-15.443L243.881,216.768z"/>
		<path style="fill:#EBAF52;" d="M282.13,134.613l-11.313,46.599l-4.579,37.172c0,0,11.583,5.926,26.397,2.694l10.236-61.683
			l-2.334-20.022l-10.326-4.489L282.13,134.613z"/>
		<path style="fill:#EB7E2E;" d="M300.822,141.824c-1.442,0.787-2.883,1.575-4.314,2.381c-0.556,0.313-1.11,0.63-1.665,0.945
			c-0.469,0.266-1.06,0.761-1.58,0.897c-1.13,0.294-2.369-1.038-3.206-1.657c-1.926-1.426-3.783-2.936-5.63-4.461
			c-0.911-0.753-1.809-1.523-2.693-2.308c-0.091-0.081-0.181-0.17-0.272-0.255l-0.202,0.833c0.09,0.083,0.185,0.168,0.271,0.251
			c0.955,0.92,1.927,1.825,2.922,2.702c1.91,1.682,3.945,3.241,6.006,4.732c0.757,0.548,1.556,1.316,2.546,1.302
			c1.082-0.015,2.151-0.85,3.079-1.333c1.642-0.856,3.273-1.733,4.903-2.613L300.822,141.824z"/>
		<path style="fill:#42346E;" d="M215.415,217.384c-2.441-2.818-5.853-5.097-9.177-6.732c-3.568-1.755-7.58-3.09-11.363-1.142
			c-1.67,0.86-3.005,2.247-4.118,3.732c-1.227,1.636-2.324,3.394-2.383,5.482c-0.031,1.091,1.344,1.987,2.294,1.316
			c2.386-1.686,3.179-4.752,5.744-6.31c2.729-1.658,5.441-0.569,8.057,0.798c2.625,1.372,5.063,3.102,7.154,5.205
			c0.405,0.407,0.976,0.917,1.13,1.499c0.158,0.598-0.2,1.279-0.398,1.831c-0.62,1.733-1.245,3.453-1.805,5.207
			c-1.005,3.151,4.004,4.534,4.954,1.366c0.655-2.186,1.384-4.422,1.729-6.682C217.557,220.823,216.801,218.983,215.415,217.384z"/>
		<path style="fill:#ECBAA7;" d="M219.277,204.854c-0.988,1.725-0.656,6.893-0.99,10.039c-0.335,3.146-4.05,5.005-5.406,5.373
			c0,0-2.115,2.07-3.218,2.645c-1.103,0.575-3.739-0.693-3.813-2.358c0,0-2.925,0.015-3.234-2.602c0,0-2.115-0.252-2.369-2.781
			c0,0-1.394-0.464-1.426-2.644c-0.033-2.18,0.927-5.109,2.146-6.857c1.218-1.748,2.551-2.346,2.942-3.082
			c0.391-0.736,2.426-5.445,2.426-5.445L219.277,204.854z"/>
		<path style="fill:#381F59;" d="M209.076,272.505l-49.891-24.013c-2.009-0.967-2.854-3.38-1.887-5.39l15.258-31.701
			c0.967-2.009,3.38-2.854,5.389-1.887l49.891,24.013c2.01,0.967,2.854,3.38,1.887,5.39l-15.258,31.701
			C213.498,272.628,211.085,273.472,209.076,272.505z"/>
		<path style="fill:#EC9580;" d="M205.087,199.999c3.226,4.312,7.854,7.57,13.019,9.106c0.144,0.043,0.292,0.074,0.437,0.115
			c0.084-1.852,0.251-3.522,0.734-4.366l-12.943-7.712C206.334,197.141,205.71,198.585,205.087,199.999z"/>
		<path style="fill:#ECBAA7;" d="M356.974,162.975c1.673-0.886,4.035-5.215,5.904-7.577c1.87-2.362,5.806-1.968,7.085-1.574
			c0,0,2.755-0.59,3.936-0.492s2.657,2.46,1.87,3.838c0,0,2.362,1.476,1.279,3.739c0,0,1.574,1.279,0.492,3.444
			c0,0,0.886,1.082-0.197,2.854c-1.082,1.771-3.346,3.641-5.215,4.428c-1.87,0.787-3.247,0.59-3.936,0.984
			c-0.689,0.394-4.723,3.149-4.723,3.149L356.974,162.975z"/>
		<path style="fill:#EC9580;" d="M363.468,175.767c0,0,4.035-2.755,4.723-3.149c0.089-0.051,0.191-0.092,0.303-0.126
			c-3.573-3.455-6.827-7.236-9.721-11.276c-0.645,0.823-1.258,1.472-1.799,1.759L363.468,175.767z"/>
		<path style="fill:#843A1D;" d="M307.693,84.359c0,0,3.745-1.449,2.552-3.166c-1.193-1.717-4.632,0.802-4.632,0.802
			s-2.774-4.573-4.165-3.358c-1.392,1.215,2.172,4.637,2.172,4.637c-16.114-12.578-33.501,6.944-35.325,21.143
			c-1.825,14.199,6.106,25.314,18.932,27.496l-0.048-0.451c0,0,10.501,2.83,20.905,0.496c10.404-2.334,12.03-12.706,12.307-28.565
			C320.666,87.533,307.693,84.359,307.693,84.359z"/>
		<path style="fill:#EB7E2E;" d="M281.947,218.113c-4.561-0.283-8.79-1.592-13.025-3.222c-0.222-0.085-0.354,0.26-0.159,0.376
			c3.94,2.343,8.644,3.447,13.183,3.791c2.375,0.18,4.768,0.123,7.132-0.17c1.299-0.161,2.689-0.352,4.029-0.665l0.232-1.4
			c-1.626,0.417-3.228,0.894-4.926,1.103C286.272,218.19,284.102,218.246,281.947,218.113z"/>
		<path style="fill:#6B2B18;" d="M320.39,103.392c0.012-0.702-0.01-1.371-0.047-2.024c-0.68-0.075-1.358-0.179-2.027-0.329
			c-6.248-1.401-11.66-6.087-13.942-12.069c-7.225,7.098-16.098,14.014-26.214,13.515c-2.505-0.123-5.074-0.758-7.009-2.353
			c-0.52-0.429-0.977-0.942-1.363-1.503c-0.739,1.965-1.254,3.923-1.494,5.789c-1.825,14.199,6.105,25.314,18.932,27.495
			l-0.048-0.451c0,0,10.501,2.83,20.905,0.496C318.487,129.623,320.113,119.251,320.39,103.392z"/>
		<path style="fill:#ECBAA7;" d="M286.709,123.569l-4.579,11.044c0,0,7.093,6.914,11.403,7.811c0,0,6.465-2.514,7.003-3.053
			l1.257-10.415L286.709,123.569z"/>
		<path style="fill:#42346E;" d="M282.13,134.613c0,0-7.313-1.981-15.623-0.269c-8.794,1.811-18.796,7.428-25.859,11.583
			c-13.737,8.081-35.06,48.823-35.556,51.448c-0.496,2.625,13.359,9.096,14.545,8.889c0.946-0.165,17.099-26.01,23.434-33.939
			c4.204-5.261,14.096-9.156,14.096-9.156s-13.826,48.213-17.867,53.331c0,0,12.121,10.774,27.744,11.313
			C267.046,227.811,286.463,153.96,282.13,134.613z"/>
		<path style="fill:#42346E;" d="M300.536,139.372c0,0-2.514,59.618-14.097,90.056c0,0,10.236,4.04,15.623,0.808
			c0,0,6.465-26.397,8.889-49.832c0,0,13.468,14.546,22.626,14.815c9.158,0.269,30.438-17.239,32.054-20.202l-7.722-13.648
			c0,0-20.831,9.338-23.793,10.146c-2.963,0.808-16.162-19.663-19.394-22.896S300.536,139.372,300.536,139.372z"/>
		<path style="fill:#EC9580;" d="M282.369,134.036c4.776,3.131,10.7,4.501,16.361,3.714c0.687-0.096,1.372-0.227,2.049-0.393
			l1.014-8.4l-15.084-5.387L282.369,134.036z"/>
		<path style="fill:#ECBAA7;" d="M279.376,108.108c0,0-5.649-1.359-6.314,3.429c-0.665,4.788,5.566,6.085,5.566,6.085
			s2.481,17.618,17.949,18.906c15.468,1.288,19.878-18.053,19.688-30.807c0,0-10.209-5.39-12.604-11.225
			C303.661,94.495,290.45,106.919,279.376,108.108z"/>
		<path style="fill:#EC9580;" d="M278.398,112.169c-0.48-1.137-1.675-1.847-2.892-1.859c-0.341-0.003-0.627,0.263-0.671,0.592
			c-0.043,0.32,0.156,0.676,0.489,0.75c0.103,0.023,0.204,0.05,0.304,0.083c0.05,0.017,0.101,0.034,0.151,0.052
			c0.025,0.009,0.05,0.018,0.075,0.028c0.052,0.02,0.033,0.012-0.054-0.024c0.087,0.012,0.205,0.1,0.281,0.145
			c0.038,0.022,0.075,0.046,0.112,0.07c0.005,0.004,0.019,0.012,0.035,0.023c-0.001,0.002,0.083,0.064,0.098,0.078
			c0,0,0.001,0.001,0.001,0.001c-0.398,0.235-0.694,0.616-0.848,1.048c-0.305,0.856,0.121,1.843,0.889,2.291
			c0.296,0.173,0.678,0.176,0.973,0C278.426,114.799,278.89,113.335,278.398,112.169z"/>
		<path style="fill:#EC9580;" d="M303.661,94.495c0,0-13.21,12.424-24.285,13.612c0,0-0.538-0.128-1.3-0.167
			c1.331,0.694,2.982,0.81,4.513,0.685c6.574-0.537,15.353-6.56,20.747-12.079c2.439,4.727,8.826,9.251,12.927,10.643
			c0.006-0.497,0.008-0.989,0.001-1.469C316.265,105.721,306.056,100.33,303.661,94.495z"/>
		<path style="fill:#EC9580;" d="M218.388,213.541c-0.013-0.12-0.167-0.145-0.21-0.028c-0.14,0.374-0.192,0.762-0.297,1.146
			c-0.105,0.382-0.222,0.764-0.33,1.146c-0.212,0.744-0.504,1.481-1.004,2.082c-0.525,0.631-1.239,1.139-1.926,1.58
			c-0.555,0.356-1.143,0.647-1.773,0.821c0.169-0.294,0.33-0.59,0.475-0.883c0.458-0.924,0.832-1.892,1.148-2.873
			c0.326-1.015,0.706-2.123,0.709-3.2c0.001-0.28-0.421-0.423-0.552-0.15c-0.441,0.918-0.622,1.962-0.93,2.93
			c-0.311,0.976-0.679,1.93-1.146,2.842c-0.805,1.569-2.108,3.888-4.168,3.794c-0.972-0.045-1.637-0.677-1.798-1.622
			c-0.191-1.121,0.265-2.258,0.595-3.311c0.331-1.055,0.659-2.112,0.997-3.165c0.18-0.561,0.373-1.118,0.557-1.678
			c0.157-0.481,0.377-1.007,0.364-1.517c-0.001-0.057-0.071-0.088-0.112-0.047c-0.626,0.626-0.924,1.74-1.252,2.547
			c-0.404,0.994-0.799,1.992-1.14,3.01c-0.338,1.009-0.826,2.18-0.928,3.319c-0.267-0.024-0.548-0.004-0.808-0.064
			c-0.421-0.098-0.822-0.287-1.12-0.607c-0.794-0.854-0.36-2.302-0.149-3.307c0.241-1.142,0.546-2.27,0.878-3.389
			c0.161-0.542,0.337-1.08,0.529-1.612c0.189-0.525,0.489-1.07,0.494-1.637c0.001-0.091-0.106-0.123-0.169-0.07
			c-0.502,0.424-0.737,1.161-0.995,1.749c-0.28,0.637-0.547,1.282-0.775,1.94c-0.454,1.312-0.784,2.68-1.002,4.052
			c-0.802-0.134-1.365-0.835-1.576-1.594c-0.276-0.995-0.087-2.073,0.107-3.065c0.181-0.923,0.428-1.832,0.72-2.726
			c0.275-0.842,0.749-1.721,0.838-2.605c0.011-0.105-0.13-0.143-0.197-0.081c-0.765,0.708-1.147,1.98-1.473,2.944
			c-0.37,1.098-0.637,2.244-0.793,3.392c-0.04,0.297-0.064,0.599-0.073,0.902c-1.057-1.035-0.92-2.776-0.625-4.109
			c0.166-0.75,0.386-1.495,0.65-2.217c0.274-0.748,0.681-1.505,0.863-2.28c0.014-0.058-0.053-0.093-0.096-0.056
			c-0.671,0.577-1.112,1.517-1.452,2.315c-0.369,0.866-0.649,1.766-0.821,2.692c-0.308,1.661-0.104,3.449,1.334,4.525
			c0.07,0.052,0.138,0.066,0.202,0.064c0.063,0.434,0.175,0.859,0.398,1.252c0.417,0.736,1.089,1.242,1.908,1.396
			c-0.044,0.903,0.145,1.779,0.916,2.383c0.502,0.393,1.55,0.823,2.301,0.665c0.046,0.395,0.146,0.782,0.349,1.148
			c0.742,1.34,2.485,1.615,3.806,1.042c1.111-0.481,1.962-1.405,2.636-2.429c0.845-0.092,1.631-0.39,2.364-0.82
			c0.784-0.458,1.6-1.011,2.187-1.711c0.538-0.642,0.903-1.414,1.121-2.22c0.112-0.414,0.196-0.824,0.204-1.252
			C218.357,214.437,218.436,213.997,218.388,213.541z"/>
		<path style="fill:#EC9580;" d="M378.393,165.221c-0.05-0.302-0.207-0.714-0.484-0.898c0.119-0.179,0.227-0.369,0.306-0.581
			c0.223-0.597,0.241-1.307-0.102-1.863c-0.221-0.358-0.605-0.731-1.035-0.868c0.294-0.351,0.491-0.775,0.502-1.318
			c0.013-0.609-0.212-1.222-0.577-1.705c-0.318-0.422-0.684-0.699-1.134-0.871c0.077-0.104,0.144-0.216,0.196-0.338
			c0.223-0.522,0.08-1.129-0.088-1.649c-0.152-0.471-0.378-0.95-0.744-1.293c-0.411-0.385-0.936-0.521-1.488-0.537
			c-0.724-0.021-1.458,0.036-2.174,0.137c-0.377,0.053-0.752,0.122-1.124,0.209c-0.186,0.043-0.378,0.084-0.564,0.142
			c-0.589-0.16-1.191-0.266-1.765-0.341c-1.496-0.196-3.255-0.296-4.531,0.658c-0.576,0.431-0.984,1.038-1.338,1.655
			c-0.443,0.772-0.878,1.48-1.423,2.185c-0.113,0.147,0.028,0.393,0.214,0.278c1.147-0.706,1.56-2.207,2.471-3.151
			c1.209-1.253,3.28-1.023,4.845-0.744c0.834,0.149,1.653,0.4,2.413,0.777c0.674,0.334,1.589,0.837,1.658,1.686
			c0.086,1.061-1.077,0.973-1.814,0.932c-0.99-0.055-1.961-0.206-2.94-0.351c-0.428-0.063-0.783,0.321-0.566,0.737
			c0.436,0.835,0.502,1.811,0.277,2.719c-0.224,0.905-0.791,1.579-1.245,2.368c-0.167,0.29,0.155,0.538,0.422,0.422
			c0.575-0.249,0.989-0.737,1.284-1.298c0.101,0.171,0.226,0.329,0.379,0.453c0.162,0.13,0.343,0.225,0.532,0.306
			c-0.016,0.01-0.035,0.013-0.048,0.027c-0.418,0.451-0.207,1.245,0.054,1.729c0.298,0.552,0.809,0.933,1.378,1.174
			c-0.029,0.037-0.05,0.083-0.045,0.149c0.083,0.976,0.618,2.111,1.438,2.672c1.015,0.695,2.353,0.437,3.421,0.02
			c1.108-0.432,2.348-1.102,3.049-2.096C378.321,166.304,378.483,165.768,378.393,165.221z M371.083,154.208
			c0.151-0.03,0.301-0.066,0.454-0.09c0.701-0.109,1.436-0.178,2.146-0.123c0.646,0.05,1.097,0.325,1.37,0.92
			c0.222,0.483,0.53,1.281,0.19,1.756c-0.341,0.478-0.946,0.82-1.438,1.121c-0.392,0.241-0.804,0.448-1.223,0.638
			c1.201-0.746,0.908-2.422-0.021-3.279C372.132,154.756,371.626,154.449,371.083,154.208z M370.17,158.748
			c0.632,0.032,1.353,0.079,1.977-0.124c-0.025,0.01-0.049,0.023-0.074,0.033c-1.169,0.454-2.402,0.705-3.653,0.753
			c-0.024-0.301-0.063-0.601-0.136-0.896C368.91,158.631,369.544,158.717,370.17,158.748z M368.475,162.212
			c-0.174-0.148-0.281-0.354-0.338-0.574c0.073-0.214,0.136-0.43,0.182-0.641c0.074-0.336,0.106-0.675,0.116-1.013
			c2.323-0.019,4.638-0.73,6.539-2.075c0.159-0.113,0.318-0.233,0.47-0.361c0.823,0.551,1.59,1.481,1.285,2.517
			c-0.172,0.588-0.73,0.886-1.24,1.147c-0.567,0.291-1.157,0.534-1.764,0.731c-1.181,0.383-2.424,0.625-3.667,0.66
			C369.521,162.618,368.904,162.578,368.475,162.212z M369.41,164.61c-0.129-0.192-0.228-0.42-0.263-0.65
			c-0.038-0.251,0.027-0.492-0.011-0.742c-0.001-0.004-0.004-0.005-0.005-0.009c0.808,0.216,1.745,0.127,2.515,0.03
			c1.336-0.168,2.617-0.546,3.834-1.122c0.415-0.197,0.823-0.418,1.169-0.691c0.452,0.206,0.774,0.424,0.926,0.954
			c0.153,0.531,0.012,1.065-0.297,1.514c-0.647,0.94-1.839,1.326-2.903,1.555c-1.125,0.242-2.41,0.335-3.537,0.052
			C370.283,165.361,369.738,165.099,369.41,164.61z M377.098,166.67c-0.702,0.714-1.647,1.25-2.581,1.595
			c-0.855,0.316-1.906,0.564-2.718,0.005c-0.735-0.505-0.899-1.335-1.206-2.104c1.368,0.416,2.967,0.284,4.317-0.057
			c0.893-0.225,1.826-0.592,2.506-1.217c0.111,0.193,0.241,0.373,0.245,0.632C377.667,165.974,377.401,166.362,377.098,166.67z"/>
		<path style="fill:#42346E;" d="M313.074,325.505c-0.176-0.287-0.526-0.536-0.88-0.505c-1.053,0.094-1.493,1.117-1.954,1.932
			c-0.389,0.686-0.805,1.357-1.249,2.01c-0.429,0.632-0.869,1.26-1.322,1.874c-0.441,0.597-0.933,1.205-1.311,1.921
			c-0.396,0.749,0.409,1.612,1.175,1.175c1.448-0.827,2.573-2.271,3.539-3.601c0.464-0.639,0.902-1.297,1.313-1.972
			C312.852,327.569,313.626,326.406,313.074,325.505z"/>
		<path style="fill:#42346E;" d="M318.213,328.078c-0.18-0.77-1.119-0.898-1.651-0.436c-0.519,0.45-0.724,1.162-0.974,1.779
			c-0.022,0.048-0.108,0.249-0.12,0.276c-0.06,0.135-0.123,0.269-0.187,0.402c-0.12,0.25-0.245,0.497-0.375,0.741
			c-0.27,0.504-0.561,0.998-0.855,1.487c-0.152,0.253-0.318,0.496-0.453,0.758c-0.149,0.289-0.376,0.598-0.429,0.921
			c-0.056,0.342-0.015,0.66,0.242,0.917c0.216,0.216,0.615,0.365,0.917,0.242c0.702-0.285,1.196-0.932,1.637-1.527
			c0.377-0.507,0.706-1.035,1.007-1.591c0.29-0.536,0.551-1.086,0.789-1.647C318.074,329.662,318.404,328.897,318.213,328.078z"/>
		<path style="fill:#42346E;" d="M206.407,356.658c-0.355-0.551-0.968-0.797-1.609-0.655c-0.769,0.171-1.475,0.611-2.195,0.928
			c-0.047,0.02-0.055,0.024-0.079,0.034c-0.116,0.049-0.231,0.098-0.346,0.146c-0.187,0.082-0.371,0.171-0.558,0.254
			c-0.025,0.012-0.22,0.097-0.26,0.115c-0.153,0.065-0.307,0.126-0.461,0.187c-1.319,0.518-2.672,0.943-3.981,1.487
			c-0.894,0.371-0.772,1.585,0.228,1.685c1.545,0.154,3.08-0.098,4.573-0.488c0.695-0.181,1.384-0.384,2.049-0.659
			c0.856-0.354,1.725-0.676,2.417-1.308C206.631,357.977,206.736,357.168,206.407,356.658z"/>
		<path style="fill:#42346E;" d="M209.403,360.089c-0.446-0.41-1.018-0.456-1.555-0.201c-0.404,0.193-0.732,0.558-1.063,0.855
			c-0.135,0.121-0.273,0.24-0.413,0.356c-0.078,0.064-0.157,0.126-0.235,0.19c-0.009,0.007-0.004,0.004-0.01,0.009
			c-0.007,0.005-0.002,0.001-0.013,0.009c-0.627,0.449-1.272,0.862-1.935,1.257c-0.637,0.379-1.318,0.672-1.965,1.031
			c-0.307,0.171-0.673,0.356-0.915,0.614c-0.146,0.156-0.373,0.533-0.197,0.738c0.514,0.6,1.456,0.46,2.152,0.353
			c0.754-0.116,1.484-0.376,2.187-0.667c0.755-0.312,1.465-0.715,2.139-1.175c0.694-0.473,1.63-1.044,2.022-1.814
			C209.854,361.151,209.836,360.487,209.403,360.089z"/>
		<path style="fill:#42346E;" d="M280.753,224.431c-0.028-0.053-0.102-0.057-0.142-0.018c-0.536,0.518-0.601,1.276-0.766,1.982
			c-0.22,0.942-0.408,1.893-0.613,2.838c-0.425,1.962-0.841,3.926-1.264,5.889c-0.032,0.147-0.066,0.294-0.098,0.441
			c-0.039-0.106-0.094-0.205-0.129-0.314c-0.34-1.057-0.523-2.159-0.673-3.257c-0.168-1.23-0.26-2.48-0.287-3.72
			c-0.013-0.593-0.008-1.187,0.027-1.779c0.036-0.621,0.179-1.252-0.068-1.844c-0.078-0.189-0.331-0.316-0.495-0.131
			c-0.408,0.459-0.472,1.002-0.542,1.595c-0.079,0.675-0.128,1.353-0.15,2.032c-0.043,1.381,0.026,2.767,0.187,4.139
			c0.141,1.198,0.401,2.385,0.831,3.514c0.188,0.494,0.453,1.24,0.841,1.817c-0.24,1.062-0.478,2.125-0.701,3.19
			c-0.296,1.413-1.177,3.727-0.469,5.104c0.083,0.162,0.354,0.251,0.507,0.133c1.288-0.991,1.449-3.477,1.763-4.956
			c0.404-1.902,0.726-3.823,1.057-5.739c0.331-1.921,0.633-3.844,0.895-5.776c0.119-0.876,0.248-1.753,0.347-2.631
			C280.901,226.125,281.148,225.184,280.753,224.431z"/>
		<path style="fill:#42346E;" d="M310.338,267.019c-0.768,0.054-1.487,0.358-2.191,0.649c-0.709,0.293-1.413,0.6-2.107,0.928
			c-0.677,0.32-1.346,0.658-2.006,1.014c-0.408,0.22-0.817,0.448-1.214,0.692c-0.761-1.391-2.418-2.314-3.723-3.04
			c-2.524-1.406-5.034-2.848-7.62-4.137c-2.512-1.252-5.037-2.486-7.616-3.595c-1.155-0.497-2.323-0.96-3.504-1.39
			c-0.893-0.325-1.996-0.814-3.005-0.828c0.431-1.234,0.863-2.467,1.252-3.717c0.245-0.786,0.479-1.592,0.641-2.401
			c0.131-0.656,0.298-1.349-0.026-1.96c-0.108-0.204-0.435-0.308-0.631-0.165c-1.013,0.738-1.184,2.643-1.476,3.792
			c-0.396,1.554-0.79,3.112-1.285,4.637c-0.479,1.475-1.015,2.935-1.568,4.384c-0.504,1.32-1.421,2.868-1.3,4.314
			c0.009,0.105,0.131,0.212,0.235,0.135c1.13-0.826,1.618-2.425,2.141-3.672c0.621-1.482,1.194-2.982,1.721-4.5
			c0.015-0.042,0.029-0.085,0.044-0.127c0.655,0.479,1.526,0.745,2.253,1.046c1.28,0.529,2.56,1.053,3.828,1.613
			c2.346,1.035,4.65,2.162,6.904,3.383c2.259,1.224,4.521,2.44,6.771,3.68c2.018,1.111,3.898,1.986,5.052,4.056
			c0.221,0.397,0.623,0.42,0.919,0.238c0.536,0.291,1.088,0.551,1.6,0.892c0.32,0.213,0.651,0.406,0.962,0.633
			c0.158,0.115,0.311,0.214,0.486,0.302c0.236,0.12,0.44,0.142,0.698,0.119c0.202-0.019,0.397-0.162,0.387-0.387
			c-0.012-0.27-0.064-0.507-0.238-0.721c-0.155-0.19-0.328-0.344-0.531-0.483c-0.341-0.234-0.699-0.468-1.08-0.631
			c-0.403-0.172-0.812-0.327-1.233-0.45c-0.042-0.012-0.085-0.021-0.126-0.033c0.327-0.162,0.654-0.324,0.982-0.48
			c0.62-0.297,1.247-0.58,1.882-0.844c0.645-0.268,1.297-0.52,1.955-0.755c0.707-0.253,1.49-0.454,2.126-0.862
			C311.253,267.99,311.084,266.967,310.338,267.019z"/>
		<path style="fill:#42346E;" d="M318.275,306.818c-3.279,0.278-6.578,0.099-9.748-0.825c-2.972-0.866-5.746-2.405-8.393-3.986
			c-1.323-0.79-2.608-1.656-3.742-2.705c-0.505-0.467-0.928-0.99-1.339-1.521c-0.15,0.498-0.294,0.982-0.428,1.437
			c1.182,1.409,2.813,2.593,4.124,3.5c2.734,1.891,5.746,3.61,8.912,4.657c3.318,1.097,6.905,1.397,10.379,1.191
			c0.21-0.012,0.418-0.043,0.628-0.059c0.325-0.573,0.656-1.195,0.991-1.858C319.197,306.707,318.738,306.779,318.275,306.818z"/>
		<path style="fill:#42346E;" d="M218.511,335.394c-3.219-0.773-6.343-1.931-9.212-3.592c-2.722-1.576-5.171-3.599-7.168-6.034
			c-1.015-1.237-1.902-2.593-2.646-4.009c-0.384-0.731-0.675-1.487-0.955-2.248c-0.256,0.417-0.499,0.813-0.73,1.192
			c0.719,2.005,1.886,3.943,3.056,5.525c1.979,2.675,4.463,4.909,7.272,6.686c2.978,1.884,6.289,3.246,9.681,4.176
			c0.215,0.059,0.435,0.099,0.651,0.154c0.558-0.427,1.165-0.921,1.82-1.481C219.69,335.646,219.098,335.534,218.511,335.394z"/>
		<path style="fill:#42346E;" d="M297.792,333.4c-0.083-0.766-0.413-1.504-1.017-2.004c-0.543-0.449-1.164-0.677-1.862-0.739
			c-1.172-0.104-2.438,0.523-3.016,1.556c-0.228,0.407-0.371,0.874-0.359,1.344c0.012,0.476,0.184,0.925,0.408,1.339
			c0.277,0.512,0.617,1.026,1.045,1.423c0.537,0.497,1.235,0.866,1.986,0.837c0.851-0.033,1.543-0.463,2.022-1.152
			c0.236-0.338,0.376-0.699,0.443-1.069C297.708,334.47,297.85,333.939,297.792,333.4z"/>
		<path style="fill:#42346E;" d="M190.525,352.967c-0.389-1.22-1.419-2.12-2.711-2.211c-0.563-0.04-1.186,0.139-1.658,0.444
			c-0.108,0.07-0.198,0.148-0.292,0.226c-0.652,0.438-1.14,1.159-1.279,1.911c-0.129,0.695-0.093,1.408,0.268,2.034
			c0.284,0.493,0.749,0.949,1.264,1.195c0.427,0.203,0.7,0.27,1.162,0.323c0.307,0.035,0.593-0.003,0.9-0.054
			c0.558-0.092,1.088-0.405,1.495-0.789C190.474,355.292,190.863,354.026,190.525,352.967z"/>
		<path style="fill:#381F59;" d="M275.627,144.539l3.692,2.164l-2.928,1.655l3.748,19.045c2.237-13.817,3.436-26.336,1.991-32.789
			c0,0-5.739,0.633-6.503,1.142C274.863,136.264,275.627,144.539,275.627,144.539z"/>
		<path style="fill:#381F59;" d="M305.416,155.741l-3.055-2.801l2.546-0.764c0,0,1.273-6.874,0.891-7.638
			c-0.382-0.764-5.262-5.167-5.262-5.167s-0.54,12.783-2.268,29.53L305.416,155.741z"/>
		<path style="fill:#381F59;" d="M266.149,196.754c-0.508,0.084-0.936,0.518-1.363,0.792c-0.395,0.253-0.8,0.492-1.213,0.714
			c-0.922,0.497-1.889,0.903-2.885,1.227c-0.956,0.311-1.937,0.546-2.93,0.702c-1.016,0.16-2.075,0.089-3.076,0.308
			c-0.511,0.112-0.488,0.886,0,1.011c1.026,0.263,2.198,0.085,3.234-0.051c1.094-0.144,2.174-0.37,3.229-0.694
			c1.019-0.313,2.011-0.715,2.969-1.18c0.513-0.249,1.014-0.521,1.503-0.815c0.46-0.278,1.029-0.545,1.286-1.034
			C267.191,197.186,266.718,196.659,266.149,196.754z"/>
		<path style="fill:#381F59;" d="M303.097,213.31c-0.395-0.657-1.008-1.145-1.54-1.69c-0.508-0.521-0.928-1.09-1.325-1.697
			c-0.407-0.624-0.81-1.231-1.119-1.911c-0.153-0.337-0.336-0.657-0.49-0.994c-0.132-0.288-0.207-0.63-0.412-0.875
			c-0.003-0.004-0.011-0.003-0.013,0.002c-0.148,0.303-0.11,0.689-0.108,1.018c0.002,0.374,0.014,0.753,0.091,1.12
			c0.168,0.797,0.438,1.639,0.827,2.356c0.39,0.717,0.91,1.389,1.457,1.992c0.553,0.609,1.254,1.24,2.081,1.396
			C302.946,214.101,303.331,213.698,303.097,213.31z"/>
		<path style="fill:#381F59;" d="M223.507,200.971c-2.472-0.804-4.853-1.853-7.216-2.931c-1.959-0.893-3.943-1.772-5.799-2.87
			c-1.035-0.612-2.014-1.307-2.929-2.089c-0.128-0.109-0.25-0.233-0.372-0.359c-0.144,0.287-0.289,0.575-0.42,0.84
			c0.105,0.099,0.209,0.195,0.301,0.285c0.775,0.754,1.667,1.402,2.572,1.99c2.049,1.329,4.284,2.338,6.493,3.365
			c2.187,1.017,4.399,1.998,6.68,2.788C223.04,201.664,223.27,201.324,223.507,200.971z"/>
		<path style="fill:#381F59;" d="M358.375,173.822c-1.72-3.471-3.488-6.9-5.41-10.252c-0.176,0.078-0.36,0.159-0.542,0.24
			c1.437,3.455,2.946,6.876,4.438,10.312c0.958,2.205,1.886,4.424,2.848,6.628c0.496-0.413,0.974-0.817,1.422-1.205
			C360.239,177.624,359.316,175.719,358.375,173.822z"/>
		<path style="fill:#381F59;" d="M313.254,169.668c-0.063,0.027-0.13,0.05-0.191,0.082c-0.067,0.035-0.122,0.084-0.178,0.135
			c-0.094,0.087-0.186,0.176-0.275,0.269c-0.14,0.144-0.266,0.3-0.392,0.456c-0.058-0.945-0.178-1.881-0.4-2.791
			c-0.005-0.02-0.03-0.013-0.032,0.004c-0.183,1.367-0.278,2.748-0.359,4.13c-0.006,0.025-0.002,0.052-0.004,0.077
			c-0.072,1.237-0.135,2.474-0.239,3.704c-0.11,1.292-0.249,2.582-0.403,3.87c-0.153,1.281-0.54,2.73-0.37,4.015
			c0.048,0.364,0.489,0.431,0.631,0.085c0.471-1.146,0.471-2.57,0.615-3.791c0.163-1.391,0.311-2.784,0.424-4.18
			c0.107-1.317,0.197-2.672,0.18-4.021c0.11-0.209,0.231-0.412,0.363-0.607c0.127-0.188,0.259-0.363,0.405-0.535
			c0.075-0.088,0.152-0.174,0.232-0.258c0.098-0.103,0.167-0.206,0.236-0.331C313.576,169.836,313.437,169.591,313.254,169.668z"/>
		<path style="fill:#381F59;" d="M259.437,156.063c-0.031-0.163-0.236-0.147-0.316-0.041c-0.27,0.357-0.368,0.791-0.493,1.214
			c-0.019,0.066-0.037,0.131-0.057,0.197c-0.058-0.185-0.125-0.366-0.192-0.548c-0.035-0.095-0.07-0.191-0.107-0.286
			c-0.045-0.116-0.123-0.206-0.197-0.305c-0.1-0.132-0.29-0.087-0.307,0.083c-0.012,0.123-0.03,0.24-0.009,0.363
			c0.017,0.1,0.039,0.199,0.059,0.299c0.042,0.214,0.081,0.427,0.139,0.637c0.053,0.195,0.107,0.391,0.16,0.586
			c0.022,0.083,0.07,0.194,0.131,0.293c-0.008,0.03-0.017,0.061-0.026,0.091c-0.252,0.909-0.517,1.814-0.796,2.716
			c-0.568,1.836-1.162,3.658-1.648,5.517c-0.077,0.296,0.373,0.512,0.512,0.216c0.83-1.776,1.448-3.616,1.98-5.5
			c0.266-0.941,0.518-1.887,0.755-2.836C259.23,157.941,259.596,156.909,259.437,156.063z"/>
		<path style="fill:#6B2B18;" d="M295.262,106.395c-0.104-0.334-0.244-0.663-0.487-0.921c-0.207-0.22-0.489-0.408-0.755-0.555
			c-0.551-0.304-1.139-0.47-1.763-0.528c-1.18-0.109-2.638,0.406-3.255,1.462c-0.176,0.301-0.137,0.746,0.128,0.989
			c0.279,0.256,0.652,0.298,0.989,0.128c0.046-0.023,0.092-0.045,0.138-0.068c-0.183,0.092,0.111-0.045,0.143-0.062
			c0.093-0.047,0.176-0.112,0.266-0.165c0.098-0.058,0.2-0.106,0.302-0.157c0.004-0.001,0,0.001,0.005-0.001
			c0.05-0.014,0.099-0.035,0.148-0.051c0.1-0.032,0.201-0.058,0.304-0.08c0.052-0.011,0.103-0.021,0.154-0.031
			c0.007-0.002,0.028-0.006,0.05-0.01c0.03-0.004,0.069-0.009,0.08-0.01c0.052-0.004,0.105-0.007,0.157-0.009
			c0.118-0.004,0.234,0.002,0.352,0.009c0.022,0.001,0.025,0.001,0.035,0.001c0.036,0.008,0.074,0.018,0.084,0.02
			c0.1,0.021,0.199,0.047,0.296,0.077c0.074,0.023,0.314,0.127,0.125,0.036c0.092,0.044,0.185,0.087,0.274,0.137
			s0.174,0.107,0.26,0.162c0.02,0.013,0.019,0.011,0.028,0.017c0.081,0.064,0.161,0.133,0.248,0.188
			c0.176,0.112,0.368,0.195,0.549,0.299C294.69,107.604,295.469,107.055,295.262,106.395z"/>
		<path style="fill:#6B2B18;" d="M309.702,106.69c-0.468-0.33-0.998-0.564-1.56-0.672c-0.549-0.105-1.146-0.077-1.685,0.068
			c-0.598,0.161-1.32,0.557-1.51,1.189c-0.085,0.283,0.059,0.699,0.419,0.701c0.126,0.001,0.255,0.016,0.379-0.006
			c0.083-0.014,0.164-0.046,0.244-0.072c0.023-0.007,0.075-0.022,0.092-0.028c0.196-0.048,0.395-0.076,0.592-0.123
			c0.111-0.027,0.223-0.048,0.336-0.063c0.05-0.007,0.101-0.012,0.151-0.017c-0.001,0,0.083-0.004,0.122-0.006
			c0.028,0.001,0.059,0.001,0.067,0.002c0.063,0.003,0.126,0.007,0.189,0.014c0.113,0.012,0.222,0.037,0.334,0.053
			c0.004,0.001,0.001,0,0.004,0c0.036,0.01,0.072,0.019,0.108,0.03c0.098,0.029,0.195,0.063,0.29,0.102
			c0.091,0.037,0.177,0.081,0.266,0.123c0.047,0.032,0.096,0.06,0.143,0.091c0.085,0.058,0.167,0.119,0.247,0.184
			c0.033,0.027,0.065,0.057,0.098,0.084c0.166,0.185,0.328,0.444,0.539,0.57c0.292,0.173,0.607,0.218,0.91,0.032
			c0.274-0.169,0.435-0.492,0.384-0.816C310.771,107.552,310.159,107.013,309.702,106.69z"/>
		<path style="fill:#381F59;" d="M293.583,111.003c-0.201-0.789-0.873-1.499-1.748-1.385c-0.378,0.049-0.678,0.22-0.917,0.459
			c-0.516,0.37-0.776,1.024-0.921,1.652c-0.17,0.735-0.13,1.501,0.057,2.227c0.12,0.465,0.415,0.842,0.833,1.077
			c0.404,0.227,0.938,0.227,1.364,0.06c0.81-0.318,1.192-1.139,1.385-1.932C293.81,112.449,293.763,111.707,293.583,111.003z"/>
		<path style="fill:#381F59;" d="M308.435,112.955c-0.201-0.789-0.873-1.499-1.748-1.385c-0.378,0.049-0.678,0.22-0.917,0.459
			c-0.516,0.37-0.776,1.024-0.921,1.653c-0.17,0.735-0.13,1.501,0.057,2.227c0.12,0.465,0.415,0.842,0.833,1.077
			c0.404,0.227,0.938,0.227,1.364,0.06c0.81-0.318,1.192-1.139,1.385-1.932C308.662,114.401,308.614,113.659,308.435,112.955z"/>
		<path style="fill:#EC9580;" d="M300.955,118.188c-0.211-0.273-0.56-0.262-0.811-0.055c-0.011,0.009-0.07,0.054-0.026,0.022
			c-0.031,0.023-0.063,0.045-0.095,0.066c-0.064,0.042-0.13,0.082-0.198,0.118c-0.138,0.073-0.21,0.102-0.382,0.15
			c-0.146,0.041-0.274,0.063-0.376,0.071c-0.077,0.005-0.154,0.007-0.23,0.005c-0.038-0.001-0.077-0.003-0.115-0.005
			c-0.007,0-0.057-0.006-0.074-0.007c-0.587-0.084-0.983-0.407-1.442-0.775c-0.128-0.102-0.289-0.144-0.439-0.057
			c-0.127,0.075-0.226,0.263-0.167,0.409c0.082,0.204,0.163,0.39,0.319,0.548c0.142,0.143,0.303,0.271,0.469,0.384
			c0.308,0.21,0.671,0.364,1.037,0.436c0.82,0.162,1.701-0.013,2.378-0.513C301.062,118.794,301.17,118.466,300.955,118.188z"/>
		<path style="fill:#EC9580;" d="M301.284,123.093c-0.578-0.192-1.211,0.075-1.778,0.221c-0.524,0.134-1.082,0.173-1.618,0.095
			c-1.132-0.163-2.025-0.766-2.959-1.372c-0.264-0.172-0.698,0.12-0.568,0.437c0.519,1.273,1.863,2.13,3.176,2.399
			c0.746,0.153,1.49,0.154,2.24,0.028c0.709-0.119,1.657-0.482,1.813-1.271C301.637,123.389,301.522,123.172,301.284,123.093z"/>
		<path style="fill:#FFFFFF;" d="M290.861,109.509c-1.229,0-1.231,1.91,0,1.91C292.09,111.419,292.092,109.509,290.861,109.509z"/>
		<path style="fill:#FFFFFF;" d="M306.052,111.461c-1.229,0-1.231,1.91,0,1.91C307.281,113.371,307.283,111.461,306.052,111.461z"/>
		<path style="fill:#42346E;" d="M206.199,234.503c-1.147-0.96-2.731-1.474-4.086-2.101c-1.343-0.621-2.686-1.246-4.028-1.869
			c-1.345-0.625-2.693-1.235-4.051-1.829c-1.388-0.607-2.797-1.339-4.3-1.594c-0.711-0.121-1.425,0.08-1.808,0.736
			c-0.337,0.576-0.287,1.489,0.25,1.94c1.172,0.984,2.525,1.614,3.892,2.281c1.33,0.65,2.666,1.281,4.01,1.901
			c1.345,0.62,2.689,1.239,4.033,1.861c0.672,0.311,1.343,0.622,2.015,0.933c0.709,0.328,1.453,0.787,2.223,0.919
			c0.843,0.145,1.692-0.096,2.147-0.874C206.896,236.124,206.838,235.038,206.199,234.503z"/>
		<path style="fill:#42346E;" d="M199.828,237.55c-1.474-0.714-3.033-1.29-4.547-1.912c-0.738-0.303-1.473-0.617-2.217-0.904
			c-0.751-0.289-1.488-0.598-2.3-0.648c-0.33-0.02-0.488,0.421-0.265,0.64c0.579,0.57,1.314,0.912,2.03,1.277
			c0.712,0.362,1.438,0.699,2.158,1.046c1.478,0.711,2.951,1.476,4.47,2.095C200.066,239.515,200.714,237.979,199.828,237.55z"/>
	</g>
	<g>
		<g>
			<path style="fill:#42346E;" d="M434.491,327.464L434.491,327.464c-1.231,0-2.23-0.998-2.23-2.229V84.368
				c0-1.231,0.998-2.23,2.23-2.23l0,0c1.231,0,2.229,0.998,2.229,2.23v240.867C436.721,326.465,435.723,327.464,434.491,327.464z"/>
			<path style="fill:#9CB3E7;" d="M379.389,130.426h57.907c0.976,0,1.766-0.791,1.766-1.766V86.784c0-0.976-0.791-1.766-1.766-1.766
				h-57.907c-1.407,0-2.25,1.566-1.474,2.74l12.544,18.991c0.39,0.59,0.39,1.357,0,1.947l-12.544,18.991
				C377.139,128.86,377.981,130.426,379.389,130.426z"/>
			<path style="fill:#7695CC;" d="M439.062,128.659V86.784c0-0.975-0.791-1.766-1.766-1.766h-5.722
				c-0.975,0-1.766,0.791-1.766,1.766v41.875c0,0.976,0.791,1.766,1.766,1.766h5.722
				C438.271,130.426,439.062,129.635,439.062,128.659z"/>
		</g>
		<g>
			<path style="fill:#EBAF52;" d="M344.823,304.267v36.167h-83.679c-4.733,0-8.571,3.837-8.571,8.57v27.118h-83.679
				c-4.733,0-8.57,3.837-8.57,8.57v26.459H76.644c-4.733,0-8.571,3.837-8.571,8.57v26.459h92.25h92.25h92.25h92.25V295.696h-83.679
				C348.66,295.696,344.823,299.533,344.823,304.267z"/>
			<polygon style="fill:#EB7E2E;" points="437.072,295.696 453.558,309.306 453.558,446.182 437.072,446.182 			"/>
		</g>
	</g>
	<path style="fill:#EBAF52;" d="M148.315,45.367l1.219,2.888c0.081,0.192,0.261,0.323,0.469,0.34l3.123,0.267
		c0.494,0.042,0.694,0.658,0.319,0.982l-2.37,2.052c-0.157,0.136-0.226,0.348-0.179,0.551l0.711,3.053
		c0.113,0.483-0.411,0.863-0.835,0.607l-2.684-1.62c-0.178-0.108-0.401-0.108-0.579,0l-2.684,1.62
		c-0.424,0.256-0.948-0.124-0.836-0.607l0.712-3.053c0.047-0.203-0.022-0.415-0.179-0.551l-2.37-2.052
		c-0.375-0.325-0.175-0.94,0.319-0.982l3.123-0.267c0.207-0.018,0.388-0.149,0.469-0.34l1.219-2.888
		C147.475,44.91,148.122,44.91,148.315,45.367z"/>
	<path style="fill:#EBAF52;" d="M461.594,236.618l1.219,2.888c0.081,0.192,0.261,0.323,0.469,0.341l3.123,0.267
		c0.494,0.042,0.694,0.658,0.319,0.982l-2.37,2.052c-0.157,0.136-0.226,0.348-0.179,0.551l0.712,3.053
		c0.112,0.483-0.411,0.863-0.836,0.607l-2.684-1.62c-0.178-0.108-0.401-0.108-0.579,0l-2.684,1.62
		c-0.424,0.256-0.948-0.124-0.836-0.607l0.712-3.053c0.047-0.203-0.022-0.415-0.179-0.551l-2.37-2.052
		c-0.375-0.325-0.175-0.94,0.319-0.982l3.123-0.267c0.207-0.018,0.388-0.149,0.469-0.341l1.219-2.888
		C460.754,236.161,461.401,236.161,461.594,236.618z"/>
	<path style="fill:#EBAF52;" d="M47.99,163.975l1.545,3.661c0.102,0.243,0.331,0.409,0.594,0.432l3.96,0.338
		c0.626,0.053,0.88,0.834,0.405,1.245l-3.005,2.601c-0.2,0.173-0.287,0.442-0.227,0.698l0.902,3.87
		c0.143,0.612-0.521,1.094-1.059,0.77l-3.402-2.054c-0.226-0.136-0.509-0.136-0.735,0l-3.402,2.054
		c-0.538,0.325-1.202-0.158-1.059-0.77l0.902-3.87c0.06-0.257-0.028-0.526-0.227-0.698l-3.005-2.601
		c-0.475-0.411-0.222-1.192,0.405-1.245l3.96-0.338c0.263-0.022,0.492-0.189,0.594-0.432l1.545-3.661
		C46.925,163.396,47.745,163.396,47.99,163.975z"/>
	<path style="fill:#EBAF52;" d="M423.766,53.041l1.545,3.661c0.103,0.243,0.331,0.409,0.594,0.432l3.96,0.338
		c0.626,0.054,0.88,0.834,0.405,1.245l-3.005,2.601c-0.199,0.173-0.287,0.442-0.227,0.699l0.902,3.87
		c0.143,0.612-0.521,1.094-1.059,0.77l-3.402-2.054c-0.226-0.136-0.509-0.136-0.735,0l-3.402,2.054
		c-0.538,0.325-1.202-0.158-1.059-0.77l0.902-3.87c0.06-0.257-0.027-0.526-0.227-0.699l-3.005-2.601
		c-0.475-0.411-0.222-1.192,0.405-1.245l3.96-0.338c0.263-0.022,0.492-0.189,0.594-0.432l1.545-3.661
		C422.701,52.462,423.522,52.462,423.766,53.041z"/>
	<path style="fill:#EBAF52;" d="M154.4,351.433l1.545,3.661c0.103,0.243,0.331,0.409,0.594,0.432l3.96,0.338
		c0.626,0.053,0.88,0.834,0.405,1.245l-3.005,2.601c-0.199,0.173-0.287,0.442-0.227,0.699l0.902,3.87
		c0.143,0.612-0.521,1.094-1.059,0.77l-3.402-2.054c-0.226-0.136-0.509-0.136-0.735,0l-3.402,2.054
		c-0.538,0.325-1.202-0.158-1.059-0.77l0.902-3.87c0.06-0.257-0.028-0.526-0.227-0.699l-3.005-2.601
		c-0.475-0.411-0.222-1.192,0.405-1.245l3.96-0.338c0.263-0.022,0.492-0.189,0.594-0.432l1.545-3.661
		C153.335,350.854,154.155,350.854,154.4,351.433z"/>
	<g>
		<rect y="445.845" style="fill:#A3CAC1;" width="500" height="54.155"/>
		<path style="fill:#6B92AA;" d="M462.765,459.111H37.235c-3.663,0-6.633-2.97-6.633-6.633l0,0c0-3.663,2.97-6.633,6.633-6.633
			h425.529c3.663,0,6.633,2.97,6.633,6.633l0,0C469.397,456.141,466.428,459.111,462.765,459.111z"/>
		<path style="fill:#6B92AA;" d="M22.809,468.784c-0.246-0.258-0.461-0.546-0.725-0.784c-0.524-0.472-1.003-0.991-1.434-1.548
			c0.114,0.148,0.228,0.295,0.342,0.443c-0.369-0.484-0.78-0.929-1.154-1.408c0.016,0.021,0.033,0.042,0.049,0.063
			c-0.217-0.272-0.445-0.489-0.788-0.634c-0.083-0.035-0.174-0.065-0.268-0.091c-0.319-0.186-0.677-0.26-1.064-0.154
			c-0.421,0.116-0.901,0.508-0.968,0.969c-0.001,0.005-0.001,0.01-0.002,0.015c-0.044,0.079-0.087,0.158-0.116,0.245
			c-0.171,0.405-0.177,0.777-0.094,1.212c0.125,0.653,0.295,1.273,0.572,1.88c0.21,0.46,0.45,0.906,0.718,1.334
			c0.354,0.566,0.739,1.125,1.241,1.568c0.262,0.23,0.536,0.444,0.812,0.657c0.31,0.24,0.63,0.402,1.011,0.516
			c0.458,0.137,0.913,0.121,1.376,0.026c0.172-0.073,0.344-0.145,0.517-0.218c0.252-0.136,0.454-0.322,0.607-0.557
			c0.29-0.375,0.469-0.826,0.464-1.311C23.897,470.099,23.407,469.412,22.809,468.784z"/>
		<path style="fill:#6B92AA;" d="M85.182,484.936c-0.231-0.561-0.469-1.114-0.776-1.638c-0.293-0.5-0.725-0.97-1.135-1.383
			c-0.394-0.397-0.825-0.808-1.329-1.05c-0.293-0.141-0.593-0.267-0.895-0.388c-0.46-0.184-0.886-0.204-1.315,0.018
			c-0.18,0.018-0.341,0.087-0.47,0.255c-0.129,0.167-0.177,0.388-0.13,0.592c-0.045,0.334,0.007,0.657,0.207,0.955
			c0.078,0.117,0.154,0.237,0.227,0.358c0.068,0.113,0.134,0.228,0.197,0.345c0.137,0.253,0.274,0.458,0.459,0.693
			c-0.088-0.114-0.176-0.228-0.264-0.341c0.342,0.446,0.644,0.919,0.902,1.418c0.235,0.455,0.486,0.899,0.698,1.365
			c0.065,0.173,0.15,0.334,0.276,0.471c0.135,0.208,0.314,0.373,0.537,0.493c0.41,0.24,1.015,0.342,1.475,0.193
			c0.463-0.15,0.91-0.437,1.144-0.88C85.213,485.987,85.373,485.4,85.182,484.936z"/>
		<path style="fill:#6B92AA;" d="M88.969,482.897c-0.05-0.184-0.112-0.361-0.152-0.549c-0.063-0.299-0.133-0.598-0.185-0.899
			c-0.021-0.231-0.039-0.462-0.094-0.689c-0.022-0.092-0.048-0.183-0.067-0.275c-0.003-0.013-0.005-0.027-0.008-0.04
			c-0.012-0.161-0.023-0.32-0.02-0.482c0.002-0.095,0.013-0.188,0.017-0.283c0.01-0.255-0.075-0.436-0.195-0.626
			c-0.006-0.303-0.346-0.482-0.622-0.38c-0.278-0.046-0.615,0.074-0.793,0.267c-0.307,0.333-0.575,0.703-0.802,1.095
			c-0.137,0.236-0.308,0.536-0.373,0.794c-0.072,0.288-0.097,0.596-0.114,0.893c-0.029,0.509,0.011,1.032,0.181,1.514
			c0.103,0.294,0.214,0.596,0.365,0.868c0.242,0.435,0.684,0.734,1.146,0.888c0.725,0.241,1.489-0.281,1.701-0.966
			C89.059,483.688,89.06,483.234,88.969,482.897z"/>
		<path style="fill:#6B92AA;" d="M197.816,480.801c-0.149-0.438-0.365-0.726-0.656-1.086c-0.073-0.09-0.146-0.181-0.219-0.271
			c-0.299-0.37-0.582-0.766-0.906-1.115c-0.313-0.338-0.652-0.655-0.977-0.982c-0.434-0.437-0.962-0.698-1.495-0.99
			c-0.522-0.287-1.154-0.251-1.627,0.115c-0.453,0.35-0.694,0.974-0.525,1.54c0.164,0.551,0.29,1.143,0.605,1.628
			c0.258,0.397,0.507,0.802,0.774,1.193c0.343,0.501,0.759,0.965,1.14,1.438c0.207,0.257,0.391,0.49,0.655,0.694
			c0.32,0.247,0.755,0.514,1.149,0.6c0.576,0.126,1.105,0.039,1.574-0.323c0.445-0.344,0.712-0.845,0.712-1.418
			C198.021,481.476,197.927,481.128,197.816,480.801z"/>
		<path style="fill:#6B92AA;" d="M203.182,477.2c-0.093-0.429-0.186-0.858-0.279-1.288c-0.023-0.108-0.046-0.214-0.081-0.319
			c-0.126-0.356-0.163-0.422-0.108-0.198c-0.014-0.034-0.027-0.068-0.041-0.102c-0.097-0.191-0.14-0.395-0.274-0.569
			c-0.076-0.117-0.176-0.209-0.301-0.276c-0.014-0.006-0.02-0.008-0.033-0.014c-0.006-0.01-0.013-0.02-0.019-0.029
			c-0.238-0.365-0.74-0.365-0.978,0c-0.006,0.01-0.013,0.02-0.019,0.029c-0.013,0.005-0.019,0.008-0.033,0.014
			c-0.072,0.056-0.145,0.112-0.217,0.167c-0.183,0.168-0.248,0.404-0.337,0.626c-0.02,0.051-0.041,0.102-0.062,0.154
			c0.043-0.169,0.029-0.155-0.042,0.041c-0.06,0.143-0.103,0.272-0.135,0.422c-0.097,0.447-0.193,0.894-0.29,1.341
			c-0.122,0.565-0.151,1.124-0.181,1.698c-0.012,0.228-0.031,0.455-0.02,0.682c0.018,0.366,0.101,0.773,0.171,1.138
			c0.136,0.704,0.948,1.29,1.653,1.258c0.714-0.032,1.507-0.503,1.653-1.258c0.113-0.587,0.185-1.166,0.154-1.763
			C203.335,478.363,203.308,477.783,203.182,477.2z"/>
		<path style="fill:#6B92AA;" d="M337.681,472.45c-0.194-0.327-0.402-0.635-0.684-0.895c-0.18-0.166-0.352-0.332-0.539-0.49
			c-0.365-0.309-0.694-0.658-0.987-1.035c0.118,0.153,0.236,0.306,0.354,0.459c-0.223-0.293-0.461-0.571-0.694-0.853
			c-0.239-0.324-0.458-0.662-0.637-1.024c-0.198-0.4-0.728-0.793-1.158-0.891c-0.433-0.099-0.851-0.076-1.262,0.098
			c-0.372,0.157-0.733,0.426-0.927,0.793c-0.065,0.154-0.13,0.309-0.195,0.463c-0.092,0.344-0.092,0.687,0,1.03
			c0.066,0.446,0.174,0.884,0.328,1.308c0.132,0.362,0.284,0.718,0.447,1.067c0.168,0.359,0.464,0.674,0.708,0.978
			c0.277,0.345,0.589,0.664,0.929,0.947c0.323,0.269,0.629,0.492,1.004,0.669c0.34,0.161,0.638,0.283,1.005,0.332
			c0.208,0.028,0.385,0.043,0.59,0.039c0.706-0.016,1.359-0.37,1.719-0.986C338.039,473.849,338.044,473.061,337.681,472.45z"/>
		<path style="fill:#6B92AA;" d="M344.642,470.618c-0.044-0.491-0.088-0.981-0.132-1.471c-0.012-0.132-0.022-0.264-0.035-0.396
			c-0.026-0.254-0.082-0.413-0.19-0.638c0.037,0.077-0.07-0.169-0.069-0.167c-0.064-0.159-0.155-0.262-0.269-0.352
			c-0.005-0.048-0.01-0.096-0.014-0.145c-0.023-0.235-0.39-0.416-0.51-0.138c-0.026,0.061-0.052,0.121-0.078,0.182
			c-0.22,0.086-0.344,0.244-0.518,0.432c-0.226,0.244-0.335,0.515-0.463,0.82c-0.2,0.476-0.4,0.952-0.599,1.428
			c-0.19,0.453-0.336,0.932-0.434,1.414c-0.169,0.833-0.286,1.927,0.443,2.525c0.368,0.301,0.892,0.561,1.382,0.365
			c0.296-0.118,0.576-0.21,0.8-0.454c0.219-0.239,0.36-0.508,0.446-0.823c0.069-0.254,0.126-0.52,0.169-0.779
			C344.668,471.836,344.695,471.208,344.642,470.618z"/>
		<path style="fill:#6B92AA;" d="M476.028,482.277c-0.027-0.117-0.062-0.23-0.108-0.345c0.026,0.061,0.051,0.122,0.077,0.183
			c-0.044-0.106-0.085-0.207-0.129-0.306c-0.02-0.046-0.038-0.09-0.059-0.139c0.019,0.045,0.038,0.091,0.057,0.136
			c-0.073-0.166-0.159-0.321-0.278-0.469c-0.049-0.076-0.094-0.154-0.157-0.222c-0.154-0.238-0.359-0.426-0.614-0.564
			c-0.021-0.014-0.043-0.029-0.064-0.044c-0.093-0.065-0.191-0.113-0.29-0.168c-0.139-0.077-0.268-0.169-0.398-0.26
			c-0.125-0.107-0.253-0.211-0.389-0.286c-0.096-0.053-0.197-0.099-0.293-0.153c-0.105-0.059-0.202-0.132-0.302-0.2
			c-0.119-0.104-0.241-0.206-0.349-0.323c-0.12-0.093-0.241-0.186-0.362-0.279c-0.205-0.13-0.426-0.201-0.664-0.212
			c-0.381-0.051-0.806-0.003-1.139,0.212c-0.258,0.167-0.474,0.383-0.641,0.641c-0.259,0.401-0.276,0.927-0.18,1.376
			c0.092,0.433,0.261,0.828,0.436,1.234c0.154,0.356,0.345,0.671,0.583,0.979c0.197,0.255,0.263,0.308,0.518,0.505
			c0.13,0.101,0.259,0.204,0.394,0.298c0.12,0.084,0.245,0.162,0.373,0.234c0.275,0.154,0.582,0.309,0.879,0.4
			c0.065,0.02,0.132,0.034,0.2,0.047c0.291,0.091,0.582,0.104,0.873,0.039c0.155-0.001,0.3-0.04,0.439-0.102
			c0.228-0.039,0.45-0.104,0.64-0.232c0.03-0.02,0.058-0.043,0.087-0.064c0.273-0.162,0.491-0.379,0.653-0.653
			c0.006-0.013,0.01-0.026,0.016-0.038C476.106,483.145,476.179,482.692,476.028,482.277z"/>
		<path style="fill:#6B92AA;" d="M483.537,484.047c-0.005-0.034-0.011-0.068-0.016-0.102c-0.027-0.172-0.094-0.326-0.155-0.488
			c-0.087-0.309-0.243-0.578-0.47-0.806c-0.228-0.226-0.496-0.383-0.806-0.469c-0.324-0.087-0.647-0.087-0.971,0
			c-0.309,0.087-0.578,0.243-0.806,0.469c-0.188,0.234-0.415,0.466-0.555,0.727c-0.037,0.069-0.072,0.14-0.106,0.211
			c-0.086,0.18-0.199,0.393-0.226,0.592c-0.007,0.046-0.013,0.093-0.02,0.139c-0.023,0.167-0.047,0.335-0.07,0.502
			c-0.013,0.093-0.026,0.186-0.039,0.279c-0.036,0.255-0.108,0.524-0.082,0.783c0.025,0.185,0.049,0.369,0.074,0.553
			c0.064,0.271,0.189,0.507,0.373,0.708c0.092,0.157,0.217,0.281,0.374,0.374c0.201,0.184,0.437,0.308,0.708,0.373
			c0.09,0.032,0.131,0.023,0.271,0.042c0.13,0.017,0.184,0.034,0.283,0.033c0.376-0.001,0.726-0.096,1.051-0.284
			c0.313-0.185,0.562-0.434,0.747-0.747c0.103-0.235,0.225-0.46,0.273-0.711c0.016-0.083,0.029-0.166,0.044-0.248
			c0.031-0.175,0.062-0.349,0.093-0.524c0.03-0.168,0.054-0.334,0.077-0.504C483.638,484.525,483.619,484.576,483.537,484.047z"/>
		<path style="fill:#6B92AA;" d="M487.639,460.666c-0.169-0.407-0.316-0.833-0.546-1.208c-0.224-0.367-0.495-0.692-0.768-1.022
			c-0.21-0.254-0.419-0.507-0.629-0.76c-0.09-0.109-0.164-0.205-0.299-0.277c-0.034-0.014-0.069-0.029-0.103-0.043
			c-0.153-0.132-0.311-0.238-0.499-0.273c-0.036-0.045-0.072-0.09-0.107-0.135c-0.247-0.312-0.694,0.033-0.62,0.361
			c0.009,0.041,0.018,0.081,0.028,0.122c-0.074,0.142-0.101,0.294-0.104,0.484c-0.001,0.043,0.019,0.289-0.003,0.058
			c-0.04,0.128-0.046,0.255-0.017,0.383c0.007,0.071,0.018,0.142,0.034,0.211c0.064,0.336,0.137,0.671,0.206,1.007
			c0.069,0.339,0.134,0.668,0.252,0.994c0.153,0.423,0.354,0.806,0.569,1.199c0.196,0.359,0.583,0.591,0.992,0.666
			c0.003,0.002,0.007,0.003,0.01,0.005c0.294,0.135,0.564,0.178,0.869,0.049c0.273-0.115,0.49-0.338,0.565-0.633
			c0.014-0.056,0.029-0.112,0.043-0.168c0.017-0.032,0.042-0.054,0.057-0.089C487.679,461.329,487.754,460.944,487.639,460.666z"/>
	</g>
</g>
</svg>
