<?xml version="1.0" encoding="utf-8"?>
<!-- Generator: Adobe Illustrator 27.5.0, SVG Export Plug-In . SVG Version: 6.00 Build 0)  -->
<svg version="1.1" xmlns="http://www.w3.org/2000/svg" xmlns:xlink="http://www.w3.org/1999/xlink" x="0px" y="0px"
	 viewBox="0 0 500 500" style="enable-background:new 0 0 500 500;" xml:space="preserve">
<g id="BACKGROUND">
	<g>
		
			<ellipse transform="matrix(0.9208 -0.3901 0.3901 0.9208 -120.4525 205.1608)" style="fill:#ADCDFF;" cx="444.817" cy="399.098" rx="31.454" ry="31.454"/>
		<path style="fill:#D3E4FF;" d="M453.404,196.361c-0.802-3.529-1.639-7.116-2.476-10.799c-9.55-42.01-40.476-79.061-80.864-94.56
			c-47.364-18.176-104.981-5.579-140.438,30.704c-14.437,14.773-25.179,32.749-38.894,48.195
			c-12.744,14.353-24.165,29.517-43.094,36.072c-14.09,4.88-29.132,6.433-43.366,10.875c-33.422,10.43-61.156,37.591-72.281,70.788
			c-9.655,28.811-7.013,60.875,3.695,89.312c8.601,22.84,22.158,43.51,38.006,61.959c1.354,1.576,2.74,2.963,4.154,4.21h251.558
			c6.706-4.445,12.954-9.887,18.589-14.487c37.192-30.368,69.519-68.46,90.21-111.983c10.294-21.654,17.605-44.865,20.141-68.761
			C460.326,229.209,457.289,213.467,453.404,196.361z"/>
		<path style="fill:#ADCDFF;" d="M26.686,312.412c-2.241,21.68,1.285,44.05,9,64.536c8.601,22.84,22.158,43.51,38.006,61.959
			c1.354,1.575,2.74,2.963,4.154,4.209h251.558c6.706-4.445,12.954-9.886,18.589-14.487c37.192-30.368,69.519-68.46,90.21-111.983
			c0.668-1.404,1.322-2.816,1.964-4.234H26.686z"/>
		
			<line style="fill:none;stroke:#2D3847;stroke-width:0.8794;stroke-linecap:round;stroke-miterlimit:10;" x1="67.435" y1="443.698" x2="347.036" y2="443.698"/>
		
			<ellipse transform="matrix(0.7071 -0.7071 0.7071 0.7071 -63.3457 131.2168)" style="fill:#D3E4FF;" cx="126.72" cy="142.073" rx="55.06" ry="55.06"/>
	</g>
</g>
<g id="OBJECTS">
	<g>
		<g>
			<rect x="288.596" y="243.743" style="fill:#76A6F5;" width="19.456" height="68.851"/>
			<path style="fill:#98BBF5;" d="M337.029,312.593h-77.41v-0.378c0-2.745,2.225-4.97,4.97-4.97h67.47c2.745,0,4.97,2.225,4.97,4.97
				V312.593z"/>
			<rect x="245.647" y="240.735" style="fill:#98BBF5;" width="105.355" height="61.184"/>
			<rect x="249.1" y="243.743" style="fill:#FFFFFF;" width="98.449" height="55.168"/>
			<text transform="matrix(1 0 0 1 274.1812 269.3896)"><tspan x="0" y="0" style="fill:#BD99FF; font-family:'Poppins-ExtraBold'; font-size:18.1738px;">VERY</tspan><tspan x="-3.716" y="17.652" style="fill:#BD99FF; font-family:'Poppins-ExtraBold'; font-size:18.1738px;">GOOD</tspan></text>
		</g>
		<path style="fill:#76A6F5;" d="M356.883,305.192h-3.006c-3.397,0-6.151,2.754-6.151,6.151v1.251h15.307v-1.251
			C363.034,307.946,360.28,305.192,356.883,305.192z"/>
		
			<line style="fill:none;stroke:#2D3847;stroke-width:0.8794;stroke-miterlimit:10;" x1="26.169" y1="312.593" x2="440.67" y2="312.593"/>
	</g>
	<g>
		<g>
			<path style="fill:#FFFFFF;" d="M409.723,212.206H234.149c-5.62,0-10.176-4.556-10.176-10.176v-47.483
				c0-5.62,4.556-10.176,10.176-10.176h175.574c5.62,0,10.176,4.556,10.176,10.176v47.483
				C419.899,207.65,415.343,212.206,409.723,212.206z"/>
			<g>
				
					<ellipse transform="matrix(0.7071 -0.7071 0.7071 0.7071 -49.8618 236.1989)" style="fill:#BD99FF;" cx="260.186" cy="178.288" rx="20.742" ry="20.742"/>
				<g>
					<polygon style="fill:#FFDF40;" points="298.645,153.944 301.803,163.662 312.021,163.662 303.754,169.668 306.912,179.387 
						298.645,173.38 290.378,179.387 293.536,169.668 285.269,163.662 295.487,163.662 					"/>
					<polygon style="fill:#FFDF40;" points="329.447,153.944 332.605,163.662 342.824,163.662 334.557,169.668 337.714,179.387 
						329.447,173.38 321.181,179.387 324.338,169.668 316.071,163.662 326.29,163.662 					"/>
					<polygon style="fill:#FFDF40;" points="360.25,153.944 363.408,163.662 373.626,163.662 365.359,169.668 368.517,179.387 
						360.25,173.38 351.983,179.387 355.141,169.668 346.874,163.662 357.092,163.662 					"/>
					<polygon style="fill:#D3E4FF;" points="391.052,153.944 394.21,163.662 404.428,163.662 396.162,169.668 399.319,179.387 
						391.052,173.38 382.785,179.387 385.943,169.668 377.676,163.662 387.895,163.662 					"/>
					
						<line style="fill:none;stroke:#BD99FF;stroke-width:2.9783;stroke-miterlimit:10;" x1="288.705" y1="184.3" x2="403.998" y2="184.3"/>
					
						<line style="fill:none;stroke:#BD99FF;stroke-width:2.9783;stroke-miterlimit:10;" x1="288.705" y1="192.044" x2="403.998" y2="192.044"/>
					<path style="fill:none;stroke:#BD99FF;stroke-width:2.9783;stroke-miterlimit:10;" d="M288.705,199.787
						c16.773,0.352,34.642,0.352,51.407,0"/>
				</g>
			</g>
			<polygon style="fill:#FFFFFF;" points="240.467,207.829 240.467,222.971 256.946,206.493 			"/>
		</g>
		<g>
			<path style="fill:#FFFFFF;" d="M457.884,391.238H342.602c-3.69,0-6.682-2.991-6.682-6.682v-31.178
				c0-3.69,2.992-6.682,6.682-6.682h115.282c3.69,0,6.682,2.992,6.682,6.682v31.178
				C464.566,388.246,461.574,391.238,457.884,391.238z"/>
			<g>
				
					<ellipse transform="matrix(0.1595 -0.9872 0.9872 0.1595 -61.919 665.2077)" style="fill:#BD99FF;" cx="359.698" cy="368.967" rx="13.62" ry="13.619"/>
				<g>
					<polygon style="fill:#FFDF40;" points="384.95,352.983 387.023,359.364 393.733,359.364 388.305,363.307 390.378,369.689 
						384.95,365.745 379.522,369.689 381.595,363.307 376.167,359.364 382.877,359.364 					"/>
					<polygon style="fill:#FFDF40;" points="405.175,352.983 407.249,359.364 413.958,359.364 408.53,363.307 410.603,369.689 
						405.175,365.745 399.747,369.689 401.82,363.307 396.392,359.364 403.102,359.364 					"/>
					<polygon style="fill:#FFDF40;" points="425.4,352.983 427.473,359.364 434.183,359.364 428.755,363.307 430.828,369.689 
						425.4,365.745 419.972,369.689 422.045,363.307 416.617,359.364 423.327,359.364 					"/>
					<polygon style="fill:#FFDF40;" points="445.625,352.983 447.698,359.364 454.408,359.364 448.98,363.307 451.053,369.689 
						445.625,365.745 440.197,369.689 442.27,363.307 436.842,359.364 443.552,359.364 					"/>
					
						<line style="fill:none;stroke:#BD99FF;stroke-width:1.9555;stroke-miterlimit:10;" x1="378.423" y1="372.914" x2="454.125" y2="372.914"/>
					
						<line style="fill:none;stroke:#BD99FF;stroke-width:1.9555;stroke-miterlimit:10;" x1="378.423" y1="377.999" x2="454.125" y2="377.999"/>
					<path style="fill:none;stroke:#BD99FF;stroke-width:1.9555;stroke-miterlimit:10;" d="M378.423,383.083
						c11.013,0.231,22.746,0.231,33.754,0"/>
				</g>
			</g>
			<polygon style="fill:#FFFFFF;" points="346.75,348.888 346.75,338.068 357.57,348.888 			"/>
		</g>
		<g>
			<rect x="84.696" y="82.248" style="fill:#76A6F5;" width="76.745" height="102.326"/>
			<rect x="88.873" y="90.552" style="fill:#FFFFFF;" width="68.392" height="89.324"/>
			<rect x="102.826" y="77.562" style="fill:#3B495E;" width="40.484" height="19.484"/>
			<g>
				<rect x="98.226" y="106.464" style="fill:#D3E4FF;" width="6.819" height="6.819"/>
				
					<line style="fill:none;stroke:#D3E4FF;stroke-width:0.9162;stroke-miterlimit:10;" x1="108.293" y1="107.762" x2="147.911" y2="107.762"/>
				
					<line style="fill:none;stroke:#D3E4FF;stroke-width:0.9162;stroke-miterlimit:10;" x1="108.293" y1="110.685" x2="147.911" y2="110.685"/>
			</g>
			<g>
				<rect x="98.226" y="118.089" style="fill:#D3E4FF;" width="6.819" height="6.819"/>
				
					<line style="fill:none;stroke:#D3E4FF;stroke-width:0.9162;stroke-miterlimit:10;" x1="108.293" y1="119.388" x2="147.911" y2="119.388"/>
				
					<line style="fill:none;stroke:#D3E4FF;stroke-width:0.9162;stroke-miterlimit:10;" x1="108.293" y1="122.311" x2="147.911" y2="122.311"/>
			</g>
			<g>
				<rect x="98.226" y="129.714" style="fill:#D3E4FF;" width="6.819" height="6.819"/>
				
					<line style="fill:none;stroke:#D3E4FF;stroke-width:0.9162;stroke-miterlimit:10;" x1="108.293" y1="131.013" x2="147.911" y2="131.013"/>
				
					<line style="fill:none;stroke:#D3E4FF;stroke-width:0.9162;stroke-miterlimit:10;" x1="108.293" y1="133.936" x2="147.911" y2="133.936"/>
			</g>
			<g>
				<rect x="98.226" y="141.34" style="fill:#D3E4FF;" width="6.819" height="6.819"/>
				
					<line style="fill:none;stroke:#D3E4FF;stroke-width:0.9162;stroke-miterlimit:10;" x1="108.293" y1="142.639" x2="147.911" y2="142.639"/>
				
					<line style="fill:none;stroke:#D3E4FF;stroke-width:0.9162;stroke-miterlimit:10;" x1="108.293" y1="145.561" x2="147.911" y2="145.561"/>
			</g>
			<g>
				<rect x="98.226" y="152.965" style="fill:#D3E4FF;" width="6.819" height="6.819"/>
				
					<line style="fill:none;stroke:#D3E4FF;stroke-width:0.9162;stroke-miterlimit:10;" x1="108.293" y1="154.264" x2="147.911" y2="154.264"/>
				
					<line style="fill:none;stroke:#D3E4FF;stroke-width:0.9162;stroke-miterlimit:10;" x1="108.293" y1="157.187" x2="147.911" y2="157.187"/>
			</g>
			<g>
				<rect x="98.226" y="164.591" style="fill:#D3E4FF;" width="6.819" height="6.819"/>
				
					<line style="fill:none;stroke:#D3E4FF;stroke-width:0.9162;stroke-miterlimit:10;" x1="108.293" y1="165.89" x2="147.911" y2="165.89"/>
				
					<line style="fill:none;stroke:#D3E4FF;stroke-width:0.9162;stroke-miterlimit:10;" x1="108.293" y1="168.812" x2="147.911" y2="168.812"/>
			</g>
			<path style="fill:none;stroke:#BD99FF;stroke-width:2;stroke-linecap:round;stroke-linejoin:round;stroke-miterlimit:10;" d="
				M98.177,109.315c0.763,1.113,1.525,2.226,2.288,3.338c0.781-3.447,2.967-6.553,5.948-8.451"/>
			<path style="fill:none;stroke:#BD99FF;stroke-width:2;stroke-linecap:round;stroke-linejoin:round;stroke-miterlimit:10;" d="
				M98.177,120.958c0.763,1.113,1.525,2.226,2.288,3.338c0.781-3.446,2.967-6.553,5.948-8.451"/>
			<path style="fill:none;stroke:#BD99FF;stroke-width:2;stroke-linecap:round;stroke-linejoin:round;stroke-miterlimit:10;" d="
				M98.177,132.6c0.763,1.113,1.525,2.225,2.288,3.338c0.781-3.447,2.967-6.553,5.948-8.451"/>
			<path style="fill:none;stroke:#BD99FF;stroke-width:2;stroke-linecap:round;stroke-linejoin:round;stroke-miterlimit:10;" d="
				M98.177,144.243c0.763,1.113,1.525,2.226,2.288,3.338c0.781-3.447,2.967-6.553,5.948-8.451"/>
			<path style="fill:none;stroke:#BD99FF;stroke-width:2;stroke-linecap:round;stroke-linejoin:round;stroke-miterlimit:10;" d="
				M98.177,155.885c0.763,1.113,1.525,2.226,2.288,3.338c0.781-3.447,2.967-6.553,5.948-8.451"/>
		</g>
		<g>
			
				<ellipse transform="matrix(0.232 -0.9727 0.9727 0.232 74.6828 614.0898)" style="fill:#BD99FF;" cx="426.229" cy="259.75" rx="22.59" ry="22.59"/>
			<path style="fill:#FFFFFF;" d="M433.005,251.23c-3.754,0-6.776,3.043-6.776,6.798c0-3.754-3.022-6.798-6.776-6.798
				c-3.754,0-6.798,3.043-6.798,6.798c0,8.469,13.574,15.568,13.574,15.568s13.574-7.099,13.574-15.568
				C439.803,254.273,436.759,251.23,433.005,251.23z"/>
		</g>
		<g>
			<circle style="fill:#BD99FF;" cx="236.906" cy="90.838" r="22.59"/>
			<path style="fill:#FFFFFF;" d="M243.682,82.318c-3.754,0-6.776,3.044-6.776,6.798c0-3.754-3.021-6.798-6.776-6.798
				s-6.798,3.044-6.798,6.798c0,8.469,13.573,15.568,13.573,15.568s13.574-7.099,13.574-15.568
				C250.48,85.361,247.436,82.318,243.682,82.318z"/>
		</g>
		<polygon style="fill:#BD99FF;" points="423.711,65.417 431.15,88.311 455.223,88.311 435.748,102.461 443.187,125.356 
			423.711,111.206 404.236,125.356 411.675,102.461 392.199,88.311 416.272,88.311 		"/>
		<polygon style="fill:#BD99FF;" points="48.44,236.313 55.879,259.208 79.952,259.208 60.477,273.358 67.916,296.253 
			48.44,282.103 28.965,296.253 36.404,273.358 16.928,259.208 41.001,259.208 		"/>
	</g>
	<g>
		<g>
			<g>
				<path style="fill:#FFFFFF;" d="M127.291,310.615h-22.372c-4.78,0-8.655-3.875-8.655-8.655l0,0c0-4.78,3.875-8.655,8.655-8.655
					h22.372c4.78,0,8.655,3.875,8.655,8.655l0,0C135.945,306.741,132.071,310.615,127.291,310.615z"/>
				<path style="fill:#2D3847;" d="M123.997,311.629h-23.354c-5.34,0-9.668-4.329-9.668-9.668l0,0c0-5.34,4.329-9.668,9.668-9.668
					h23.354c5.34,0,9.668,4.329,9.668,9.668l0,0C133.665,307.3,129.337,311.629,123.997,311.629z"/>
			</g>
			<path style="fill:#2D3847;" d="M95.227,292.357c5.375-6.33,20.64-26.028,20.64-26.028c1.461-1.842,4.308-1.668,5.534,0.338
				l12.12,19.83c0.345,0.564,0.056,1.302-0.581,1.481l-29.67,21.704c-4.244,1.41-8.901-0.293-11.233-4.109l0,0
				C89.27,301.043,91.163,297.144,95.227,292.357z"/>
		</g>
		<g>
			<g>
				<g>
					<path style="fill:#2D3847;" d="M157.958,424.56l-1.878,15.53h38.824h0c-3.978-3.877-9.029-6.469-14.498-7.441l0,0
						c-2.871-0.51-8.528-1.85-8.528-1.85l-3.049-7.273L157.958,424.56z"/>
					<path style="fill:#3B495E;" d="M193.887,442.079h-37.083c-0.714,0-1.293-0.579-1.293-1.293v-0.327
						c0-0.714,0.579-1.293,1.293-1.293h37.083c0.714,0,1.293,0.579,1.293,1.293v0.327C195.18,441.5,194.601,442.079,193.887,442.079
						z"/>
				</g>
				<path style="fill:#2D3847;" d="M182.653,359.099l-8.094,71.66h-18.614v-90.436h10.709
					C176.629,340.322,184.236,349.249,182.653,359.099z"/>
			</g>
			<g>
				<g>
					<path style="fill:#2D3847;" d="M207.898,428.129l-1.878,15.529h38.824l0,0c-3.978-3.877-9.029-6.469-14.498-7.441l0,0
						c-2.871-0.51-8.528-1.85-8.528-1.85l-3.049-7.273L207.898,428.129z"/>
					<path style="fill:#3B495E;" d="M243.827,445.647h-37.083c-0.714,0-1.293-0.579-1.293-1.293v-0.327
						c0-0.714,0.579-1.293,1.293-1.293h37.083c0.714,0,1.293,0.579,1.293,1.293v0.327
						C245.12,445.068,244.541,445.647,243.827,445.647z"/>
				</g>
				<path style="fill:#3B495E;" d="M229.775,378.305l-63.741-6.858l2.03-27.96l49.955,5.375
					c9.809,1.055,16.407,10.557,13.969,20.117L229.775,378.305z"/>
				<path style="fill:#3B495E;" d="M232.225,368.173l-9.558,66.012h-17.15v-84.789h10.709
					C226.202,349.396,233.809,358.323,232.225,368.173z"/>
			</g>
			<g>
				<path style="fill:#3B495E;" d="M169.102,370.102h-23.917c-8.01,0-14.504-6.494-14.504-14.504v-18.134h52.925v18.134
					C183.606,363.608,177.112,370.102,169.102,370.102z"/>
				<rect x="130.681" y="337.463" style="fill:#2D3847;" width="52.925" height="9.552"/>
			</g>
		</g>
		<g>
			<g>
				<path style="fill:#F7C9B5;" d="M129.865,217.087v45.4l23.918,0.071v-7.174l5.887-0.071c5.067,0,6.153-2.714,6.153-7.781v-30.445
					H129.865z"/>
				<path style="fill:#F7C9B5;" d="M164.715,232.6l4.297,7.72c0.359,0.845-0.097,1.814-0.977,2.076l-3.32,0.988V232.6z"/>
				<rect x="129.865" y="217.087" style="fill:#F7A37E;" width="35.958" height="3.046"/>
				<rect x="129.865" y="217.087" style="fill:#F7A37E;" width="23.918" height="45.4"/>
			</g>
			<g>
				<path style="fill:#2D3847;" d="M174.429,200.329c-0.571,1.238-1.854,2.035-3.185,2.332c-1.331,0.297-2.717,0.161-4.066-0.033
					c-9.267-1.338-22.791-8.356-31.364-1.554c-2.496,1.981-4.139,5.08-4.417,8.251c-0.058,0.662,0.232,1.723,0.053,2.318
					c-0.274,0.908-0.63,0.751-1.691,1.007c-13.197,3.194-5.271,19.107-2.354,27.149c0.802,2.21,1.185,4.633,0.932,6.983
					c-0.21,1.944,0.096,2.321,1.598,2.277c0.607-0.018,1.214-0.041,1.821-0.041h15.982c5.115,0,9.262-4.143,9.262-9.259
					c0-9.391,0.001-22.55,0.004-22.55c7.034,0-7.082,0-0.048,0c5.67,0,11.116-1.021,14.771-5.847
					c0.668-0.882,1.228-1.845,1.671-2.858C174.515,205.953,174.895,203.076,174.429,200.329z"/>
				<g>
					<g>
						<path style="fill:#2D3847;" d="M153.371,217.253c4.639,0.411,9.289,0.722,13.946,0.827c3.319,0.075,6.327-0.002,9.1-1.982
							c1.37-0.978,0.054-3.268-1.332-2.278c-3.182,2.273-7.368,1.665-11.054,1.51c-3.56-0.149-7.111-0.4-10.66-0.715
							C151.68,214.465,151.69,217.104,153.371,217.253L153.371,217.253z"/>
					</g>
				</g>
				<g>
					<g>
						<path style="fill:#2D3847;" d="M164.029,216.941c6.517,0.787,12.374-3.557,13.508-10.018c0.291-1.66-2.251-2.373-2.544-0.701
							c-0.949,5.406-5.517,8.74-10.964,8.081C162.347,214.1,162.362,216.74,164.029,216.941L164.029,216.941z"/>
					</g>
				</g>
				<g>
					<g>
						<path style="fill:#2D3847;" d="M134.099,210.7c-2.786-0.206-1.725-6.837-1.365-8.423c0.376-1.653-2.167-2.359-2.544-0.701
							c-0.841,3.703-1.466,11.365,3.909,11.763C135.793,213.464,135.785,210.825,134.099,210.7L134.099,210.7z"/>
					</g>
				</g>
				<g>
					<g>
						<path style="fill:#2D3847;" d="M126.824,212.519c1.848,0.045,3.531,0.569,5.097,1.547c1.444,0.902,2.77-1.38,1.332-2.278
							c-1.949-1.217-4.133-1.852-6.429-1.907C125.126,209.84,125.127,212.478,126.824,212.519L126.824,212.519z"/>
					</g>
				</g>
			</g>
			<g>
				<g>
					<path style="fill:#F7C9B5;" d="M159.334,243.293c-0.074,0.136-0.163,0.244-0.267,0.317
						c-5.673,3.962-14.581-12.868-6.504-16.195c1.945-0.801,4.569,0.418,5.774,2.049c1.424,1.929,1.109,4.922,1.109,7.161
						C159.446,237.84,160.064,241.954,159.334,243.293z"/>
				</g>
				
					<path style="fill:none;stroke:#F7A37E;stroke-width:1.7589;stroke-linecap:round;stroke-linejoin:round;stroke-miterlimit:10;" d="
					M152.8,232.753c-0.109-0.463,0.002-0.974,0.294-1.35c0.292-0.376,0.759-0.61,1.235-0.619c0.756-0.014,1.437,0.518,1.818,1.171
					c0.781,1.338,1.348,2.792,1.534,4.338c-0.857-0.339-1.949,0.227-2.166,1.122c-0.217,0.895,0.494,1.899,1.411,1.991"/>
			</g>
			<g>
				<g>
					<g>
						<path style="fill:#2D3847;" d="M162.681,229.287c0.891,0,1.781,0,2.672,0c1.224,0,2.396-1.076,2.339-2.339
							c-0.057-1.267-1.028-2.339-2.339-2.339c-0.891,0-1.781,0-2.672,0c-1.224,0-2.396,1.076-2.339,2.339
							C160.399,228.215,161.37,229.287,162.681,229.287L162.681,229.287z"/>
					</g>
				</g>
				<path style="fill:#2D3847;" d="M165.014,230.846c-0.216-0.443-0.481-0.723-0.78-0.723h-0.044c-0.283,0-0.58,0.275-0.78,0.723
					c-0.191,0.428-0.335,1.131-0.323,1.746c0.013,0.639,0.106,1.301,0.323,1.746c0.216,0.443,0.481,0.723,0.78,0.723h0.044
					c0.283,0,0.58-0.275,0.78-0.723c0.191-0.428,0.335-1.131,0.323-1.746C165.324,231.953,165.23,231.291,165.014,230.846z"/>
				<path style="fill:#2D3847;" d="M165.824,244.894c-0.872,0.013-1.933-0.114-2.845-0.448c0,0-0.331,3.909,2.845,3.846
					C165.815,248.301,165.824,244.894,165.824,244.894z"/>
			</g>
		</g>
		<g>
			<rect x="126.495" y="257.447" style="fill:#FFFFFF;" width="37.076" height="6.904"/>
			<path style="fill:#3B495E;" d="M186.869,343.961h-59.387l3.254-20.301c0,0-13.665-39.325-16.313-46.767
				c-0.34-0.955-0.578-1.951-0.608-2.965c-0.188-6.327,4.147-11.209,8.855-11.209h41.302c4.986,0,10.889,0.603,10.889,12.968
				l5.33,47.973L186.869,343.961z"/>
			<polygon style="fill:#2D3847;" points="175.063,282.598 161.116,282.598 180.192,323.66 			"/>
		</g>
		<g>
			<polygon style="fill:#FFFFFF;" points="215.343,241.472 228.721,249.087 240.097,238.717 236.989,253.793 250.367,261.408 
				235.068,263.11 231.96,278.186 225.613,264.163 210.314,265.866 221.69,255.496 			"/>
			<g>
				<path style="fill:none;stroke:#F7C9B5;stroke-width:4.3971;stroke-linecap:round;stroke-miterlimit:10;" d="M219.687,278.806
					c1.089-2.966,3.295-5.502,6.169-7.091c2.874-1.589,6.397-2.22,9.851-1.766"/>
				<path style="fill:none;stroke:#F7C9B5;stroke-width:4.3971;stroke-linecap:round;stroke-miterlimit:10;" d="M220.676,274.07
					c3.629-4.772,8.909-8.987,15.062-10.261"/>
				<path style="fill:none;stroke:#F7C9B5;stroke-width:4.3971;stroke-linecap:round;stroke-miterlimit:10;" d="M224.052,270.843
					c-0.029-5.579,3.87-10.449,8.46-13.746"/>
				<path style="fill:none;stroke:#F7C9B5;stroke-width:4.3971;stroke-linecap:round;stroke-miterlimit:10;" d="M220.47,271.942
					c-0.045-3.908,2.78-11.064,5.027-16.009"/>
				<path style="fill:#F7C9B5;" d="M223.273,264.745l6.94,3.901c1.384,0.778,1.717,2.724,0.743,4.348l-6.118,10.436
					c-0.912,1.555-2.9,2.097-4.475,1.219l-6.764-3.773c-1.384-0.778-1.717-2.725-0.743-4.348l6.147-10.251
					C219.977,264.653,221.888,263.967,223.273,264.745z"/>
			</g>
			<g>
				<path style="fill:#FFFFFF;" d="M227.382,283.356l-10.764,19.612c-2.3,4.19-7.561,5.723-11.751,3.423l0,0
					c-4.19-2.3-5.723-7.561-3.423-11.751l10.764-19.612c2.3-4.19,7.561-5.723,11.751-3.423l0,0
					C228.149,273.905,229.682,279.166,227.382,283.356z"/>
				<path style="fill:#3B495E;" d="M226.927,286.864l-11.236,20.473c-2.569,4.681-8.447,6.393-13.128,3.824l0,0
					c-4.681-2.569-6.393-8.447-3.824-13.128l11.236-20.473c2.569-4.681,8.447-6.393,13.128-3.824l0,0
					C227.785,276.305,229.497,282.183,226.927,286.864z"/>
			</g>
			<path style="fill:#3B495E;" d="M202.102,311.209l-47.189-22.962l11.606-24.867c0.322-0.578,3.283,0.045,3.752,0.512l42.969,31.8
				c3.313,3.004,4.117,7.897,1.939,11.803l0,0C212.594,312.131,206.739,313.794,202.102,311.209z"/>
		</g>
		<g>
			<g>
				<rect x="152.609" y="375.459" style="fill:#FFFFFF;" width="8.884" height="61.54"/>
				<rect x="152.609" y="375.459" style="fill:#CADEFF;" width="8.884" height="28.069"/>
			</g>
			<g>
				<rect x="148.626" y="375.459" style="fill:#5E6B82;" width="16.85" height="22.364"/>
				<rect x="148.626" y="375.459" style="fill:#334566;" width="16.85" height="13.668"/>
			</g>
			<g>
				<g>
					<path style="fill:#FFFFFF;" d="M133.662,377.711l-11.19-58.382c-0.549-2.862,1.327-5.627,4.189-6.175l0,0
						c2.862-0.549,5.627,1.327,6.176,4.189l11.19,58.381L133.662,377.711z"/>
				</g>
				<g>
					<path style="fill:#CADEFF;" d="M126.458,340.123h10.745l-4.366-22.78c-0.549-2.862-3.314-4.738-6.176-4.189
						c-2.862,0.549-4.737,3.314-4.189,6.175L126.458,340.123z"/>
				</g>
			</g>
			<path style="fill:#729FE8;" d="M193.29,382.079h-72.478c-3.344,0-6.056-2.711-6.056-6.056l0,0c0-3.344,2.711-6.056,6.056-6.056
				h72.478c3.344,0,6.056,2.711,6.056,6.056l0,0C199.345,379.368,196.634,382.079,193.29,382.079z"/>
			<g>
				<circle style="fill:#5E6B82;" cx="135.088" cy="439.597" r="5.347"/>
				<path style="fill:#5E6B82;" d="M184.032,439.597c0,2.953-2.394,5.347-5.347,5.347c-2.953,0-5.347-2.394-5.347-5.347
					c0-2.953,2.394-5.347,5.347-5.347C181.638,434.25,184.032,436.644,184.032,439.597z"/>
				<path style="fill:#FFFFFF;" d="M126.673,437.753L126.673,437.753c0-4.511,3.657-8.168,8.168-8.168h45.204
					c4.511,0,8.168,3.657,8.168,8.168l0,0H126.673z"/>
			</g>
			<path style="fill:#729FE8;" d="M149.728,333.283h-41.846c-5.851,0-10.594-4.743-10.594-10.594v-28.604
				c0-5.851,4.743-10.594,10.594-10.594h41.846c5.851,0,10.594,4.743,10.594,10.594v28.604
				C160.322,328.54,155.579,333.283,149.728,333.283z"/>
		</g>
	</g>
	<g>
		<circle style="fill:#BD99FF;" cx="351.428" cy="269.685" r="16.885"/>
		<polygon style="fill:#FFFFFF;" points="342.86,261.369 342.86,267.214 354.704,269.937 342.86,272.66 342.86,278.505 
			364.784,269.937 		"/>
	</g>
</g>
</svg>
